<mxfile host="app.diagrams.net" agent="Mozilla/5.0 (Windows NT 10.0; Win64; x64) AppleWebKit/537.36 (KHTML, like Gecko) Chrome/131.0.0.0 Safari/537.36" version="26.0.3" pages="4">
  <diagram name="예제" id="2kMVh4AChs_5C903fz1E">
    <mxGraphModel dx="4734" dy="894" grid="1" gridSize="10" guides="1" tooltips="1" connect="1" arrows="1" fold="1" page="1" pageScale="1" pageWidth="3300" pageHeight="4681" math="0" shadow="0">
      <root>
        <mxCell id="0" />
        <mxCell id="1" parent="0" />
        <mxCell id="kg-7mxeYcSGcEFVd8-3E-1" value="CHAN모델링" style="text;html=1;align=center;verticalAlign=middle;resizable=0;points=[];autosize=1;strokeColor=none;fillColor=none;" parent="1" vertex="1">
          <mxGeometry x="40" y="102" width="90" height="30" as="geometry" />
        </mxCell>
        <mxCell id="kg-7mxeYcSGcEFVd8-3E-2" value="CRAW&#39;S FOOT 모델링" style="text;html=1;align=center;verticalAlign=middle;resizable=0;points=[];autosize=1;strokeColor=none;fillColor=none;" parent="1" vertex="1">
          <mxGeometry x="580" y="102" width="150" height="30" as="geometry" />
        </mxCell>
        <mxCell id="kg-7mxeYcSGcEFVd8-3E-3" value="개념적 설계" style="text;html=1;align=center;verticalAlign=middle;resizable=0;points=[];autosize=1;strokeColor=none;fillColor=none;" parent="1" vertex="1">
          <mxGeometry x="40" y="50" width="90" height="30" as="geometry" />
        </mxCell>
        <mxCell id="kg-7mxeYcSGcEFVd8-3E-4" value="1:1" style="text;html=1;align=center;verticalAlign=middle;resizable=0;points=[];autosize=1;strokeColor=none;fillColor=none;" parent="1" vertex="1">
          <mxGeometry x="40" y="132" width="40" height="30" as="geometry" />
        </mxCell>
        <mxCell id="kg-7mxeYcSGcEFVd8-3E-22" value="" style="edgeStyle=orthogonalEdgeStyle;rounded=0;orthogonalLoop=1;jettySize=auto;html=1;endArrow=none;endFill=0;" parent="1" source="kg-7mxeYcSGcEFVd8-3E-5" target="kg-7mxeYcSGcEFVd8-3E-9" edge="1">
          <mxGeometry relative="1" as="geometry" />
        </mxCell>
        <mxCell id="kg-7mxeYcSGcEFVd8-3E-73" value="" style="edgeStyle=orthogonalEdgeStyle;rounded=0;orthogonalLoop=1;jettySize=auto;html=1;entryX=0.471;entryY=1.095;entryDx=0;entryDy=0;entryPerimeter=0;endArrow=none;endFill=0;" parent="1" source="kg-7mxeYcSGcEFVd8-3E-5" target="kg-7mxeYcSGcEFVd8-3E-26" edge="1">
          <mxGeometry relative="1" as="geometry">
            <Array as="points">
              <mxPoint x="194" y="210" />
            </Array>
          </mxGeometry>
        </mxCell>
        <mxCell id="kg-7mxeYcSGcEFVd8-3E-5" value="남자" style="whiteSpace=wrap;html=1;align=center;" parent="1" vertex="1">
          <mxGeometry x="20" y="190" width="100" height="40" as="geometry" />
        </mxCell>
        <mxCell id="kg-7mxeYcSGcEFVd8-3E-6" value="여자" style="whiteSpace=wrap;html=1;align=center;" parent="1" vertex="1">
          <mxGeometry x="365" y="190" width="100" height="40" as="geometry" />
        </mxCell>
        <mxCell id="kg-7mxeYcSGcEFVd8-3E-25" value="" style="edgeStyle=orthogonalEdgeStyle;rounded=0;orthogonalLoop=1;jettySize=auto;html=1;endArrow=none;endFill=0;" parent="1" source="kg-7mxeYcSGcEFVd8-3E-7" target="kg-7mxeYcSGcEFVd8-3E-5" edge="1">
          <mxGeometry relative="1" as="geometry">
            <Array as="points">
              <mxPoint y="250" />
              <mxPoint x="70" y="250" />
            </Array>
          </mxGeometry>
        </mxCell>
        <mxCell id="kg-7mxeYcSGcEFVd8-3E-7" value="&lt;span style=&quot;border-bottom: 1px dotted&quot;&gt;&lt;u&gt;아이디&lt;/u&gt;&lt;/span&gt;&lt;div&gt;&lt;span style=&quot;border-bottom: 1px dotted&quot;&gt;&lt;u&gt;(PK)&lt;/u&gt;&lt;/span&gt;&lt;/div&gt;" style="ellipse;whiteSpace=wrap;html=1;align=center;" parent="1" vertex="1">
          <mxGeometry x="-20" y="260" width="40" height="40" as="geometry" />
        </mxCell>
        <mxCell id="kg-7mxeYcSGcEFVd8-3E-23" value="" style="edgeStyle=orthogonalEdgeStyle;rounded=0;orthogonalLoop=1;jettySize=auto;html=1;endArrow=none;endFill=0;" parent="1" source="kg-7mxeYcSGcEFVd8-3E-8" target="kg-7mxeYcSGcEFVd8-3E-5" edge="1">
          <mxGeometry relative="1" as="geometry">
            <Array as="points">
              <mxPoint x="50" y="250" />
              <mxPoint x="70" y="250" />
            </Array>
          </mxGeometry>
        </mxCell>
        <mxCell id="kg-7mxeYcSGcEFVd8-3E-8" value="이름" style="ellipse;whiteSpace=wrap;html=1;align=center;" parent="1" vertex="1">
          <mxGeometry x="30" y="260" width="40" height="40" as="geometry" />
        </mxCell>
        <mxCell id="kg-7mxeYcSGcEFVd8-3E-9" value="나이" style="ellipse;whiteSpace=wrap;html=1;align=center;" parent="1" vertex="1">
          <mxGeometry x="80" y="260" width="40" height="40" as="geometry" />
        </mxCell>
        <mxCell id="kg-7mxeYcSGcEFVd8-3E-24" value="" style="edgeStyle=orthogonalEdgeStyle;rounded=0;orthogonalLoop=1;jettySize=auto;html=1;endArrow=none;endFill=0;" parent="1" target="kg-7mxeYcSGcEFVd8-3E-5" edge="1">
          <mxGeometry relative="1" as="geometry">
            <mxPoint x="150" y="260" as="sourcePoint" />
            <Array as="points">
              <mxPoint x="150" y="250" />
              <mxPoint x="70" y="250" />
            </Array>
          </mxGeometry>
        </mxCell>
        <mxCell id="kg-7mxeYcSGcEFVd8-3E-10" value="직업" style="ellipse;whiteSpace=wrap;html=1;align=center;" parent="1" vertex="1">
          <mxGeometry x="130" y="260" width="40" height="40" as="geometry" />
        </mxCell>
        <mxCell id="kg-7mxeYcSGcEFVd8-3E-28" value="" style="edgeStyle=orthogonalEdgeStyle;rounded=0;orthogonalLoop=1;jettySize=auto;html=1;endArrow=none;endFill=0;" parent="1" target="kg-7mxeYcSGcEFVd8-3E-6" edge="1">
          <mxGeometry relative="1" as="geometry">
            <mxPoint x="340" y="260" as="sourcePoint" />
            <Array as="points">
              <mxPoint x="340" y="250" />
              <mxPoint x="415" y="250" />
            </Array>
          </mxGeometry>
        </mxCell>
        <mxCell id="kg-7mxeYcSGcEFVd8-3E-15" value="&lt;span style=&quot;border-bottom: 1px dotted&quot;&gt;&lt;u&gt;아이디&lt;br&gt;(PK)&lt;/u&gt;&lt;/span&gt;" style="ellipse;whiteSpace=wrap;html=1;align=center;" parent="1" vertex="1">
          <mxGeometry x="320" y="260" width="40" height="40" as="geometry" />
        </mxCell>
        <mxCell id="kg-7mxeYcSGcEFVd8-3E-29" value="" style="edgeStyle=orthogonalEdgeStyle;rounded=0;orthogonalLoop=1;jettySize=auto;html=1;endArrow=none;endFill=0;" parent="1" source="kg-7mxeYcSGcEFVd8-3E-16" target="kg-7mxeYcSGcEFVd8-3E-6" edge="1">
          <mxGeometry relative="1" as="geometry">
            <Array as="points">
              <mxPoint x="395" y="250" />
              <mxPoint x="415" y="250" />
            </Array>
          </mxGeometry>
        </mxCell>
        <mxCell id="kg-7mxeYcSGcEFVd8-3E-16" value="이름" style="ellipse;whiteSpace=wrap;html=1;align=center;" parent="1" vertex="1">
          <mxGeometry x="375" y="260" width="40" height="40" as="geometry" />
        </mxCell>
        <mxCell id="kg-7mxeYcSGcEFVd8-3E-30" value="" style="edgeStyle=orthogonalEdgeStyle;rounded=0;orthogonalLoop=1;jettySize=auto;html=1;endArrow=none;endFill=0;" parent="1" source="kg-7mxeYcSGcEFVd8-3E-17" target="kg-7mxeYcSGcEFVd8-3E-6" edge="1">
          <mxGeometry relative="1" as="geometry">
            <Array as="points">
              <mxPoint x="445" y="250" />
              <mxPoint x="415" y="250" />
            </Array>
          </mxGeometry>
        </mxCell>
        <mxCell id="kg-7mxeYcSGcEFVd8-3E-17" value="나이" style="ellipse;whiteSpace=wrap;html=1;align=center;" parent="1" vertex="1">
          <mxGeometry x="425" y="260" width="40" height="40" as="geometry" />
        </mxCell>
        <mxCell id="kg-7mxeYcSGcEFVd8-3E-31" value="" style="edgeStyle=orthogonalEdgeStyle;rounded=0;orthogonalLoop=1;jettySize=auto;html=1;endArrow=none;endFill=0;" parent="1" source="kg-7mxeYcSGcEFVd8-3E-18" target="kg-7mxeYcSGcEFVd8-3E-6" edge="1">
          <mxGeometry relative="1" as="geometry">
            <Array as="points">
              <mxPoint x="495" y="250" />
              <mxPoint x="415" y="250" />
            </Array>
          </mxGeometry>
        </mxCell>
        <mxCell id="kg-7mxeYcSGcEFVd8-3E-18" value="직업" style="ellipse;whiteSpace=wrap;html=1;align=center;" parent="1" vertex="1">
          <mxGeometry x="475" y="260" width="40" height="40" as="geometry" />
        </mxCell>
        <mxCell id="kg-7mxeYcSGcEFVd8-3E-21" value="" style="edgeStyle=orthogonalEdgeStyle;rounded=0;orthogonalLoop=1;jettySize=auto;html=1;endArrow=none;endFill=0;" parent="1" source="kg-7mxeYcSGcEFVd8-3E-19" target="kg-7mxeYcSGcEFVd8-3E-6" edge="1">
          <mxGeometry relative="1" as="geometry" />
        </mxCell>
        <mxCell id="kg-7mxeYcSGcEFVd8-3E-19" value="결혼" style="shape=rhombus;perimeter=rhombusPerimeter;whiteSpace=wrap;html=1;align=center;" parent="1" vertex="1">
          <mxGeometry x="195" y="180" width="90" height="60" as="geometry" />
        </mxCell>
        <mxCell id="kg-7mxeYcSGcEFVd8-3E-26" value="1" style="text;html=1;align=center;verticalAlign=middle;resizable=0;points=[];autosize=1;strokeColor=none;fillColor=none;" parent="1" vertex="1">
          <mxGeometry x="180" y="180" width="30" height="30" as="geometry" />
        </mxCell>
        <mxCell id="kg-7mxeYcSGcEFVd8-3E-27" value="1" style="text;html=1;align=center;verticalAlign=middle;resizable=0;points=[];autosize=1;strokeColor=none;fillColor=none;" parent="1" vertex="1">
          <mxGeometry x="270" y="180" width="30" height="30" as="geometry" />
        </mxCell>
        <mxCell id="kg-7mxeYcSGcEFVd8-3E-96" value="" style="edgeStyle=orthogonalEdgeStyle;rounded=0;orthogonalLoop=1;jettySize=auto;html=1;endArrow=ERone;endFill=0;startArrow=ERone;startFill=0;" parent="1" source="kg-7mxeYcSGcEFVd8-3E-32" target="kg-7mxeYcSGcEFVd8-3E-83" edge="1">
          <mxGeometry relative="1" as="geometry" />
        </mxCell>
        <mxCell id="kg-7mxeYcSGcEFVd8-3E-32" value="남자" style="shape=table;startSize=30;container=1;collapsible=1;childLayout=tableLayout;fixedRows=1;rowLines=0;fontStyle=1;align=center;resizeLast=1;html=1;" parent="1" vertex="1">
          <mxGeometry x="590" y="170" width="140" height="150" as="geometry" />
        </mxCell>
        <mxCell id="kg-7mxeYcSGcEFVd8-3E-33" value="" style="shape=tableRow;horizontal=0;startSize=0;swimlaneHead=0;swimlaneBody=0;fillColor=none;collapsible=0;dropTarget=0;points=[[0,0.5],[1,0.5]];portConstraint=eastwest;top=0;left=0;right=0;bottom=1;" parent="kg-7mxeYcSGcEFVd8-3E-32" vertex="1">
          <mxGeometry y="30" width="140" height="30" as="geometry" />
        </mxCell>
        <mxCell id="kg-7mxeYcSGcEFVd8-3E-34" value="PK" style="shape=partialRectangle;connectable=0;fillColor=none;top=0;left=0;bottom=0;right=0;fontStyle=1;overflow=hidden;whiteSpace=wrap;html=1;" parent="kg-7mxeYcSGcEFVd8-3E-33" vertex="1">
          <mxGeometry width="30" height="30" as="geometry">
            <mxRectangle width="30" height="30" as="alternateBounds" />
          </mxGeometry>
        </mxCell>
        <mxCell id="kg-7mxeYcSGcEFVd8-3E-35" value="아이디" style="shape=partialRectangle;connectable=0;fillColor=none;top=0;left=0;bottom=0;right=0;align=left;spacingLeft=6;fontStyle=5;overflow=hidden;whiteSpace=wrap;html=1;" parent="kg-7mxeYcSGcEFVd8-3E-33" vertex="1">
          <mxGeometry x="30" width="110" height="30" as="geometry">
            <mxRectangle width="110" height="30" as="alternateBounds" />
          </mxGeometry>
        </mxCell>
        <mxCell id="kg-7mxeYcSGcEFVd8-3E-36" value="" style="shape=tableRow;horizontal=0;startSize=0;swimlaneHead=0;swimlaneBody=0;fillColor=none;collapsible=0;dropTarget=0;points=[[0,0.5],[1,0.5]];portConstraint=eastwest;top=0;left=0;right=0;bottom=0;" parent="kg-7mxeYcSGcEFVd8-3E-32" vertex="1">
          <mxGeometry y="60" width="140" height="30" as="geometry" />
        </mxCell>
        <mxCell id="kg-7mxeYcSGcEFVd8-3E-37" value="" style="shape=partialRectangle;connectable=0;fillColor=none;top=0;left=0;bottom=0;right=0;editable=1;overflow=hidden;whiteSpace=wrap;html=1;" parent="kg-7mxeYcSGcEFVd8-3E-36" vertex="1">
          <mxGeometry width="30" height="30" as="geometry">
            <mxRectangle width="30" height="30" as="alternateBounds" />
          </mxGeometry>
        </mxCell>
        <mxCell id="kg-7mxeYcSGcEFVd8-3E-38" value="이름" style="shape=partialRectangle;connectable=0;fillColor=none;top=0;left=0;bottom=0;right=0;align=left;spacingLeft=6;overflow=hidden;whiteSpace=wrap;html=1;" parent="kg-7mxeYcSGcEFVd8-3E-36" vertex="1">
          <mxGeometry x="30" width="110" height="30" as="geometry">
            <mxRectangle width="110" height="30" as="alternateBounds" />
          </mxGeometry>
        </mxCell>
        <mxCell id="kg-7mxeYcSGcEFVd8-3E-39" value="" style="shape=tableRow;horizontal=0;startSize=0;swimlaneHead=0;swimlaneBody=0;fillColor=none;collapsible=0;dropTarget=0;points=[[0,0.5],[1,0.5]];portConstraint=eastwest;top=0;left=0;right=0;bottom=0;" parent="kg-7mxeYcSGcEFVd8-3E-32" vertex="1">
          <mxGeometry y="90" width="140" height="30" as="geometry" />
        </mxCell>
        <mxCell id="kg-7mxeYcSGcEFVd8-3E-40" value="" style="shape=partialRectangle;connectable=0;fillColor=none;top=0;left=0;bottom=0;right=0;editable=1;overflow=hidden;whiteSpace=wrap;html=1;" parent="kg-7mxeYcSGcEFVd8-3E-39" vertex="1">
          <mxGeometry width="30" height="30" as="geometry">
            <mxRectangle width="30" height="30" as="alternateBounds" />
          </mxGeometry>
        </mxCell>
        <mxCell id="kg-7mxeYcSGcEFVd8-3E-41" value="나이" style="shape=partialRectangle;connectable=0;fillColor=none;top=0;left=0;bottom=0;right=0;align=left;spacingLeft=6;overflow=hidden;whiteSpace=wrap;html=1;" parent="kg-7mxeYcSGcEFVd8-3E-39" vertex="1">
          <mxGeometry x="30" width="110" height="30" as="geometry">
            <mxRectangle width="110" height="30" as="alternateBounds" />
          </mxGeometry>
        </mxCell>
        <mxCell id="kg-7mxeYcSGcEFVd8-3E-42" value="" style="shape=tableRow;horizontal=0;startSize=0;swimlaneHead=0;swimlaneBody=0;fillColor=none;collapsible=0;dropTarget=0;points=[[0,0.5],[1,0.5]];portConstraint=eastwest;top=0;left=0;right=0;bottom=0;" parent="kg-7mxeYcSGcEFVd8-3E-32" vertex="1">
          <mxGeometry y="120" width="140" height="30" as="geometry" />
        </mxCell>
        <mxCell id="kg-7mxeYcSGcEFVd8-3E-43" value="" style="shape=partialRectangle;connectable=0;fillColor=none;top=0;left=0;bottom=0;right=0;editable=1;overflow=hidden;whiteSpace=wrap;html=1;" parent="kg-7mxeYcSGcEFVd8-3E-42" vertex="1">
          <mxGeometry width="30" height="30" as="geometry">
            <mxRectangle width="30" height="30" as="alternateBounds" />
          </mxGeometry>
        </mxCell>
        <mxCell id="kg-7mxeYcSGcEFVd8-3E-44" value="직업" style="shape=partialRectangle;connectable=0;fillColor=none;top=0;left=0;bottom=0;right=0;align=left;spacingLeft=6;overflow=hidden;whiteSpace=wrap;html=1;" parent="kg-7mxeYcSGcEFVd8-3E-42" vertex="1">
          <mxGeometry x="30" width="110" height="30" as="geometry">
            <mxRectangle width="110" height="30" as="alternateBounds" />
          </mxGeometry>
        </mxCell>
        <mxCell id="kg-7mxeYcSGcEFVd8-3E-58" value="여자" style="shape=table;startSize=30;container=1;collapsible=1;childLayout=tableLayout;fixedRows=1;rowLines=0;fontStyle=1;align=center;resizeLast=1;html=1;" parent="1" vertex="1">
          <mxGeometry x="1030" y="170" width="140" height="150" as="geometry" />
        </mxCell>
        <mxCell id="kg-7mxeYcSGcEFVd8-3E-59" value="" style="shape=tableRow;horizontal=0;startSize=0;swimlaneHead=0;swimlaneBody=0;fillColor=none;collapsible=0;dropTarget=0;points=[[0,0.5],[1,0.5]];portConstraint=eastwest;top=0;left=0;right=0;bottom=1;" parent="kg-7mxeYcSGcEFVd8-3E-58" vertex="1">
          <mxGeometry y="30" width="140" height="30" as="geometry" />
        </mxCell>
        <mxCell id="kg-7mxeYcSGcEFVd8-3E-60" value="PK" style="shape=partialRectangle;connectable=0;fillColor=none;top=0;left=0;bottom=0;right=0;fontStyle=1;overflow=hidden;whiteSpace=wrap;html=1;" parent="kg-7mxeYcSGcEFVd8-3E-59" vertex="1">
          <mxGeometry width="30" height="30" as="geometry">
            <mxRectangle width="30" height="30" as="alternateBounds" />
          </mxGeometry>
        </mxCell>
        <mxCell id="kg-7mxeYcSGcEFVd8-3E-61" value="아이디" style="shape=partialRectangle;connectable=0;fillColor=none;top=0;left=0;bottom=0;right=0;align=left;spacingLeft=6;fontStyle=5;overflow=hidden;whiteSpace=wrap;html=1;" parent="kg-7mxeYcSGcEFVd8-3E-59" vertex="1">
          <mxGeometry x="30" width="110" height="30" as="geometry">
            <mxRectangle width="110" height="30" as="alternateBounds" />
          </mxGeometry>
        </mxCell>
        <mxCell id="kg-7mxeYcSGcEFVd8-3E-62" value="" style="shape=tableRow;horizontal=0;startSize=0;swimlaneHead=0;swimlaneBody=0;fillColor=none;collapsible=0;dropTarget=0;points=[[0,0.5],[1,0.5]];portConstraint=eastwest;top=0;left=0;right=0;bottom=0;" parent="kg-7mxeYcSGcEFVd8-3E-58" vertex="1">
          <mxGeometry y="60" width="140" height="30" as="geometry" />
        </mxCell>
        <mxCell id="kg-7mxeYcSGcEFVd8-3E-63" value="" style="shape=partialRectangle;connectable=0;fillColor=none;top=0;left=0;bottom=0;right=0;editable=1;overflow=hidden;whiteSpace=wrap;html=1;" parent="kg-7mxeYcSGcEFVd8-3E-62" vertex="1">
          <mxGeometry width="30" height="30" as="geometry">
            <mxRectangle width="30" height="30" as="alternateBounds" />
          </mxGeometry>
        </mxCell>
        <mxCell id="kg-7mxeYcSGcEFVd8-3E-64" value="이름" style="shape=partialRectangle;connectable=0;fillColor=none;top=0;left=0;bottom=0;right=0;align=left;spacingLeft=6;overflow=hidden;whiteSpace=wrap;html=1;" parent="kg-7mxeYcSGcEFVd8-3E-62" vertex="1">
          <mxGeometry x="30" width="110" height="30" as="geometry">
            <mxRectangle width="110" height="30" as="alternateBounds" />
          </mxGeometry>
        </mxCell>
        <mxCell id="kg-7mxeYcSGcEFVd8-3E-65" value="" style="shape=tableRow;horizontal=0;startSize=0;swimlaneHead=0;swimlaneBody=0;fillColor=none;collapsible=0;dropTarget=0;points=[[0,0.5],[1,0.5]];portConstraint=eastwest;top=0;left=0;right=0;bottom=0;" parent="kg-7mxeYcSGcEFVd8-3E-58" vertex="1">
          <mxGeometry y="90" width="140" height="30" as="geometry" />
        </mxCell>
        <mxCell id="kg-7mxeYcSGcEFVd8-3E-66" value="" style="shape=partialRectangle;connectable=0;fillColor=none;top=0;left=0;bottom=0;right=0;editable=1;overflow=hidden;whiteSpace=wrap;html=1;" parent="kg-7mxeYcSGcEFVd8-3E-65" vertex="1">
          <mxGeometry width="30" height="30" as="geometry">
            <mxRectangle width="30" height="30" as="alternateBounds" />
          </mxGeometry>
        </mxCell>
        <mxCell id="kg-7mxeYcSGcEFVd8-3E-67" value="나이" style="shape=partialRectangle;connectable=0;fillColor=none;top=0;left=0;bottom=0;right=0;align=left;spacingLeft=6;overflow=hidden;whiteSpace=wrap;html=1;" parent="kg-7mxeYcSGcEFVd8-3E-65" vertex="1">
          <mxGeometry x="30" width="110" height="30" as="geometry">
            <mxRectangle width="110" height="30" as="alternateBounds" />
          </mxGeometry>
        </mxCell>
        <mxCell id="kg-7mxeYcSGcEFVd8-3E-68" value="" style="shape=tableRow;horizontal=0;startSize=0;swimlaneHead=0;swimlaneBody=0;fillColor=none;collapsible=0;dropTarget=0;points=[[0,0.5],[1,0.5]];portConstraint=eastwest;top=0;left=0;right=0;bottom=0;" parent="kg-7mxeYcSGcEFVd8-3E-58" vertex="1">
          <mxGeometry y="120" width="140" height="30" as="geometry" />
        </mxCell>
        <mxCell id="kg-7mxeYcSGcEFVd8-3E-69" value="" style="shape=partialRectangle;connectable=0;fillColor=none;top=0;left=0;bottom=0;right=0;editable=1;overflow=hidden;whiteSpace=wrap;html=1;" parent="kg-7mxeYcSGcEFVd8-3E-68" vertex="1">
          <mxGeometry width="30" height="30" as="geometry">
            <mxRectangle width="30" height="30" as="alternateBounds" />
          </mxGeometry>
        </mxCell>
        <mxCell id="kg-7mxeYcSGcEFVd8-3E-70" value="직업" style="shape=partialRectangle;connectable=0;fillColor=none;top=0;left=0;bottom=0;right=0;align=left;spacingLeft=6;overflow=hidden;whiteSpace=wrap;html=1;" parent="kg-7mxeYcSGcEFVd8-3E-68" vertex="1">
          <mxGeometry x="30" width="110" height="30" as="geometry">
            <mxRectangle width="110" height="30" as="alternateBounds" />
          </mxGeometry>
        </mxCell>
        <mxCell id="kg-7mxeYcSGcEFVd8-3E-76" value="남ID&lt;div&gt;(FK)&lt;/div&gt;" style="ellipse;whiteSpace=wrap;html=1;align=center;" parent="1" vertex="1">
          <mxGeometry x="180" y="260" width="40" height="40" as="geometry" />
        </mxCell>
        <mxCell id="kg-7mxeYcSGcEFVd8-3E-77" value="여ID" style="ellipse;whiteSpace=wrap;html=1;align=center;" parent="1" vertex="1">
          <mxGeometry x="220" y="260" width="40" height="40" as="geometry" />
        </mxCell>
        <mxCell id="kg-7mxeYcSGcEFVd8-3E-78" value="날짜" style="ellipse;whiteSpace=wrap;html=1;align=center;" parent="1" vertex="1">
          <mxGeometry x="260" y="260" width="40" height="40" as="geometry" />
        </mxCell>
        <mxCell id="kg-7mxeYcSGcEFVd8-3E-80" value="" style="endArrow=none;html=1;rounded=0;exitX=0.5;exitY=0;exitDx=0;exitDy=0;" parent="1" source="kg-7mxeYcSGcEFVd8-3E-76" edge="1">
          <mxGeometry width="50" height="50" relative="1" as="geometry">
            <mxPoint x="190" y="290" as="sourcePoint" />
            <mxPoint x="240" y="240" as="targetPoint" />
          </mxGeometry>
        </mxCell>
        <mxCell id="kg-7mxeYcSGcEFVd8-3E-81" value="" style="endArrow=none;html=1;rounded=0;exitX=0.5;exitY=0;exitDx=0;exitDy=0;" parent="1" source="kg-7mxeYcSGcEFVd8-3E-77" edge="1">
          <mxGeometry width="50" height="50" relative="1" as="geometry">
            <mxPoint x="210" y="270" as="sourcePoint" />
            <mxPoint x="240" y="240" as="targetPoint" />
          </mxGeometry>
        </mxCell>
        <mxCell id="kg-7mxeYcSGcEFVd8-3E-82" value="" style="endArrow=none;html=1;rounded=0;exitX=0.368;exitY=-0.007;exitDx=0;exitDy=0;exitPerimeter=0;" parent="1" source="kg-7mxeYcSGcEFVd8-3E-78" edge="1">
          <mxGeometry width="50" height="50" relative="1" as="geometry">
            <mxPoint x="250" y="270" as="sourcePoint" />
            <mxPoint x="240" y="240" as="targetPoint" />
          </mxGeometry>
        </mxCell>
        <mxCell id="kg-7mxeYcSGcEFVd8-3E-83" value="결혼" style="shape=table;startSize=30;container=1;collapsible=1;childLayout=tableLayout;fixedRows=1;rowLines=0;fontStyle=1;align=center;resizeLast=1;html=1;" parent="1" vertex="1">
          <mxGeometry x="810" y="155" width="140" height="180" as="geometry" />
        </mxCell>
        <mxCell id="kg-7mxeYcSGcEFVd8-3E-84" value="" style="shape=tableRow;horizontal=0;startSize=0;swimlaneHead=0;swimlaneBody=0;fillColor=none;collapsible=0;dropTarget=0;points=[[0,0.5],[1,0.5]];portConstraint=eastwest;top=0;left=0;right=0;bottom=1;" parent="kg-7mxeYcSGcEFVd8-3E-83" vertex="1">
          <mxGeometry y="30" width="140" height="30" as="geometry" />
        </mxCell>
        <mxCell id="kg-7mxeYcSGcEFVd8-3E-85" value="PK" style="shape=partialRectangle;connectable=0;fillColor=none;top=0;left=0;bottom=0;right=0;fontStyle=1;overflow=hidden;whiteSpace=wrap;html=1;" parent="kg-7mxeYcSGcEFVd8-3E-84" vertex="1">
          <mxGeometry width="30" height="30" as="geometry">
            <mxRectangle width="30" height="30" as="alternateBounds" />
          </mxGeometry>
        </mxCell>
        <mxCell id="kg-7mxeYcSGcEFVd8-3E-86" value="ID" style="shape=partialRectangle;connectable=0;fillColor=none;top=0;left=0;bottom=0;right=0;align=left;spacingLeft=6;fontStyle=1;overflow=hidden;whiteSpace=wrap;html=1;" parent="kg-7mxeYcSGcEFVd8-3E-84" vertex="1">
          <mxGeometry x="30" width="110" height="30" as="geometry">
            <mxRectangle width="110" height="30" as="alternateBounds" />
          </mxGeometry>
        </mxCell>
        <mxCell id="kg-7mxeYcSGcEFVd8-3E-101" value="" style="shape=tableRow;horizontal=0;startSize=0;swimlaneHead=0;swimlaneBody=0;fillColor=none;collapsible=0;dropTarget=0;points=[[0,0.5],[1,0.5]];portConstraint=eastwest;top=0;left=0;right=0;bottom=1;" parent="kg-7mxeYcSGcEFVd8-3E-83" vertex="1">
          <mxGeometry y="60" width="140" height="30" as="geometry" />
        </mxCell>
        <mxCell id="kg-7mxeYcSGcEFVd8-3E-102" value="FK" style="shape=partialRectangle;connectable=0;fillColor=none;top=0;left=0;bottom=0;right=0;fontStyle=1;overflow=hidden;whiteSpace=wrap;html=1;" parent="kg-7mxeYcSGcEFVd8-3E-101" vertex="1">
          <mxGeometry width="30" height="30" as="geometry">
            <mxRectangle width="30" height="30" as="alternateBounds" />
          </mxGeometry>
        </mxCell>
        <mxCell id="kg-7mxeYcSGcEFVd8-3E-103" value="남자아이디" style="shape=partialRectangle;connectable=0;fillColor=none;top=0;left=0;bottom=0;right=0;align=left;spacingLeft=6;fontStyle=1;overflow=hidden;whiteSpace=wrap;html=1;" parent="kg-7mxeYcSGcEFVd8-3E-101" vertex="1">
          <mxGeometry x="30" width="110" height="30" as="geometry">
            <mxRectangle width="110" height="30" as="alternateBounds" />
          </mxGeometry>
        </mxCell>
        <mxCell id="kg-7mxeYcSGcEFVd8-3E-98" value="" style="shape=tableRow;horizontal=0;startSize=0;swimlaneHead=0;swimlaneBody=0;fillColor=none;collapsible=0;dropTarget=0;points=[[0,0.5],[1,0.5]];portConstraint=eastwest;top=0;left=0;right=0;bottom=1;" parent="kg-7mxeYcSGcEFVd8-3E-83" vertex="1">
          <mxGeometry y="90" width="140" height="30" as="geometry" />
        </mxCell>
        <mxCell id="kg-7mxeYcSGcEFVd8-3E-99" value="FK" style="shape=partialRectangle;connectable=0;fillColor=none;top=0;left=0;bottom=0;right=0;fontStyle=1;overflow=hidden;whiteSpace=wrap;html=1;" parent="kg-7mxeYcSGcEFVd8-3E-98" vertex="1">
          <mxGeometry width="30" height="30" as="geometry">
            <mxRectangle width="30" height="30" as="alternateBounds" />
          </mxGeometry>
        </mxCell>
        <mxCell id="kg-7mxeYcSGcEFVd8-3E-100" value="여자아이디" style="shape=partialRectangle;connectable=0;fillColor=none;top=0;left=0;bottom=0;right=0;align=left;spacingLeft=6;fontStyle=1;overflow=hidden;whiteSpace=wrap;html=1;" parent="kg-7mxeYcSGcEFVd8-3E-98" vertex="1">
          <mxGeometry x="30" width="110" height="30" as="geometry">
            <mxRectangle width="110" height="30" as="alternateBounds" />
          </mxGeometry>
        </mxCell>
        <mxCell id="kg-7mxeYcSGcEFVd8-3E-87" value="" style="shape=tableRow;horizontal=0;startSize=0;swimlaneHead=0;swimlaneBody=0;fillColor=none;collapsible=0;dropTarget=0;points=[[0,0.5],[1,0.5]];portConstraint=eastwest;top=0;left=0;right=0;bottom=0;" parent="kg-7mxeYcSGcEFVd8-3E-83" vertex="1">
          <mxGeometry y="120" width="140" height="30" as="geometry" />
        </mxCell>
        <mxCell id="kg-7mxeYcSGcEFVd8-3E-88" value="" style="shape=partialRectangle;connectable=0;fillColor=none;top=0;left=0;bottom=0;right=0;editable=1;overflow=hidden;whiteSpace=wrap;html=1;" parent="kg-7mxeYcSGcEFVd8-3E-87" vertex="1">
          <mxGeometry width="30" height="30" as="geometry">
            <mxRectangle width="30" height="30" as="alternateBounds" />
          </mxGeometry>
        </mxCell>
        <mxCell id="kg-7mxeYcSGcEFVd8-3E-89" value="결혼날짜" style="shape=partialRectangle;connectable=0;fillColor=none;top=0;left=0;bottom=0;right=0;align=left;spacingLeft=6;overflow=hidden;whiteSpace=wrap;html=1;" parent="kg-7mxeYcSGcEFVd8-3E-87" vertex="1">
          <mxGeometry x="30" width="110" height="30" as="geometry">
            <mxRectangle width="110" height="30" as="alternateBounds" />
          </mxGeometry>
        </mxCell>
        <mxCell id="kg-7mxeYcSGcEFVd8-3E-90" value="" style="shape=tableRow;horizontal=0;startSize=0;swimlaneHead=0;swimlaneBody=0;fillColor=none;collapsible=0;dropTarget=0;points=[[0,0.5],[1,0.5]];portConstraint=eastwest;top=0;left=0;right=0;bottom=0;" parent="kg-7mxeYcSGcEFVd8-3E-83" vertex="1">
          <mxGeometry y="150" width="140" height="30" as="geometry" />
        </mxCell>
        <mxCell id="kg-7mxeYcSGcEFVd8-3E-91" value="" style="shape=partialRectangle;connectable=0;fillColor=none;top=0;left=0;bottom=0;right=0;editable=1;overflow=hidden;whiteSpace=wrap;html=1;" parent="kg-7mxeYcSGcEFVd8-3E-90" vertex="1">
          <mxGeometry width="30" height="30" as="geometry">
            <mxRectangle width="30" height="30" as="alternateBounds" />
          </mxGeometry>
        </mxCell>
        <mxCell id="kg-7mxeYcSGcEFVd8-3E-92" value="식장위치" style="shape=partialRectangle;connectable=0;fillColor=none;top=0;left=0;bottom=0;right=0;align=left;spacingLeft=6;overflow=hidden;whiteSpace=wrap;html=1;" parent="kg-7mxeYcSGcEFVd8-3E-90" vertex="1">
          <mxGeometry x="30" width="110" height="30" as="geometry">
            <mxRectangle width="110" height="30" as="alternateBounds" />
          </mxGeometry>
        </mxCell>
        <mxCell id="kg-7mxeYcSGcEFVd8-3E-97" value="" style="edgeStyle=orthogonalEdgeStyle;rounded=0;orthogonalLoop=1;jettySize=auto;html=1;endArrow=ERone;endFill=0;startArrow=ERone;startFill=0;" parent="1" edge="1">
          <mxGeometry relative="1" as="geometry">
            <mxPoint x="950" y="244.71" as="sourcePoint" />
            <mxPoint x="1030" y="244.71" as="targetPoint" />
          </mxGeometry>
        </mxCell>
        <mxCell id="kg-7mxeYcSGcEFVd8-3E-104" value="1:N" style="text;html=1;align=center;verticalAlign=middle;resizable=0;points=[];autosize=1;strokeColor=none;fillColor=none;" parent="1" vertex="1">
          <mxGeometry x="-10" y="660" width="40" height="30" as="geometry" />
        </mxCell>
        <mxCell id="kg-7mxeYcSGcEFVd8-3E-105" value="메인보드" style="whiteSpace=wrap;html=1;align=center;" parent="1" vertex="1">
          <mxGeometry y="710" width="100" height="40" as="geometry" />
        </mxCell>
        <mxCell id="kg-7mxeYcSGcEFVd8-3E-106" value="구성 부품" style="whiteSpace=wrap;html=1;align=center;" parent="1" vertex="1">
          <mxGeometry x="350" y="710" width="100" height="40" as="geometry" />
        </mxCell>
        <mxCell id="kg-7mxeYcSGcEFVd8-3E-108" value="" style="edgeStyle=orthogonalEdgeStyle;rounded=0;orthogonalLoop=1;jettySize=auto;html=1;endArrow=none;endFill=0;" parent="1" source="kg-7mxeYcSGcEFVd8-3E-107" target="kg-7mxeYcSGcEFVd8-3E-105" edge="1">
          <mxGeometry relative="1" as="geometry" />
        </mxCell>
        <mxCell id="kg-7mxeYcSGcEFVd8-3E-109" value="" style="edgeStyle=orthogonalEdgeStyle;rounded=0;orthogonalLoop=1;jettySize=auto;html=1;endArrow=none;endFill=0;" parent="1" source="kg-7mxeYcSGcEFVd8-3E-107" target="kg-7mxeYcSGcEFVd8-3E-106" edge="1">
          <mxGeometry relative="1" as="geometry" />
        </mxCell>
        <mxCell id="kg-7mxeYcSGcEFVd8-3E-107" value="조립" style="shape=rhombus;perimeter=rhombusPerimeter;whiteSpace=wrap;html=1;align=center;" parent="1" vertex="1">
          <mxGeometry x="177.5" y="700" width="105" height="60" as="geometry" />
        </mxCell>
        <mxCell id="kg-7mxeYcSGcEFVd8-3E-110" value="가격" style="ellipse;whiteSpace=wrap;html=1;align=center;" parent="1" vertex="1">
          <mxGeometry x="100" y="770" width="40" height="40" as="geometry" />
        </mxCell>
        <mxCell id="kg-7mxeYcSGcEFVd8-3E-111" value="제조&lt;div&gt;날짜&lt;/div&gt;" style="ellipse;whiteSpace=wrap;html=1;align=center;" parent="1" vertex="1">
          <mxGeometry x="60" y="770" width="40" height="40" as="geometry" />
        </mxCell>
        <mxCell id="kg-7mxeYcSGcEFVd8-3E-112" value="제조사" style="ellipse;whiteSpace=wrap;html=1;align=center;" parent="1" vertex="1">
          <mxGeometry x="20" y="770" width="40" height="40" as="geometry" />
        </mxCell>
        <mxCell id="kg-7mxeYcSGcEFVd8-3E-113" value="일련&lt;div&gt;번호&lt;/div&gt;" style="ellipse;whiteSpace=wrap;html=1;align=center;fontStyle=4" parent="1" vertex="1">
          <mxGeometry x="-20" y="770" width="40" height="40" as="geometry" />
        </mxCell>
        <mxCell id="kg-7mxeYcSGcEFVd8-3E-114" value="제품군" style="ellipse;whiteSpace=wrap;html=1;align=center;" parent="1" vertex="1">
          <mxGeometry x="375" y="770" width="40" height="40" as="geometry" />
        </mxCell>
        <mxCell id="kg-7mxeYcSGcEFVd8-3E-115" value="제품명" style="ellipse;whiteSpace=wrap;html=1;align=center;" parent="1" vertex="1">
          <mxGeometry x="415" y="770" width="40" height="40" as="geometry" />
        </mxCell>
        <mxCell id="kg-7mxeYcSGcEFVd8-3E-116" value="제조사" style="ellipse;whiteSpace=wrap;html=1;align=center;" parent="1" vertex="1">
          <mxGeometry x="455" y="770" width="40" height="40" as="geometry" />
        </mxCell>
        <mxCell id="kg-7mxeYcSGcEFVd8-3E-118" value="부품ID" style="ellipse;whiteSpace=wrap;html=1;align=center;fontStyle=4" parent="1" vertex="1">
          <mxGeometry x="335" y="770" width="40" height="40" as="geometry" />
        </mxCell>
        <mxCell id="kg-7mxeYcSGcEFVd8-3E-121" value="1" style="text;html=1;align=center;verticalAlign=middle;resizable=0;points=[];autosize=1;strokeColor=none;fillColor=none;" parent="1" vertex="1">
          <mxGeometry x="165" y="688" width="30" height="30" as="geometry" />
        </mxCell>
        <mxCell id="kg-7mxeYcSGcEFVd8-3E-122" value="N" style="text;html=1;align=center;verticalAlign=middle;resizable=0;points=[];autosize=1;strokeColor=none;fillColor=none;" parent="1" vertex="1">
          <mxGeometry x="265" y="688" width="30" height="30" as="geometry" />
        </mxCell>
        <mxCell id="kg-7mxeYcSGcEFVd8-3E-155" value="" style="edgeStyle=orthogonalEdgeStyle;rounded=0;orthogonalLoop=1;jettySize=auto;html=1;endArrow=ERoneToMany;endFill=0;startArrow=ERone;startFill=0;" parent="1" source="kg-7mxeYcSGcEFVd8-3E-123" target="kg-7mxeYcSGcEFVd8-3E-142" edge="1">
          <mxGeometry relative="1" as="geometry" />
        </mxCell>
        <mxCell id="kg-7mxeYcSGcEFVd8-3E-123" value="메인보드" style="shape=table;startSize=30;container=1;collapsible=1;childLayout=tableLayout;fixedRows=1;rowLines=0;fontStyle=1;align=center;resizeLast=1;html=1;" parent="1" vertex="1">
          <mxGeometry x="580" y="710" width="140" height="150" as="geometry" />
        </mxCell>
        <mxCell id="kg-7mxeYcSGcEFVd8-3E-124" value="" style="shape=tableRow;horizontal=0;startSize=0;swimlaneHead=0;swimlaneBody=0;fillColor=none;collapsible=0;dropTarget=0;points=[[0,0.5],[1,0.5]];portConstraint=eastwest;top=0;left=0;right=0;bottom=1;" parent="kg-7mxeYcSGcEFVd8-3E-123" vertex="1">
          <mxGeometry y="30" width="140" height="30" as="geometry" />
        </mxCell>
        <mxCell id="kg-7mxeYcSGcEFVd8-3E-125" value="PK" style="shape=partialRectangle;connectable=0;fillColor=none;top=0;left=0;bottom=0;right=0;fontStyle=1;overflow=hidden;whiteSpace=wrap;html=1;" parent="kg-7mxeYcSGcEFVd8-3E-124" vertex="1">
          <mxGeometry width="30" height="30" as="geometry">
            <mxRectangle width="30" height="30" as="alternateBounds" />
          </mxGeometry>
        </mxCell>
        <mxCell id="kg-7mxeYcSGcEFVd8-3E-126" value="일련번호" style="shape=partialRectangle;connectable=0;fillColor=none;top=0;left=0;bottom=0;right=0;align=left;spacingLeft=6;fontStyle=5;overflow=hidden;whiteSpace=wrap;html=1;" parent="kg-7mxeYcSGcEFVd8-3E-124" vertex="1">
          <mxGeometry x="30" width="110" height="30" as="geometry">
            <mxRectangle width="110" height="30" as="alternateBounds" />
          </mxGeometry>
        </mxCell>
        <mxCell id="kg-7mxeYcSGcEFVd8-3E-127" value="" style="shape=tableRow;horizontal=0;startSize=0;swimlaneHead=0;swimlaneBody=0;fillColor=none;collapsible=0;dropTarget=0;points=[[0,0.5],[1,0.5]];portConstraint=eastwest;top=0;left=0;right=0;bottom=0;" parent="kg-7mxeYcSGcEFVd8-3E-123" vertex="1">
          <mxGeometry y="60" width="140" height="30" as="geometry" />
        </mxCell>
        <mxCell id="kg-7mxeYcSGcEFVd8-3E-128" value="" style="shape=partialRectangle;connectable=0;fillColor=none;top=0;left=0;bottom=0;right=0;editable=1;overflow=hidden;whiteSpace=wrap;html=1;" parent="kg-7mxeYcSGcEFVd8-3E-127" vertex="1">
          <mxGeometry width="30" height="30" as="geometry">
            <mxRectangle width="30" height="30" as="alternateBounds" />
          </mxGeometry>
        </mxCell>
        <mxCell id="kg-7mxeYcSGcEFVd8-3E-129" value="" style="shape=partialRectangle;connectable=0;fillColor=none;top=0;left=0;bottom=0;right=0;align=left;spacingLeft=6;overflow=hidden;whiteSpace=wrap;html=1;" parent="kg-7mxeYcSGcEFVd8-3E-127" vertex="1">
          <mxGeometry x="30" width="110" height="30" as="geometry">
            <mxRectangle width="110" height="30" as="alternateBounds" />
          </mxGeometry>
        </mxCell>
        <mxCell id="kg-7mxeYcSGcEFVd8-3E-130" value="" style="shape=tableRow;horizontal=0;startSize=0;swimlaneHead=0;swimlaneBody=0;fillColor=none;collapsible=0;dropTarget=0;points=[[0,0.5],[1,0.5]];portConstraint=eastwest;top=0;left=0;right=0;bottom=0;" parent="kg-7mxeYcSGcEFVd8-3E-123" vertex="1">
          <mxGeometry y="90" width="140" height="30" as="geometry" />
        </mxCell>
        <mxCell id="kg-7mxeYcSGcEFVd8-3E-131" value="" style="shape=partialRectangle;connectable=0;fillColor=none;top=0;left=0;bottom=0;right=0;editable=1;overflow=hidden;whiteSpace=wrap;html=1;" parent="kg-7mxeYcSGcEFVd8-3E-130" vertex="1">
          <mxGeometry width="30" height="30" as="geometry">
            <mxRectangle width="30" height="30" as="alternateBounds" />
          </mxGeometry>
        </mxCell>
        <mxCell id="kg-7mxeYcSGcEFVd8-3E-132" value="-" style="shape=partialRectangle;connectable=0;fillColor=none;top=0;left=0;bottom=0;right=0;align=left;spacingLeft=6;overflow=hidden;whiteSpace=wrap;html=1;" parent="kg-7mxeYcSGcEFVd8-3E-130" vertex="1">
          <mxGeometry x="30" width="110" height="30" as="geometry">
            <mxRectangle width="110" height="30" as="alternateBounds" />
          </mxGeometry>
        </mxCell>
        <mxCell id="kg-7mxeYcSGcEFVd8-3E-133" value="" style="shape=tableRow;horizontal=0;startSize=0;swimlaneHead=0;swimlaneBody=0;fillColor=none;collapsible=0;dropTarget=0;points=[[0,0.5],[1,0.5]];portConstraint=eastwest;top=0;left=0;right=0;bottom=0;" parent="kg-7mxeYcSGcEFVd8-3E-123" vertex="1">
          <mxGeometry y="120" width="140" height="30" as="geometry" />
        </mxCell>
        <mxCell id="kg-7mxeYcSGcEFVd8-3E-134" value="" style="shape=partialRectangle;connectable=0;fillColor=none;top=0;left=0;bottom=0;right=0;editable=1;overflow=hidden;whiteSpace=wrap;html=1;" parent="kg-7mxeYcSGcEFVd8-3E-133" vertex="1">
          <mxGeometry width="30" height="30" as="geometry">
            <mxRectangle width="30" height="30" as="alternateBounds" />
          </mxGeometry>
        </mxCell>
        <mxCell id="kg-7mxeYcSGcEFVd8-3E-135" value="-" style="shape=partialRectangle;connectable=0;fillColor=none;top=0;left=0;bottom=0;right=0;align=left;spacingLeft=6;overflow=hidden;whiteSpace=wrap;html=1;" parent="kg-7mxeYcSGcEFVd8-3E-133" vertex="1">
          <mxGeometry x="30" width="110" height="30" as="geometry">
            <mxRectangle width="110" height="30" as="alternateBounds" />
          </mxGeometry>
        </mxCell>
        <mxCell id="kg-7mxeYcSGcEFVd8-3E-142" value="구성부품" style="shape=table;startSize=30;container=1;collapsible=1;childLayout=tableLayout;fixedRows=1;rowLines=0;fontStyle=1;align=center;resizeLast=1;html=1;" parent="1" vertex="1">
          <mxGeometry x="800" y="710" width="140" height="150" as="geometry" />
        </mxCell>
        <mxCell id="kg-7mxeYcSGcEFVd8-3E-143" value="" style="shape=tableRow;horizontal=0;startSize=0;swimlaneHead=0;swimlaneBody=0;fillColor=none;collapsible=0;dropTarget=0;points=[[0,0.5],[1,0.5]];portConstraint=eastwest;top=0;left=0;right=0;bottom=1;" parent="kg-7mxeYcSGcEFVd8-3E-142" vertex="1">
          <mxGeometry y="30" width="140" height="30" as="geometry" />
        </mxCell>
        <mxCell id="kg-7mxeYcSGcEFVd8-3E-144" value="PK" style="shape=partialRectangle;connectable=0;fillColor=none;top=0;left=0;bottom=0;right=0;fontStyle=1;overflow=hidden;whiteSpace=wrap;html=1;" parent="kg-7mxeYcSGcEFVd8-3E-143" vertex="1">
          <mxGeometry width="30" height="30" as="geometry">
            <mxRectangle width="30" height="30" as="alternateBounds" />
          </mxGeometry>
        </mxCell>
        <mxCell id="kg-7mxeYcSGcEFVd8-3E-145" value="부품ID" style="shape=partialRectangle;connectable=0;fillColor=none;top=0;left=0;bottom=0;right=0;align=left;spacingLeft=6;fontStyle=5;overflow=hidden;whiteSpace=wrap;html=1;" parent="kg-7mxeYcSGcEFVd8-3E-143" vertex="1">
          <mxGeometry x="30" width="110" height="30" as="geometry">
            <mxRectangle width="110" height="30" as="alternateBounds" />
          </mxGeometry>
        </mxCell>
        <mxCell id="kg-7mxeYcSGcEFVd8-3E-146" value="" style="shape=tableRow;horizontal=0;startSize=0;swimlaneHead=0;swimlaneBody=0;fillColor=none;collapsible=0;dropTarget=0;points=[[0,0.5],[1,0.5]];portConstraint=eastwest;top=0;left=0;right=0;bottom=0;" parent="kg-7mxeYcSGcEFVd8-3E-142" vertex="1">
          <mxGeometry y="60" width="140" height="30" as="geometry" />
        </mxCell>
        <mxCell id="kg-7mxeYcSGcEFVd8-3E-147" value="FK" style="shape=partialRectangle;connectable=0;fillColor=none;top=0;left=0;bottom=0;right=0;editable=1;overflow=hidden;whiteSpace=wrap;html=1;" parent="kg-7mxeYcSGcEFVd8-3E-146" vertex="1">
          <mxGeometry width="30" height="30" as="geometry">
            <mxRectangle width="30" height="30" as="alternateBounds" />
          </mxGeometry>
        </mxCell>
        <mxCell id="kg-7mxeYcSGcEFVd8-3E-148" value="메인보드일련번호" style="shape=partialRectangle;connectable=0;fillColor=none;top=0;left=0;bottom=0;right=0;align=left;spacingLeft=6;overflow=hidden;whiteSpace=wrap;html=1;" parent="kg-7mxeYcSGcEFVd8-3E-146" vertex="1">
          <mxGeometry x="30" width="110" height="30" as="geometry">
            <mxRectangle width="110" height="30" as="alternateBounds" />
          </mxGeometry>
        </mxCell>
        <mxCell id="kg-7mxeYcSGcEFVd8-3E-149" value="" style="shape=tableRow;horizontal=0;startSize=0;swimlaneHead=0;swimlaneBody=0;fillColor=none;collapsible=0;dropTarget=0;points=[[0,0.5],[1,0.5]];portConstraint=eastwest;top=0;left=0;right=0;bottom=0;" parent="kg-7mxeYcSGcEFVd8-3E-142" vertex="1">
          <mxGeometry y="90" width="140" height="30" as="geometry" />
        </mxCell>
        <mxCell id="kg-7mxeYcSGcEFVd8-3E-150" value="" style="shape=partialRectangle;connectable=0;fillColor=none;top=0;left=0;bottom=0;right=0;editable=1;overflow=hidden;whiteSpace=wrap;html=1;" parent="kg-7mxeYcSGcEFVd8-3E-149" vertex="1">
          <mxGeometry width="30" height="30" as="geometry">
            <mxRectangle width="30" height="30" as="alternateBounds" />
          </mxGeometry>
        </mxCell>
        <mxCell id="kg-7mxeYcSGcEFVd8-3E-151" value="-" style="shape=partialRectangle;connectable=0;fillColor=none;top=0;left=0;bottom=0;right=0;align=left;spacingLeft=6;overflow=hidden;whiteSpace=wrap;html=1;" parent="kg-7mxeYcSGcEFVd8-3E-149" vertex="1">
          <mxGeometry x="30" width="110" height="30" as="geometry">
            <mxRectangle width="110" height="30" as="alternateBounds" />
          </mxGeometry>
        </mxCell>
        <mxCell id="kg-7mxeYcSGcEFVd8-3E-152" value="" style="shape=tableRow;horizontal=0;startSize=0;swimlaneHead=0;swimlaneBody=0;fillColor=none;collapsible=0;dropTarget=0;points=[[0,0.5],[1,0.5]];portConstraint=eastwest;top=0;left=0;right=0;bottom=0;" parent="kg-7mxeYcSGcEFVd8-3E-142" vertex="1">
          <mxGeometry y="120" width="140" height="30" as="geometry" />
        </mxCell>
        <mxCell id="kg-7mxeYcSGcEFVd8-3E-153" value="" style="shape=partialRectangle;connectable=0;fillColor=none;top=0;left=0;bottom=0;right=0;editable=1;overflow=hidden;whiteSpace=wrap;html=1;" parent="kg-7mxeYcSGcEFVd8-3E-152" vertex="1">
          <mxGeometry width="30" height="30" as="geometry">
            <mxRectangle width="30" height="30" as="alternateBounds" />
          </mxGeometry>
        </mxCell>
        <mxCell id="kg-7mxeYcSGcEFVd8-3E-154" value="-" style="shape=partialRectangle;connectable=0;fillColor=none;top=0;left=0;bottom=0;right=0;align=left;spacingLeft=6;overflow=hidden;whiteSpace=wrap;html=1;" parent="kg-7mxeYcSGcEFVd8-3E-152" vertex="1">
          <mxGeometry x="30" width="110" height="30" as="geometry">
            <mxRectangle width="110" height="30" as="alternateBounds" />
          </mxGeometry>
        </mxCell>
        <mxCell id="kg-7mxeYcSGcEFVd8-3E-156" value="1:1" style="text;html=1;align=center;verticalAlign=middle;resizable=0;points=[];autosize=1;strokeColor=none;fillColor=none;" parent="1" vertex="1">
          <mxGeometry x="30" y="348" width="40" height="30" as="geometry" />
        </mxCell>
        <mxCell id="kg-7mxeYcSGcEFVd8-3E-157" value="차량 - 차량등록증" style="text;html=1;align=center;verticalAlign=middle;resizable=0;points=[];autosize=1;strokeColor=none;fillColor=none;" parent="1" vertex="1">
          <mxGeometry x="70" y="348" width="120" height="30" as="geometry" />
        </mxCell>
        <mxCell id="kg-7mxeYcSGcEFVd8-3E-158" value="국가 - 수도" style="text;html=1;align=center;verticalAlign=middle;resizable=0;points=[];autosize=1;strokeColor=none;fillColor=none;" parent="1" vertex="1">
          <mxGeometry x="30" y="390" width="80" height="30" as="geometry" />
        </mxCell>
        <mxCell id="kg-7mxeYcSGcEFVd8-3E-159" value="제품 - 제품상세정보" style="text;html=1;align=center;verticalAlign=middle;resizable=0;points=[];autosize=1;strokeColor=none;fillColor=none;" parent="1" vertex="1">
          <mxGeometry x="190" y="348" width="130" height="30" as="geometry" />
        </mxCell>
        <mxCell id="kg-7mxeYcSGcEFVd8-3E-160" value="국가" style="whiteSpace=wrap;html=1;align=center;" parent="1" vertex="1">
          <mxGeometry x="40" y="440" width="100" height="40" as="geometry" />
        </mxCell>
        <mxCell id="kg-7mxeYcSGcEFVd8-3E-161" value="국가명" style="ellipse;whiteSpace=wrap;html=1;align=center;" parent="1" vertex="1">
          <mxGeometry x="45" y="500" width="40" height="40" as="geometry" />
        </mxCell>
        <mxCell id="kg-7mxeYcSGcEFVd8-3E-163" value="수도" style="whiteSpace=wrap;html=1;align=center;" parent="1" vertex="1">
          <mxGeometry x="283.75" y="440" width="100" height="40" as="geometry" />
        </mxCell>
        <mxCell id="kg-7mxeYcSGcEFVd8-3E-164" value="총면적" style="ellipse;whiteSpace=wrap;html=1;align=center;" parent="1" vertex="1">
          <mxGeometry x="85" y="500" width="40" height="40" as="geometry" />
        </mxCell>
        <mxCell id="kg-7mxeYcSGcEFVd8-3E-165" value="인구" style="ellipse;whiteSpace=wrap;html=1;align=center;" parent="1" vertex="1">
          <mxGeometry x="125" y="500" width="40" height="40" as="geometry" />
        </mxCell>
        <mxCell id="kg-7mxeYcSGcEFVd8-3E-166" value="수도명" style="ellipse;whiteSpace=wrap;html=1;align=center;" parent="1" vertex="1">
          <mxGeometry x="360" y="500" width="40" height="40" as="geometry" />
        </mxCell>
        <mxCell id="kg-7mxeYcSGcEFVd8-3E-167" value="랜드&lt;div&gt;마크&lt;/div&gt;" style="ellipse;whiteSpace=wrap;html=1;align=center;" parent="1" vertex="1">
          <mxGeometry x="405" y="500" width="40" height="40" as="geometry" />
        </mxCell>
        <mxCell id="kg-7mxeYcSGcEFVd8-3E-168" value="특산물" style="ellipse;whiteSpace=wrap;html=1;align=center;" parent="1" vertex="1">
          <mxGeometry x="445" y="500" width="40" height="40" as="geometry" />
        </mxCell>
        <mxCell id="kg-7mxeYcSGcEFVd8-3E-169" value="수도ID" style="ellipse;whiteSpace=wrap;html=1;align=center;fontStyle=4" parent="1" vertex="1">
          <mxGeometry x="271.25" y="500" width="40" height="40" as="geometry" />
        </mxCell>
        <mxCell id="kg-7mxeYcSGcEFVd8-3E-170" value="국가ID&lt;br&gt;PK" style="ellipse;whiteSpace=wrap;html=1;align=center;fontStyle=4" parent="1" vertex="1">
          <mxGeometry x="5" y="500" width="40" height="40" as="geometry" />
        </mxCell>
        <mxCell id="kg-7mxeYcSGcEFVd8-3E-171" value="중심도시&lt;div&gt;&amp;lt;포함관계&amp;gt;&lt;/div&gt;" style="shape=rhombus;perimeter=rhombusPerimeter;whiteSpace=wrap;html=1;align=center;" parent="1" vertex="1">
          <mxGeometry x="165" y="430" width="100" height="60" as="geometry" />
        </mxCell>
        <mxCell id="kg-7mxeYcSGcEFVd8-3E-172" value="1" style="text;html=1;align=center;verticalAlign=middle;resizable=0;points=[];autosize=1;strokeColor=none;fillColor=none;" parent="1" vertex="1">
          <mxGeometry x="150" y="430" width="30" height="30" as="geometry" />
        </mxCell>
        <mxCell id="kg-7mxeYcSGcEFVd8-3E-173" value="1" style="text;html=1;align=center;verticalAlign=middle;resizable=0;points=[];autosize=1;strokeColor=none;fillColor=none;" parent="1" vertex="1">
          <mxGeometry x="241.25" y="430" width="30" height="30" as="geometry" />
        </mxCell>
        <mxCell id="kg-7mxeYcSGcEFVd8-3E-174" value="국가ID&lt;div&gt;FK&lt;/div&gt;" style="ellipse;whiteSpace=wrap;html=1;align=center;fontStyle=4" parent="1" vertex="1">
          <mxGeometry x="313.75" y="500" width="40" height="40" as="geometry" />
        </mxCell>
        <mxCell id="kg-7mxeYcSGcEFVd8-3E-201" value="" style="edgeStyle=orthogonalEdgeStyle;rounded=0;orthogonalLoop=1;jettySize=auto;html=1;endArrow=ERone;endFill=0;startArrow=ERone;startFill=0;" parent="1" source="kg-7mxeYcSGcEFVd8-3E-175" target="kg-7mxeYcSGcEFVd8-3E-188" edge="1">
          <mxGeometry relative="1" as="geometry" />
        </mxCell>
        <mxCell id="kg-7mxeYcSGcEFVd8-3E-175" value="국가" style="shape=table;startSize=30;container=1;collapsible=1;childLayout=tableLayout;fixedRows=1;rowLines=0;fontStyle=1;align=center;resizeLast=1;html=1;" parent="1" vertex="1">
          <mxGeometry x="590" y="420" width="180" height="150" as="geometry" />
        </mxCell>
        <mxCell id="kg-7mxeYcSGcEFVd8-3E-176" value="" style="shape=tableRow;horizontal=0;startSize=0;swimlaneHead=0;swimlaneBody=0;fillColor=none;collapsible=0;dropTarget=0;points=[[0,0.5],[1,0.5]];portConstraint=eastwest;top=0;left=0;right=0;bottom=1;" parent="kg-7mxeYcSGcEFVd8-3E-175" vertex="1">
          <mxGeometry y="30" width="180" height="30" as="geometry" />
        </mxCell>
        <mxCell id="kg-7mxeYcSGcEFVd8-3E-177" value="PK" style="shape=partialRectangle;connectable=0;fillColor=none;top=0;left=0;bottom=0;right=0;fontStyle=1;overflow=hidden;whiteSpace=wrap;html=1;" parent="kg-7mxeYcSGcEFVd8-3E-176" vertex="1">
          <mxGeometry width="30" height="30" as="geometry">
            <mxRectangle width="30" height="30" as="alternateBounds" />
          </mxGeometry>
        </mxCell>
        <mxCell id="kg-7mxeYcSGcEFVd8-3E-178" value="국가ID" style="shape=partialRectangle;connectable=0;fillColor=none;top=0;left=0;bottom=0;right=0;align=left;spacingLeft=6;fontStyle=5;overflow=hidden;whiteSpace=wrap;html=1;" parent="kg-7mxeYcSGcEFVd8-3E-176" vertex="1">
          <mxGeometry x="30" width="150" height="30" as="geometry">
            <mxRectangle width="150" height="30" as="alternateBounds" />
          </mxGeometry>
        </mxCell>
        <mxCell id="kg-7mxeYcSGcEFVd8-3E-179" value="" style="shape=tableRow;horizontal=0;startSize=0;swimlaneHead=0;swimlaneBody=0;fillColor=none;collapsible=0;dropTarget=0;points=[[0,0.5],[1,0.5]];portConstraint=eastwest;top=0;left=0;right=0;bottom=0;" parent="kg-7mxeYcSGcEFVd8-3E-175" vertex="1">
          <mxGeometry y="60" width="180" height="30" as="geometry" />
        </mxCell>
        <mxCell id="kg-7mxeYcSGcEFVd8-3E-180" value="" style="shape=partialRectangle;connectable=0;fillColor=none;top=0;left=0;bottom=0;right=0;editable=1;overflow=hidden;whiteSpace=wrap;html=1;" parent="kg-7mxeYcSGcEFVd8-3E-179" vertex="1">
          <mxGeometry width="30" height="30" as="geometry">
            <mxRectangle width="30" height="30" as="alternateBounds" />
          </mxGeometry>
        </mxCell>
        <mxCell id="kg-7mxeYcSGcEFVd8-3E-181" value="Row 1" style="shape=partialRectangle;connectable=0;fillColor=none;top=0;left=0;bottom=0;right=0;align=left;spacingLeft=6;overflow=hidden;whiteSpace=wrap;html=1;" parent="kg-7mxeYcSGcEFVd8-3E-179" vertex="1">
          <mxGeometry x="30" width="150" height="30" as="geometry">
            <mxRectangle width="150" height="30" as="alternateBounds" />
          </mxGeometry>
        </mxCell>
        <mxCell id="kg-7mxeYcSGcEFVd8-3E-182" value="" style="shape=tableRow;horizontal=0;startSize=0;swimlaneHead=0;swimlaneBody=0;fillColor=none;collapsible=0;dropTarget=0;points=[[0,0.5],[1,0.5]];portConstraint=eastwest;top=0;left=0;right=0;bottom=0;" parent="kg-7mxeYcSGcEFVd8-3E-175" vertex="1">
          <mxGeometry y="90" width="180" height="30" as="geometry" />
        </mxCell>
        <mxCell id="kg-7mxeYcSGcEFVd8-3E-183" value="" style="shape=partialRectangle;connectable=0;fillColor=none;top=0;left=0;bottom=0;right=0;editable=1;overflow=hidden;whiteSpace=wrap;html=1;" parent="kg-7mxeYcSGcEFVd8-3E-182" vertex="1">
          <mxGeometry width="30" height="30" as="geometry">
            <mxRectangle width="30" height="30" as="alternateBounds" />
          </mxGeometry>
        </mxCell>
        <mxCell id="kg-7mxeYcSGcEFVd8-3E-184" value="Row 2" style="shape=partialRectangle;connectable=0;fillColor=none;top=0;left=0;bottom=0;right=0;align=left;spacingLeft=6;overflow=hidden;whiteSpace=wrap;html=1;" parent="kg-7mxeYcSGcEFVd8-3E-182" vertex="1">
          <mxGeometry x="30" width="150" height="30" as="geometry">
            <mxRectangle width="150" height="30" as="alternateBounds" />
          </mxGeometry>
        </mxCell>
        <mxCell id="kg-7mxeYcSGcEFVd8-3E-185" value="" style="shape=tableRow;horizontal=0;startSize=0;swimlaneHead=0;swimlaneBody=0;fillColor=none;collapsible=0;dropTarget=0;points=[[0,0.5],[1,0.5]];portConstraint=eastwest;top=0;left=0;right=0;bottom=0;" parent="kg-7mxeYcSGcEFVd8-3E-175" vertex="1">
          <mxGeometry y="120" width="180" height="30" as="geometry" />
        </mxCell>
        <mxCell id="kg-7mxeYcSGcEFVd8-3E-186" value="" style="shape=partialRectangle;connectable=0;fillColor=none;top=0;left=0;bottom=0;right=0;editable=1;overflow=hidden;whiteSpace=wrap;html=1;" parent="kg-7mxeYcSGcEFVd8-3E-185" vertex="1">
          <mxGeometry width="30" height="30" as="geometry">
            <mxRectangle width="30" height="30" as="alternateBounds" />
          </mxGeometry>
        </mxCell>
        <mxCell id="kg-7mxeYcSGcEFVd8-3E-187" value="Row 3" style="shape=partialRectangle;connectable=0;fillColor=none;top=0;left=0;bottom=0;right=0;align=left;spacingLeft=6;overflow=hidden;whiteSpace=wrap;html=1;" parent="kg-7mxeYcSGcEFVd8-3E-185" vertex="1">
          <mxGeometry x="30" width="150" height="30" as="geometry">
            <mxRectangle width="150" height="30" as="alternateBounds" />
          </mxGeometry>
        </mxCell>
        <mxCell id="kg-7mxeYcSGcEFVd8-3E-188" value="수도" style="shape=table;startSize=30;container=1;collapsible=1;childLayout=tableLayout;fixedRows=1;rowLines=0;fontStyle=1;align=center;resizeLast=1;html=1;" parent="1" vertex="1">
          <mxGeometry x="860" y="420" width="180" height="150" as="geometry" />
        </mxCell>
        <mxCell id="kg-7mxeYcSGcEFVd8-3E-189" value="" style="shape=tableRow;horizontal=0;startSize=0;swimlaneHead=0;swimlaneBody=0;fillColor=none;collapsible=0;dropTarget=0;points=[[0,0.5],[1,0.5]];portConstraint=eastwest;top=0;left=0;right=0;bottom=1;" parent="kg-7mxeYcSGcEFVd8-3E-188" vertex="1">
          <mxGeometry y="30" width="180" height="30" as="geometry" />
        </mxCell>
        <mxCell id="kg-7mxeYcSGcEFVd8-3E-190" value="PK" style="shape=partialRectangle;connectable=0;fillColor=none;top=0;left=0;bottom=0;right=0;fontStyle=1;overflow=hidden;whiteSpace=wrap;html=1;" parent="kg-7mxeYcSGcEFVd8-3E-189" vertex="1">
          <mxGeometry width="30" height="30" as="geometry">
            <mxRectangle width="30" height="30" as="alternateBounds" />
          </mxGeometry>
        </mxCell>
        <mxCell id="kg-7mxeYcSGcEFVd8-3E-191" value="수도ID" style="shape=partialRectangle;connectable=0;fillColor=none;top=0;left=0;bottom=0;right=0;align=left;spacingLeft=6;fontStyle=5;overflow=hidden;whiteSpace=wrap;html=1;" parent="kg-7mxeYcSGcEFVd8-3E-189" vertex="1">
          <mxGeometry x="30" width="150" height="30" as="geometry">
            <mxRectangle width="150" height="30" as="alternateBounds" />
          </mxGeometry>
        </mxCell>
        <mxCell id="kg-7mxeYcSGcEFVd8-3E-192" value="" style="shape=tableRow;horizontal=0;startSize=0;swimlaneHead=0;swimlaneBody=0;fillColor=none;collapsible=0;dropTarget=0;points=[[0,0.5],[1,0.5]];portConstraint=eastwest;top=0;left=0;right=0;bottom=0;" parent="kg-7mxeYcSGcEFVd8-3E-188" vertex="1">
          <mxGeometry y="60" width="180" height="30" as="geometry" />
        </mxCell>
        <mxCell id="kg-7mxeYcSGcEFVd8-3E-193" value="FK" style="shape=partialRectangle;connectable=0;fillColor=none;top=0;left=0;bottom=0;right=0;editable=1;overflow=hidden;whiteSpace=wrap;html=1;" parent="kg-7mxeYcSGcEFVd8-3E-192" vertex="1">
          <mxGeometry width="30" height="30" as="geometry">
            <mxRectangle width="30" height="30" as="alternateBounds" />
          </mxGeometry>
        </mxCell>
        <mxCell id="kg-7mxeYcSGcEFVd8-3E-194" value="국가ID" style="shape=partialRectangle;connectable=0;fillColor=none;top=0;left=0;bottom=0;right=0;align=left;spacingLeft=6;overflow=hidden;whiteSpace=wrap;html=1;" parent="kg-7mxeYcSGcEFVd8-3E-192" vertex="1">
          <mxGeometry x="30" width="150" height="30" as="geometry">
            <mxRectangle width="150" height="30" as="alternateBounds" />
          </mxGeometry>
        </mxCell>
        <mxCell id="kg-7mxeYcSGcEFVd8-3E-195" value="" style="shape=tableRow;horizontal=0;startSize=0;swimlaneHead=0;swimlaneBody=0;fillColor=none;collapsible=0;dropTarget=0;points=[[0,0.5],[1,0.5]];portConstraint=eastwest;top=0;left=0;right=0;bottom=0;" parent="kg-7mxeYcSGcEFVd8-3E-188" vertex="1">
          <mxGeometry y="90" width="180" height="30" as="geometry" />
        </mxCell>
        <mxCell id="kg-7mxeYcSGcEFVd8-3E-196" value="" style="shape=partialRectangle;connectable=0;fillColor=none;top=0;left=0;bottom=0;right=0;editable=1;overflow=hidden;whiteSpace=wrap;html=1;" parent="kg-7mxeYcSGcEFVd8-3E-195" vertex="1">
          <mxGeometry width="30" height="30" as="geometry">
            <mxRectangle width="30" height="30" as="alternateBounds" />
          </mxGeometry>
        </mxCell>
        <mxCell id="kg-7mxeYcSGcEFVd8-3E-197" value="Row 2" style="shape=partialRectangle;connectable=0;fillColor=none;top=0;left=0;bottom=0;right=0;align=left;spacingLeft=6;overflow=hidden;whiteSpace=wrap;html=1;" parent="kg-7mxeYcSGcEFVd8-3E-195" vertex="1">
          <mxGeometry x="30" width="150" height="30" as="geometry">
            <mxRectangle width="150" height="30" as="alternateBounds" />
          </mxGeometry>
        </mxCell>
        <mxCell id="kg-7mxeYcSGcEFVd8-3E-198" value="" style="shape=tableRow;horizontal=0;startSize=0;swimlaneHead=0;swimlaneBody=0;fillColor=none;collapsible=0;dropTarget=0;points=[[0,0.5],[1,0.5]];portConstraint=eastwest;top=0;left=0;right=0;bottom=0;" parent="kg-7mxeYcSGcEFVd8-3E-188" vertex="1">
          <mxGeometry y="120" width="180" height="30" as="geometry" />
        </mxCell>
        <mxCell id="kg-7mxeYcSGcEFVd8-3E-199" value="" style="shape=partialRectangle;connectable=0;fillColor=none;top=0;left=0;bottom=0;right=0;editable=1;overflow=hidden;whiteSpace=wrap;html=1;" parent="kg-7mxeYcSGcEFVd8-3E-198" vertex="1">
          <mxGeometry width="30" height="30" as="geometry">
            <mxRectangle width="30" height="30" as="alternateBounds" />
          </mxGeometry>
        </mxCell>
        <mxCell id="kg-7mxeYcSGcEFVd8-3E-200" value="Row 3" style="shape=partialRectangle;connectable=0;fillColor=none;top=0;left=0;bottom=0;right=0;align=left;spacingLeft=6;overflow=hidden;whiteSpace=wrap;html=1;" parent="kg-7mxeYcSGcEFVd8-3E-198" vertex="1">
          <mxGeometry x="30" width="150" height="30" as="geometry">
            <mxRectangle width="150" height="30" as="alternateBounds" />
          </mxGeometry>
        </mxCell>
        <mxCell id="kg-7mxeYcSGcEFVd8-3E-204" value="1:N 매장 - 직원&lt;div&gt;1:N 부서 - 직원&lt;/div&gt;" style="text;html=1;align=center;verticalAlign=middle;resizable=0;points=[];autosize=1;strokeColor=none;fillColor=none;" parent="1" vertex="1">
          <mxGeometry x="-10" y="1050" width="100" height="40" as="geometry" />
        </mxCell>
        <mxCell id="kg-7mxeYcSGcEFVd8-3E-206" value="직원기본정보 - 직원프로필" style="text;html=1;align=center;verticalAlign=middle;resizable=0;points=[];autosize=1;strokeColor=none;fillColor=none;" parent="1" vertex="1">
          <mxGeometry x="330" y="348" width="170" height="30" as="geometry" />
        </mxCell>
        <mxCell id="kg-7mxeYcSGcEFVd8-3E-207" value="매장" style="whiteSpace=wrap;html=1;align=center;" parent="1" vertex="1">
          <mxGeometry y="1120" width="100" height="40" as="geometry" />
        </mxCell>
        <mxCell id="kg-7mxeYcSGcEFVd8-3E-208" value="직원" style="whiteSpace=wrap;html=1;align=center;" parent="1" vertex="1">
          <mxGeometry x="330" y="1120" width="100" height="40" as="geometry" />
        </mxCell>
        <mxCell id="kg-7mxeYcSGcEFVd8-3E-210" value="" style="edgeStyle=orthogonalEdgeStyle;rounded=0;orthogonalLoop=1;jettySize=auto;html=1;endArrow=none;endFill=0;" parent="1" source="kg-7mxeYcSGcEFVd8-3E-209" target="kg-7mxeYcSGcEFVd8-3E-207" edge="1">
          <mxGeometry relative="1" as="geometry" />
        </mxCell>
        <mxCell id="kg-7mxeYcSGcEFVd8-3E-211" value="" style="edgeStyle=orthogonalEdgeStyle;rounded=0;orthogonalLoop=1;jettySize=auto;html=1;endArrow=none;endFill=0;" parent="1" source="kg-7mxeYcSGcEFVd8-3E-209" target="kg-7mxeYcSGcEFVd8-3E-208" edge="1">
          <mxGeometry relative="1" as="geometry" />
        </mxCell>
        <mxCell id="kg-7mxeYcSGcEFVd8-3E-209" value="소속" style="shape=rhombus;perimeter=rhombusPerimeter;whiteSpace=wrap;html=1;align=center;" parent="1" vertex="1">
          <mxGeometry x="155" y="1110" width="120" height="60" as="geometry" />
        </mxCell>
        <mxCell id="kg-7mxeYcSGcEFVd8-3E-212" value="1" style="text;html=1;align=center;verticalAlign=middle;resizable=0;points=[];autosize=1;strokeColor=none;fillColor=none;" parent="1" vertex="1">
          <mxGeometry x="145" y="1098" width="30" height="30" as="geometry" />
        </mxCell>
        <mxCell id="kg-7mxeYcSGcEFVd8-3E-213" value="N" style="text;html=1;align=center;verticalAlign=middle;resizable=0;points=[];autosize=1;strokeColor=none;fillColor=none;" parent="1" vertex="1">
          <mxGeometry x="255" y="1098" width="30" height="30" as="geometry" />
        </mxCell>
        <mxCell id="kg-7mxeYcSGcEFVd8-3E-214" value="매장ID" style="ellipse;whiteSpace=wrap;html=1;align=center;fontStyle=4" parent="1" vertex="1">
          <mxGeometry x="-10" y="1180" width="40" height="40" as="geometry" />
        </mxCell>
        <mxCell id="kg-7mxeYcSGcEFVd8-3E-215" value="주소" style="ellipse;whiteSpace=wrap;html=1;align=center;" parent="1" vertex="1">
          <mxGeometry x="30" y="1180" width="40" height="40" as="geometry" />
        </mxCell>
        <mxCell id="kg-7mxeYcSGcEFVd8-3E-216" value="연락처" style="ellipse;whiteSpace=wrap;html=1;align=center;" parent="1" vertex="1">
          <mxGeometry x="70" y="1180" width="40" height="40" as="geometry" />
        </mxCell>
        <mxCell id="kg-7mxeYcSGcEFVd8-3E-217" value="직원ID" style="ellipse;whiteSpace=wrap;html=1;align=center;fontStyle=4" parent="1" vertex="1">
          <mxGeometry x="280" y="1170" width="40" height="40" as="geometry" />
        </mxCell>
        <mxCell id="kg-7mxeYcSGcEFVd8-3E-219" value="직급" style="ellipse;whiteSpace=wrap;html=1;align=center;fontStyle=0" parent="1" vertex="1">
          <mxGeometry x="425" y="1170" width="40" height="40" as="geometry" />
        </mxCell>
        <mxCell id="kg-7mxeYcSGcEFVd8-3E-221" value="프로필" style="whiteSpace=wrap;html=1;align=center;" parent="1" vertex="1">
          <mxGeometry x="330" y="940" width="100" height="40" as="geometry" />
        </mxCell>
        <mxCell id="kg-7mxeYcSGcEFVd8-3E-222" value="개인정보" style="shape=rhombus;perimeter=rhombusPerimeter;whiteSpace=wrap;html=1;align=center;" parent="1" vertex="1">
          <mxGeometry x="320" y="1020" width="120" height="60" as="geometry" />
        </mxCell>
        <mxCell id="kg-7mxeYcSGcEFVd8-3E-224" value="" style="endArrow=none;html=1;rounded=0;entryX=0.5;entryY=1;entryDx=0;entryDy=0;exitX=0.5;exitY=0;exitDx=0;exitDy=0;" parent="1" source="kg-7mxeYcSGcEFVd8-3E-208" target="kg-7mxeYcSGcEFVd8-3E-222" edge="1">
          <mxGeometry width="50" height="50" relative="1" as="geometry">
            <mxPoint x="340" y="1120" as="sourcePoint" />
            <mxPoint x="390" y="1070" as="targetPoint" />
          </mxGeometry>
        </mxCell>
        <mxCell id="kg-7mxeYcSGcEFVd8-3E-225" value="" style="endArrow=none;html=1;rounded=0;entryX=0.5;entryY=1;entryDx=0;entryDy=0;exitX=0.5;exitY=0;exitDx=0;exitDy=0;" parent="1" source="kg-7mxeYcSGcEFVd8-3E-222" target="kg-7mxeYcSGcEFVd8-3E-221" edge="1">
          <mxGeometry width="50" height="50" relative="1" as="geometry">
            <mxPoint x="390" y="1130" as="sourcePoint" />
            <mxPoint x="390" y="1090" as="targetPoint" />
          </mxGeometry>
        </mxCell>
        <mxCell id="kg-7mxeYcSGcEFVd8-3E-226" value="1" style="text;html=1;align=center;verticalAlign=middle;resizable=0;points=[];autosize=1;strokeColor=none;fillColor=none;" parent="1" vertex="1">
          <mxGeometry x="353.75" y="1080" width="30" height="30" as="geometry" />
        </mxCell>
        <mxCell id="kg-7mxeYcSGcEFVd8-3E-227" value="1" style="text;html=1;align=center;verticalAlign=middle;resizable=0;points=[];autosize=1;strokeColor=none;fillColor=none;" parent="1" vertex="1">
          <mxGeometry x="350" y="1000" width="30" height="30" as="geometry" />
        </mxCell>
        <mxCell id="kg-7mxeYcSGcEFVd8-3E-230" value="이름" style="ellipse;whiteSpace=wrap;html=1;align=center;fontStyle=0" parent="1" vertex="1">
          <mxGeometry x="320" y="880" width="40" height="40" as="geometry" />
        </mxCell>
        <mxCell id="kg-7mxeYcSGcEFVd8-3E-231" value="나이" style="ellipse;whiteSpace=wrap;html=1;align=center;fontStyle=0" parent="1" vertex="1">
          <mxGeometry x="365" y="880" width="40" height="40" as="geometry" />
        </mxCell>
        <mxCell id="kg-7mxeYcSGcEFVd8-3E-232" value="주소" style="ellipse;whiteSpace=wrap;html=1;align=center;fontStyle=0" parent="1" vertex="1">
          <mxGeometry x="410" y="880" width="40" height="40" as="geometry" />
        </mxCell>
        <mxCell id="kg-7mxeYcSGcEFVd8-3E-233" value="성별" style="ellipse;whiteSpace=wrap;html=1;align=center;fontStyle=0" parent="1" vertex="1">
          <mxGeometry x="455" y="880" width="40" height="40" as="geometry" />
        </mxCell>
        <mxCell id="kg-7mxeYcSGcEFVd8-3E-234" value="경력&lt;div&gt;사항&lt;/div&gt;" style="ellipse;whiteSpace=wrap;html=1;align=center;fontStyle=0" parent="1" vertex="1">
          <mxGeometry x="500" y="880" width="40" height="40" as="geometry" />
        </mxCell>
        <mxCell id="kg-7mxeYcSGcEFVd8-3E-235" value="학력" style="ellipse;whiteSpace=wrap;html=1;align=center;fontStyle=0" parent="1" vertex="1">
          <mxGeometry x="540" y="880" width="40" height="40" as="geometry" />
        </mxCell>
        <mxCell id="kg-7mxeYcSGcEFVd8-3E-236" value="증명&lt;div&gt;사진&lt;/div&gt;" style="ellipse;whiteSpace=wrap;html=1;align=center;fontStyle=0" parent="1" vertex="1">
          <mxGeometry x="590" y="880" width="40" height="40" as="geometry" />
        </mxCell>
        <mxCell id="kg-7mxeYcSGcEFVd8-3E-237" value="프로필ID" style="ellipse;whiteSpace=wrap;html=1;align=center;fontStyle=0" parent="1" vertex="1">
          <mxGeometry x="231.25" y="880" width="40" height="40" as="geometry" />
        </mxCell>
        <mxCell id="kg-7mxeYcSGcEFVd8-3E-238" value="직원ID&lt;div&gt;(FK)&lt;/div&gt;" style="ellipse;whiteSpace=wrap;html=1;align=center;fontStyle=0" parent="1" vertex="1">
          <mxGeometry x="273.75" y="880" width="40" height="40" as="geometry" />
        </mxCell>
        <mxCell id="kg-7mxeYcSGcEFVd8-3E-239" value="월급" style="ellipse;whiteSpace=wrap;html=1;align=center;fontStyle=0" parent="1" vertex="1">
          <mxGeometry x="475" y="1170" width="40" height="40" as="geometry" />
        </mxCell>
        <mxCell id="kg-7mxeYcSGcEFVd8-3E-240" value="호봉" style="ellipse;whiteSpace=wrap;html=1;align=center;fontStyle=0" parent="1" vertex="1">
          <mxGeometry x="525" y="1170" width="35" height="40" as="geometry" />
        </mxCell>
        <mxCell id="kg-7mxeYcSGcEFVd8-3E-241" value="매장ID&lt;div&gt;(FK)&lt;/div&gt;" style="ellipse;whiteSpace=wrap;html=1;align=center;fontStyle=0" parent="1" vertex="1">
          <mxGeometry x="325" y="1170" width="40" height="40" as="geometry" />
        </mxCell>
        <mxCell id="kg-7mxeYcSGcEFVd8-3E-242" value="부서" style="whiteSpace=wrap;html=1;align=center;" parent="1" vertex="1">
          <mxGeometry x="661" y="1119" width="100" height="40" as="geometry" />
        </mxCell>
        <mxCell id="kg-7mxeYcSGcEFVd8-3E-243" value="부서명" style="ellipse;whiteSpace=wrap;html=1;align=center;fontStyle=0" parent="1" vertex="1">
          <mxGeometry x="670" y="1170" width="35" height="40" as="geometry" />
        </mxCell>
        <mxCell id="kg-7mxeYcSGcEFVd8-3E-244" value="인원" style="ellipse;whiteSpace=wrap;html=1;align=center;fontStyle=0" parent="1" vertex="1">
          <mxGeometry x="712.5" y="1170" width="35" height="40" as="geometry" />
        </mxCell>
        <mxCell id="kg-7mxeYcSGcEFVd8-3E-245" value="업무" style="ellipse;whiteSpace=wrap;html=1;align=center;fontStyle=0" parent="1" vertex="1">
          <mxGeometry x="750" y="1170" width="35" height="40" as="geometry" />
        </mxCell>
        <mxCell id="kg-7mxeYcSGcEFVd8-3E-246" value="부서ID" style="ellipse;whiteSpace=wrap;html=1;align=center;fontStyle=4" parent="1" vertex="1">
          <mxGeometry x="630" y="1170" width="35" height="40" as="geometry" />
        </mxCell>
        <mxCell id="kg-7mxeYcSGcEFVd8-3E-247" value="포함" style="shape=rhombus;perimeter=rhombusPerimeter;whiteSpace=wrap;html=1;align=center;" parent="1" vertex="1">
          <mxGeometry x="485" y="1110" width="120" height="60" as="geometry" />
        </mxCell>
        <mxCell id="kg-7mxeYcSGcEFVd8-3E-249" value="" style="edgeStyle=orthogonalEdgeStyle;rounded=0;orthogonalLoop=1;jettySize=auto;html=1;endArrow=none;endFill=0;" parent="1" edge="1">
          <mxGeometry relative="1" as="geometry">
            <mxPoint x="605" y="1139.71" as="sourcePoint" />
            <mxPoint x="660" y="1140" as="targetPoint" />
          </mxGeometry>
        </mxCell>
        <mxCell id="kg-7mxeYcSGcEFVd8-3E-250" value="" style="edgeStyle=orthogonalEdgeStyle;rounded=0;orthogonalLoop=1;jettySize=auto;html=1;endArrow=none;endFill=0;" parent="1" edge="1">
          <mxGeometry relative="1" as="geometry">
            <mxPoint x="430" y="1139.71" as="sourcePoint" />
            <mxPoint x="485" y="1139.71" as="targetPoint" />
          </mxGeometry>
        </mxCell>
        <mxCell id="kg-7mxeYcSGcEFVd8-3E-251" value="1" style="text;html=1;align=center;verticalAlign=middle;resizable=0;points=[];autosize=1;strokeColor=none;fillColor=none;" parent="1" vertex="1">
          <mxGeometry x="595" y="1108" width="30" height="30" as="geometry" />
        </mxCell>
        <mxCell id="kg-7mxeYcSGcEFVd8-3E-252" value="N" style="text;html=1;align=center;verticalAlign=middle;resizable=0;points=[];autosize=1;strokeColor=none;fillColor=none;" parent="1" vertex="1">
          <mxGeometry x="455" y="1110" width="30" height="30" as="geometry" />
        </mxCell>
        <mxCell id="kg-7mxeYcSGcEFVd8-3E-253" value="부서ID(FK)" style="ellipse;whiteSpace=wrap;html=1;align=center;fontStyle=0" parent="1" vertex="1">
          <mxGeometry x="370" y="1170" width="35" height="40" as="geometry" />
        </mxCell>
        <mxCell id="Cjz674rgcyXxBMaDM-vM-1" value="문제 1:1" style="text;html=1;align=center;verticalAlign=middle;resizable=0;points=[];autosize=1;strokeColor=none;fillColor=none;" parent="1" vertex="1">
          <mxGeometry y="1348" width="70" height="30" as="geometry" />
        </mxCell>
        <mxCell id="Cjz674rgcyXxBMaDM-vM-2" value="" style="rounded=0;whiteSpace=wrap;html=1;" parent="1" vertex="1">
          <mxGeometry x="15" y="1380" width="330" height="190" as="geometry" />
        </mxCell>
        <mxCell id="Cjz674rgcyXxBMaDM-vM-3" value="제품 - 제품상세정보" style="text;html=1;align=center;verticalAlign=middle;resizable=0;points=[];autosize=1;strokeColor=none;fillColor=none;" parent="1" vertex="1">
          <mxGeometry x="20" y="1400" width="130" height="30" as="geometry" />
        </mxCell>
        <mxCell id="Cjz674rgcyXxBMaDM-vM-4" value="직원기본정보 - 직원프로필" style="text;html=1;align=center;verticalAlign=middle;resizable=0;points=[];autosize=1;strokeColor=none;fillColor=none;" parent="1" vertex="1">
          <mxGeometry x="20" y="1430" width="170" height="30" as="geometry" />
        </mxCell>
        <mxCell id="Cjz674rgcyXxBMaDM-vM-5" value="사용자 - 이메일인증" style="text;html=1;align=center;verticalAlign=middle;resizable=0;points=[];autosize=1;strokeColor=none;fillColor=none;" parent="1" vertex="1">
          <mxGeometry x="20" y="1460" width="130" height="30" as="geometry" />
        </mxCell>
        <mxCell id="Cjz674rgcyXxBMaDM-vM-7" value="" style="rounded=0;whiteSpace=wrap;html=1;" parent="1" vertex="1">
          <mxGeometry x="395" y="1380" width="330" height="190" as="geometry" />
        </mxCell>
        <mxCell id="Cjz674rgcyXxBMaDM-vM-8" value="고객 - 신용카드" style="text;html=1;align=center;verticalAlign=middle;resizable=0;points=[];autosize=1;strokeColor=none;fillColor=none;" parent="1" vertex="1">
          <mxGeometry x="400" y="1390" width="110" height="30" as="geometry" />
        </mxCell>
        <mxCell id="Cjz674rgcyXxBMaDM-vM-9" value="문제 1:N" style="text;html=1;align=center;verticalAlign=middle;resizable=0;points=[];autosize=1;strokeColor=none;fillColor=none;" parent="1" vertex="1">
          <mxGeometry x="385" y="1348" width="70" height="30" as="geometry" />
        </mxCell>
        <mxCell id="Cjz674rgcyXxBMaDM-vM-10" value="학생 - 상담기록" style="text;html=1;align=center;verticalAlign=middle;resizable=0;points=[];autosize=1;strokeColor=none;fillColor=none;" parent="1" vertex="1">
          <mxGeometry x="20" y="1490" width="110" height="30" as="geometry" />
        </mxCell>
        <mxCell id="Cjz674rgcyXxBMaDM-vM-11" value="강사 - 학생" style="text;html=1;align=center;verticalAlign=middle;resizable=0;points=[];autosize=1;strokeColor=none;fillColor=none;" parent="1" vertex="1">
          <mxGeometry x="405" y="1420" width="80" height="30" as="geometry" />
        </mxCell>
        <mxCell id="Cjz674rgcyXxBMaDM-vM-12" value="광역시 - 구" style="text;html=1;align=center;verticalAlign=middle;resizable=0;points=[];autosize=1;strokeColor=none;fillColor=none;" parent="1" vertex="1">
          <mxGeometry x="405" y="1450" width="80" height="30" as="geometry" />
        </mxCell>
        <mxCell id="kcCt1qEZTi8nBflzGKC5-2" value="제품" style="whiteSpace=wrap;html=1;align=center;" parent="1" vertex="1">
          <mxGeometry x="-4.370000000000001" y="1630" width="100" height="40" as="geometry" />
        </mxCell>
        <mxCell id="kcCt1qEZTi8nBflzGKC5-3" value="제품상세" style="whiteSpace=wrap;html=1;align=center;" parent="1" vertex="1">
          <mxGeometry x="264.38" y="1630" width="100" height="40" as="geometry" />
        </mxCell>
        <mxCell id="kcCt1qEZTi8nBflzGKC5-5" value="" style="edgeStyle=orthogonalEdgeStyle;rounded=0;orthogonalLoop=1;jettySize=auto;html=1;endArrow=none;endFill=0;" parent="1" source="kcCt1qEZTi8nBflzGKC5-4" target="kcCt1qEZTi8nBflzGKC5-2" edge="1">
          <mxGeometry relative="1" as="geometry" />
        </mxCell>
        <mxCell id="kcCt1qEZTi8nBflzGKC5-6" value="" style="edgeStyle=orthogonalEdgeStyle;rounded=0;orthogonalLoop=1;jettySize=auto;html=1;endArrow=none;endFill=0;" parent="1" source="kcCt1qEZTi8nBflzGKC5-4" target="kcCt1qEZTi8nBflzGKC5-3" edge="1">
          <mxGeometry relative="1" as="geometry" />
        </mxCell>
        <mxCell id="kcCt1qEZTi8nBflzGKC5-4" value="설명" style="shape=rhombus;perimeter=rhombusPerimeter;whiteSpace=wrap;html=1;align=center;" parent="1" vertex="1">
          <mxGeometry x="130.63" y="1625" width="95" height="50" as="geometry" />
        </mxCell>
        <mxCell id="kcCt1qEZTi8nBflzGKC5-8" value="&lt;u&gt;제품ID&lt;/u&gt;" style="ellipse;whiteSpace=wrap;html=1;align=center;" parent="1" vertex="1">
          <mxGeometry x="-40" y="1690" width="45" height="40" as="geometry" />
        </mxCell>
        <mxCell id="kcCt1qEZTi8nBflzGKC5-9" value="제품명" style="ellipse;whiteSpace=wrap;html=1;align=center;" parent="1" vertex="1">
          <mxGeometry x="5" y="1690" width="45" height="40" as="geometry" />
        </mxCell>
        <mxCell id="kcCt1qEZTi8nBflzGKC5-10" value="제조사" style="ellipse;whiteSpace=wrap;html=1;align=center;" parent="1" vertex="1">
          <mxGeometry x="375" y="1690" width="45" height="40" as="geometry" />
        </mxCell>
        <mxCell id="kcCt1qEZTi8nBflzGKC5-11" value="단가" style="ellipse;whiteSpace=wrap;html=1;align=center;" parent="1" vertex="1">
          <mxGeometry x="95.63" y="1690" width="45" height="40" as="geometry" />
        </mxCell>
        <mxCell id="kcCt1qEZTi8nBflzGKC5-12" value="제조연월" style="ellipse;whiteSpace=wrap;html=1;align=center;" parent="1" vertex="1">
          <mxGeometry x="330" y="1690" width="45" height="40" as="geometry" />
        </mxCell>
        <mxCell id="kcCt1qEZTi8nBflzGKC5-13" value="제품&lt;br&gt;설명" style="ellipse;whiteSpace=wrap;html=1;align=center;" parent="1" vertex="1">
          <mxGeometry x="282.5" y="1690" width="45" height="40" as="geometry" />
        </mxCell>
        <mxCell id="kcCt1qEZTi8nBflzGKC5-14" value="&lt;u&gt;S/N&lt;/u&gt;" style="ellipse;whiteSpace=wrap;html=1;align=center;" parent="1" vertex="1">
          <mxGeometry x="195" y="1690" width="45" height="40" as="geometry" />
        </mxCell>
        <mxCell id="kcCt1qEZTi8nBflzGKC5-16" value="판매자" style="ellipse;whiteSpace=wrap;html=1;align=center;" parent="1" vertex="1">
          <mxGeometry x="50" y="1690" width="45" height="40" as="geometry" />
        </mxCell>
        <mxCell id="kcCt1qEZTi8nBflzGKC5-17" value="1" style="text;html=1;align=center;verticalAlign=middle;resizable=0;points=[];autosize=1;strokeColor=none;fillColor=none;" parent="1" vertex="1">
          <mxGeometry x="115" y="1608" width="30" height="30" as="geometry" />
        </mxCell>
        <mxCell id="kcCt1qEZTi8nBflzGKC5-18" value="1" style="text;html=1;align=center;verticalAlign=middle;resizable=0;points=[];autosize=1;strokeColor=none;fillColor=none;" parent="1" vertex="1">
          <mxGeometry x="205" y="1608" width="30" height="30" as="geometry" />
        </mxCell>
        <mxCell id="kcCt1qEZTi8nBflzGKC5-19" value="제품ID&lt;br&gt;(FK)" style="ellipse;whiteSpace=wrap;html=1;align=center;" parent="1" vertex="1">
          <mxGeometry x="238.75" y="1690" width="45" height="40" as="geometry" />
        </mxCell>
        <mxCell id="kcCt1qEZTi8nBflzGKC5-46" value="" style="edgeStyle=orthogonalEdgeStyle;rounded=0;orthogonalLoop=1;jettySize=auto;html=1;endArrow=ERone;endFill=0;startArrow=ERone;startFill=0;" parent="1" source="kcCt1qEZTi8nBflzGKC5-20" target="kcCt1qEZTi8nBflzGKC5-33" edge="1">
          <mxGeometry relative="1" as="geometry" />
        </mxCell>
        <mxCell id="kcCt1qEZTi8nBflzGKC5-20" value="제품" style="shape=table;startSize=30;container=1;collapsible=1;childLayout=tableLayout;fixedRows=1;rowLines=0;fontStyle=1;align=center;resizeLast=1;html=1;" parent="1" vertex="1">
          <mxGeometry x="450" y="1630" width="180" height="150" as="geometry" />
        </mxCell>
        <mxCell id="kcCt1qEZTi8nBflzGKC5-21" value="" style="shape=tableRow;horizontal=0;startSize=0;swimlaneHead=0;swimlaneBody=0;fillColor=none;collapsible=0;dropTarget=0;points=[[0,0.5],[1,0.5]];portConstraint=eastwest;top=0;left=0;right=0;bottom=1;" parent="kcCt1qEZTi8nBflzGKC5-20" vertex="1">
          <mxGeometry y="30" width="180" height="30" as="geometry" />
        </mxCell>
        <mxCell id="kcCt1qEZTi8nBflzGKC5-22" value="PK" style="shape=partialRectangle;connectable=0;fillColor=none;top=0;left=0;bottom=0;right=0;fontStyle=1;overflow=hidden;whiteSpace=wrap;html=1;" parent="kcCt1qEZTi8nBflzGKC5-21" vertex="1">
          <mxGeometry width="30" height="30" as="geometry">
            <mxRectangle width="30" height="30" as="alternateBounds" />
          </mxGeometry>
        </mxCell>
        <mxCell id="kcCt1qEZTi8nBflzGKC5-23" value="제품ID" style="shape=partialRectangle;connectable=0;fillColor=none;top=0;left=0;bottom=0;right=0;align=left;spacingLeft=6;fontStyle=5;overflow=hidden;whiteSpace=wrap;html=1;" parent="kcCt1qEZTi8nBflzGKC5-21" vertex="1">
          <mxGeometry x="30" width="150" height="30" as="geometry">
            <mxRectangle width="150" height="30" as="alternateBounds" />
          </mxGeometry>
        </mxCell>
        <mxCell id="kcCt1qEZTi8nBflzGKC5-24" value="" style="shape=tableRow;horizontal=0;startSize=0;swimlaneHead=0;swimlaneBody=0;fillColor=none;collapsible=0;dropTarget=0;points=[[0,0.5],[1,0.5]];portConstraint=eastwest;top=0;left=0;right=0;bottom=0;" parent="kcCt1qEZTi8nBflzGKC5-20" vertex="1">
          <mxGeometry y="60" width="180" height="30" as="geometry" />
        </mxCell>
        <mxCell id="kcCt1qEZTi8nBflzGKC5-25" value="" style="shape=partialRectangle;connectable=0;fillColor=none;top=0;left=0;bottom=0;right=0;editable=1;overflow=hidden;whiteSpace=wrap;html=1;" parent="kcCt1qEZTi8nBflzGKC5-24" vertex="1">
          <mxGeometry width="30" height="30" as="geometry">
            <mxRectangle width="30" height="30" as="alternateBounds" />
          </mxGeometry>
        </mxCell>
        <mxCell id="kcCt1qEZTi8nBflzGKC5-26" value="Row 1" style="shape=partialRectangle;connectable=0;fillColor=none;top=0;left=0;bottom=0;right=0;align=left;spacingLeft=6;overflow=hidden;whiteSpace=wrap;html=1;" parent="kcCt1qEZTi8nBflzGKC5-24" vertex="1">
          <mxGeometry x="30" width="150" height="30" as="geometry">
            <mxRectangle width="150" height="30" as="alternateBounds" />
          </mxGeometry>
        </mxCell>
        <mxCell id="kcCt1qEZTi8nBflzGKC5-27" value="" style="shape=tableRow;horizontal=0;startSize=0;swimlaneHead=0;swimlaneBody=0;fillColor=none;collapsible=0;dropTarget=0;points=[[0,0.5],[1,0.5]];portConstraint=eastwest;top=0;left=0;right=0;bottom=0;" parent="kcCt1qEZTi8nBflzGKC5-20" vertex="1">
          <mxGeometry y="90" width="180" height="30" as="geometry" />
        </mxCell>
        <mxCell id="kcCt1qEZTi8nBflzGKC5-28" value="" style="shape=partialRectangle;connectable=0;fillColor=none;top=0;left=0;bottom=0;right=0;editable=1;overflow=hidden;whiteSpace=wrap;html=1;" parent="kcCt1qEZTi8nBflzGKC5-27" vertex="1">
          <mxGeometry width="30" height="30" as="geometry">
            <mxRectangle width="30" height="30" as="alternateBounds" />
          </mxGeometry>
        </mxCell>
        <mxCell id="kcCt1qEZTi8nBflzGKC5-29" value="Row 2" style="shape=partialRectangle;connectable=0;fillColor=none;top=0;left=0;bottom=0;right=0;align=left;spacingLeft=6;overflow=hidden;whiteSpace=wrap;html=1;" parent="kcCt1qEZTi8nBflzGKC5-27" vertex="1">
          <mxGeometry x="30" width="150" height="30" as="geometry">
            <mxRectangle width="150" height="30" as="alternateBounds" />
          </mxGeometry>
        </mxCell>
        <mxCell id="kcCt1qEZTi8nBflzGKC5-30" value="" style="shape=tableRow;horizontal=0;startSize=0;swimlaneHead=0;swimlaneBody=0;fillColor=none;collapsible=0;dropTarget=0;points=[[0,0.5],[1,0.5]];portConstraint=eastwest;top=0;left=0;right=0;bottom=0;" parent="kcCt1qEZTi8nBflzGKC5-20" vertex="1">
          <mxGeometry y="120" width="180" height="30" as="geometry" />
        </mxCell>
        <mxCell id="kcCt1qEZTi8nBflzGKC5-31" value="" style="shape=partialRectangle;connectable=0;fillColor=none;top=0;left=0;bottom=0;right=0;editable=1;overflow=hidden;whiteSpace=wrap;html=1;" parent="kcCt1qEZTi8nBflzGKC5-30" vertex="1">
          <mxGeometry width="30" height="30" as="geometry">
            <mxRectangle width="30" height="30" as="alternateBounds" />
          </mxGeometry>
        </mxCell>
        <mxCell id="kcCt1qEZTi8nBflzGKC5-32" value="Row 3" style="shape=partialRectangle;connectable=0;fillColor=none;top=0;left=0;bottom=0;right=0;align=left;spacingLeft=6;overflow=hidden;whiteSpace=wrap;html=1;" parent="kcCt1qEZTi8nBflzGKC5-30" vertex="1">
          <mxGeometry x="30" width="150" height="30" as="geometry">
            <mxRectangle width="150" height="30" as="alternateBounds" />
          </mxGeometry>
        </mxCell>
        <mxCell id="kcCt1qEZTi8nBflzGKC5-33" value="제품상세" style="shape=table;startSize=30;container=1;collapsible=1;childLayout=tableLayout;fixedRows=1;rowLines=0;fontStyle=1;align=center;resizeLast=1;html=1;" parent="1" vertex="1">
          <mxGeometry x="710" y="1630" width="180" height="150" as="geometry" />
        </mxCell>
        <mxCell id="kcCt1qEZTi8nBflzGKC5-34" value="" style="shape=tableRow;horizontal=0;startSize=0;swimlaneHead=0;swimlaneBody=0;fillColor=none;collapsible=0;dropTarget=0;points=[[0,0.5],[1,0.5]];portConstraint=eastwest;top=0;left=0;right=0;bottom=1;" parent="kcCt1qEZTi8nBflzGKC5-33" vertex="1">
          <mxGeometry y="30" width="180" height="30" as="geometry" />
        </mxCell>
        <mxCell id="kcCt1qEZTi8nBflzGKC5-35" value="PK" style="shape=partialRectangle;connectable=0;fillColor=none;top=0;left=0;bottom=0;right=0;fontStyle=1;overflow=hidden;whiteSpace=wrap;html=1;" parent="kcCt1qEZTi8nBflzGKC5-34" vertex="1">
          <mxGeometry width="30" height="30" as="geometry">
            <mxRectangle width="30" height="30" as="alternateBounds" />
          </mxGeometry>
        </mxCell>
        <mxCell id="kcCt1qEZTi8nBflzGKC5-36" value="S/N" style="shape=partialRectangle;connectable=0;fillColor=none;top=0;left=0;bottom=0;right=0;align=left;spacingLeft=6;fontStyle=5;overflow=hidden;whiteSpace=wrap;html=1;" parent="kcCt1qEZTi8nBflzGKC5-34" vertex="1">
          <mxGeometry x="30" width="150" height="30" as="geometry">
            <mxRectangle width="150" height="30" as="alternateBounds" />
          </mxGeometry>
        </mxCell>
        <mxCell id="kcCt1qEZTi8nBflzGKC5-37" value="" style="shape=tableRow;horizontal=0;startSize=0;swimlaneHead=0;swimlaneBody=0;fillColor=none;collapsible=0;dropTarget=0;points=[[0,0.5],[1,0.5]];portConstraint=eastwest;top=0;left=0;right=0;bottom=0;" parent="kcCt1qEZTi8nBflzGKC5-33" vertex="1">
          <mxGeometry y="60" width="180" height="30" as="geometry" />
        </mxCell>
        <mxCell id="kcCt1qEZTi8nBflzGKC5-38" value="FK" style="shape=partialRectangle;connectable=0;fillColor=none;top=0;left=0;bottom=0;right=0;editable=1;overflow=hidden;whiteSpace=wrap;html=1;" parent="kcCt1qEZTi8nBflzGKC5-37" vertex="1">
          <mxGeometry width="30" height="30" as="geometry">
            <mxRectangle width="30" height="30" as="alternateBounds" />
          </mxGeometry>
        </mxCell>
        <mxCell id="kcCt1qEZTi8nBflzGKC5-39" value="제품ID" style="shape=partialRectangle;connectable=0;fillColor=none;top=0;left=0;bottom=0;right=0;align=left;spacingLeft=6;overflow=hidden;whiteSpace=wrap;html=1;" parent="kcCt1qEZTi8nBflzGKC5-37" vertex="1">
          <mxGeometry x="30" width="150" height="30" as="geometry">
            <mxRectangle width="150" height="30" as="alternateBounds" />
          </mxGeometry>
        </mxCell>
        <mxCell id="kcCt1qEZTi8nBflzGKC5-40" value="" style="shape=tableRow;horizontal=0;startSize=0;swimlaneHead=0;swimlaneBody=0;fillColor=none;collapsible=0;dropTarget=0;points=[[0,0.5],[1,0.5]];portConstraint=eastwest;top=0;left=0;right=0;bottom=0;" parent="kcCt1qEZTi8nBflzGKC5-33" vertex="1">
          <mxGeometry y="90" width="180" height="30" as="geometry" />
        </mxCell>
        <mxCell id="kcCt1qEZTi8nBflzGKC5-41" value="" style="shape=partialRectangle;connectable=0;fillColor=none;top=0;left=0;bottom=0;right=0;editable=1;overflow=hidden;whiteSpace=wrap;html=1;" parent="kcCt1qEZTi8nBflzGKC5-40" vertex="1">
          <mxGeometry width="30" height="30" as="geometry">
            <mxRectangle width="30" height="30" as="alternateBounds" />
          </mxGeometry>
        </mxCell>
        <mxCell id="kcCt1qEZTi8nBflzGKC5-42" value="Row 2" style="shape=partialRectangle;connectable=0;fillColor=none;top=0;left=0;bottom=0;right=0;align=left;spacingLeft=6;overflow=hidden;whiteSpace=wrap;html=1;" parent="kcCt1qEZTi8nBflzGKC5-40" vertex="1">
          <mxGeometry x="30" width="150" height="30" as="geometry">
            <mxRectangle width="150" height="30" as="alternateBounds" />
          </mxGeometry>
        </mxCell>
        <mxCell id="kcCt1qEZTi8nBflzGKC5-43" value="" style="shape=tableRow;horizontal=0;startSize=0;swimlaneHead=0;swimlaneBody=0;fillColor=none;collapsible=0;dropTarget=0;points=[[0,0.5],[1,0.5]];portConstraint=eastwest;top=0;left=0;right=0;bottom=0;" parent="kcCt1qEZTi8nBflzGKC5-33" vertex="1">
          <mxGeometry y="120" width="180" height="30" as="geometry" />
        </mxCell>
        <mxCell id="kcCt1qEZTi8nBflzGKC5-44" value="" style="shape=partialRectangle;connectable=0;fillColor=none;top=0;left=0;bottom=0;right=0;editable=1;overflow=hidden;whiteSpace=wrap;html=1;" parent="kcCt1qEZTi8nBflzGKC5-43" vertex="1">
          <mxGeometry width="30" height="30" as="geometry">
            <mxRectangle width="30" height="30" as="alternateBounds" />
          </mxGeometry>
        </mxCell>
        <mxCell id="kcCt1qEZTi8nBflzGKC5-45" value="Row 3" style="shape=partialRectangle;connectable=0;fillColor=none;top=0;left=0;bottom=0;right=0;align=left;spacingLeft=6;overflow=hidden;whiteSpace=wrap;html=1;" parent="kcCt1qEZTi8nBflzGKC5-43" vertex="1">
          <mxGeometry x="30" width="150" height="30" as="geometry">
            <mxRectangle width="150" height="30" as="alternateBounds" />
          </mxGeometry>
        </mxCell>
        <mxCell id="kcCt1qEZTi8nBflzGKC5-49" value="" style="edgeStyle=orthogonalEdgeStyle;rounded=0;orthogonalLoop=1;jettySize=auto;html=1;endArrow=none;endFill=0;" parent="1" source="kcCt1qEZTi8nBflzGKC5-47" target="kcCt1qEZTi8nBflzGKC5-48" edge="1">
          <mxGeometry relative="1" as="geometry" />
        </mxCell>
        <mxCell id="kcCt1qEZTi8nBflzGKC5-47" value="강의" style="whiteSpace=wrap;html=1;align=center;" parent="1" vertex="1">
          <mxGeometry x="-80" y="2042" width="100" height="40" as="geometry" />
        </mxCell>
        <mxCell id="kcCt1qEZTi8nBflzGKC5-51" value="" style="edgeStyle=orthogonalEdgeStyle;rounded=0;orthogonalLoop=1;jettySize=auto;html=1;startArrow=none;startFill=0;endArrow=none;endFill=0;" parent="1" source="kcCt1qEZTi8nBflzGKC5-48" target="kcCt1qEZTi8nBflzGKC5-50" edge="1">
          <mxGeometry relative="1" as="geometry" />
        </mxCell>
        <mxCell id="kcCt1qEZTi8nBflzGKC5-48" value="수강&lt;br&gt;신청" style="rhombus;whiteSpace=wrap;html=1;" parent="1" vertex="1">
          <mxGeometry x="140.63" y="2032" width="80" height="60" as="geometry" />
        </mxCell>
        <mxCell id="kcCt1qEZTi8nBflzGKC5-50" value="학생" style="whiteSpace=wrap;html=1;" parent="1" vertex="1">
          <mxGeometry x="358.13" y="2042" width="100" height="40" as="geometry" />
        </mxCell>
        <mxCell id="kcCt1qEZTi8nBflzGKC5-54" value="&lt;u&gt;강의ID&lt;/u&gt;" style="ellipse;whiteSpace=wrap;html=1;align=center;" parent="1" vertex="1">
          <mxGeometry x="-165" y="2102" width="45" height="40" as="geometry" />
        </mxCell>
        <mxCell id="kcCt1qEZTi8nBflzGKC5-55" value="강사ID&lt;br&gt;(FK)" style="ellipse;whiteSpace=wrap;html=1;align=center;" parent="1" vertex="1">
          <mxGeometry x="17.5" y="2102" width="45" height="40" as="geometry" />
        </mxCell>
        <mxCell id="kcCt1qEZTi8nBflzGKC5-56" value="강의명" style="ellipse;whiteSpace=wrap;html=1;align=center;" parent="1" vertex="1">
          <mxGeometry x="-75" y="2102" width="45" height="40" as="geometry" />
        </mxCell>
        <mxCell id="kcCt1qEZTi8nBflzGKC5-57" value="Class&lt;br&gt;(FK)" style="ellipse;whiteSpace=wrap;html=1;align=center;" parent="1" vertex="1">
          <mxGeometry x="-30" y="2102" width="45" height="40" as="geometry" />
        </mxCell>
        <mxCell id="kcCt1qEZTi8nBflzGKC5-58" value="&lt;u&gt;강의시간&lt;/u&gt;" style="ellipse;whiteSpace=wrap;html=1;align=center;" parent="1" vertex="1">
          <mxGeometry x="-120" y="2102" width="45" height="40" as="geometry" />
        </mxCell>
        <mxCell id="kcCt1qEZTi8nBflzGKC5-59" value="&lt;u&gt;학생ID&lt;/u&gt;" style="ellipse;whiteSpace=wrap;html=1;align=center;" parent="1" vertex="1">
          <mxGeometry x="335" y="2102" width="45" height="40" as="geometry" />
        </mxCell>
        <mxCell id="kcCt1qEZTi8nBflzGKC5-60" value="이름" style="ellipse;whiteSpace=wrap;html=1;align=center;" parent="1" vertex="1">
          <mxGeometry x="385" y="2102" width="45" height="40" as="geometry" />
        </mxCell>
        <mxCell id="kcCt1qEZTi8nBflzGKC5-61" value="주소" style="ellipse;whiteSpace=wrap;html=1;align=center;" parent="1" vertex="1">
          <mxGeometry x="435" y="2102" width="45" height="40" as="geometry" />
        </mxCell>
        <mxCell id="kcCt1qEZTi8nBflzGKC5-62" value="연락처" style="ellipse;whiteSpace=wrap;html=1;align=center;" parent="1" vertex="1">
          <mxGeometry x="482.5" y="2102" width="45" height="40" as="geometry" />
        </mxCell>
        <mxCell id="kcCt1qEZTi8nBflzGKC5-63" value="N" style="text;html=1;align=center;verticalAlign=middle;resizable=0;points=[];autosize=1;strokeColor=none;fillColor=none;" parent="1" vertex="1">
          <mxGeometry x="119.38" y="2020" width="30" height="30" as="geometry" />
        </mxCell>
        <mxCell id="kcCt1qEZTi8nBflzGKC5-64" value="M" style="text;html=1;align=center;verticalAlign=middle;resizable=0;points=[];autosize=1;strokeColor=none;fillColor=none;" parent="1" vertex="1">
          <mxGeometry x="207.5" y="2020" width="30" height="30" as="geometry" />
        </mxCell>
        <mxCell id="kcCt1qEZTi8nBflzGKC5-65" value="신청ID" style="ellipse;whiteSpace=wrap;html=1;align=center;fontStyle=4" parent="1" vertex="1">
          <mxGeometry x="95.63" y="2102" width="45" height="40" as="geometry" />
        </mxCell>
        <mxCell id="kcCt1qEZTi8nBflzGKC5-66" value="학생ID&lt;br&gt;(FK)" style="ellipse;whiteSpace=wrap;html=1;align=center;" parent="1" vertex="1">
          <mxGeometry x="141.25" y="2102" width="45" height="40" as="geometry" />
        </mxCell>
        <mxCell id="kcCt1qEZTi8nBflzGKC5-68" value="강의ID&lt;br&gt;(FK)" style="ellipse;whiteSpace=wrap;html=1;align=center;" parent="1" vertex="1">
          <mxGeometry x="186.25" y="2102" width="45" height="40" as="geometry" />
        </mxCell>
        <mxCell id="kcCt1qEZTi8nBflzGKC5-69" value="등록&lt;br&gt;날짜" style="ellipse;whiteSpace=wrap;html=1;align=center;" parent="1" vertex="1">
          <mxGeometry x="232.5" y="2102" width="45" height="40" as="geometry" />
        </mxCell>
        <mxCell id="kcCt1qEZTi8nBflzGKC5-70" value="강사" style="whiteSpace=wrap;html=1;align=center;" parent="1" vertex="1">
          <mxGeometry x="-80" y="1870" width="100" height="40" as="geometry" />
        </mxCell>
        <mxCell id="kcCt1qEZTi8nBflzGKC5-71" value="강사ID" style="ellipse;whiteSpace=wrap;html=1;align=center;fontStyle=4" parent="1" vertex="1">
          <mxGeometry x="-120" y="1800" width="45" height="40" as="geometry" />
        </mxCell>
        <mxCell id="kcCt1qEZTi8nBflzGKC5-72" value="강사명" style="ellipse;whiteSpace=wrap;html=1;align=center;" parent="1" vertex="1">
          <mxGeometry x="-75" y="1800" width="45" height="40" as="geometry" />
        </mxCell>
        <mxCell id="kcCt1qEZTi8nBflzGKC5-73" value="연락처" style="ellipse;whiteSpace=wrap;html=1;align=center;" parent="1" vertex="1">
          <mxGeometry x="-30" y="1800" width="45" height="40" as="geometry" />
        </mxCell>
        <mxCell id="kcCt1qEZTi8nBflzGKC5-75" value="가능수업" style="ellipse;whiteSpace=wrap;html=1;align=center;" parent="1" vertex="1">
          <mxGeometry x="15" y="1800" width="45" height="40" as="geometry" />
        </mxCell>
        <mxCell id="kcCt1qEZTi8nBflzGKC5-76" value="수업진행" style="shape=rhombus;perimeter=rhombusPerimeter;whiteSpace=wrap;html=1;align=center;" parent="1" vertex="1">
          <mxGeometry x="-75" y="1940" width="90" height="60" as="geometry" />
        </mxCell>
        <mxCell id="kcCt1qEZTi8nBflzGKC5-78" value="" style="endArrow=none;html=1;rounded=0;entryX=0.5;entryY=1;entryDx=0;entryDy=0;" parent="1" source="kcCt1qEZTi8nBflzGKC5-76" target="kcCt1qEZTi8nBflzGKC5-70" edge="1">
          <mxGeometry width="50" height="50" relative="1" as="geometry">
            <mxPoint x="250" y="2060" as="sourcePoint" />
            <mxPoint x="300" y="2010" as="targetPoint" />
          </mxGeometry>
        </mxCell>
        <mxCell id="kcCt1qEZTi8nBflzGKC5-80" value="" style="endArrow=none;html=1;rounded=0;exitX=0.5;exitY=1;exitDx=0;exitDy=0;" parent="1" source="kcCt1qEZTi8nBflzGKC5-76" target="kcCt1qEZTi8nBflzGKC5-47" edge="1">
          <mxGeometry width="50" height="50" relative="1" as="geometry">
            <mxPoint x="-20" y="1950" as="sourcePoint" />
            <mxPoint x="-20" y="1920" as="targetPoint" />
          </mxGeometry>
        </mxCell>
        <mxCell id="kcCt1qEZTi8nBflzGKC5-81" value="1" style="text;html=1;align=center;verticalAlign=middle;resizable=0;points=[];autosize=1;strokeColor=none;fillColor=none;" parent="1" vertex="1">
          <mxGeometry x="-75" y="1918" width="30" height="30" as="geometry" />
        </mxCell>
        <mxCell id="kcCt1qEZTi8nBflzGKC5-82" value="N" style="text;html=1;align=center;verticalAlign=middle;resizable=0;points=[];autosize=1;strokeColor=none;fillColor=none;" parent="1" vertex="1">
          <mxGeometry x="-75" y="1998" width="30" height="30" as="geometry" />
        </mxCell>
        <mxCell id="kcCt1qEZTi8nBflzGKC5-83" value="강의스펙트럼" style="text;html=1;align=center;verticalAlign=middle;resizable=0;points=[];autosize=1;strokeColor=none;fillColor=none;" parent="1" vertex="1">
          <mxGeometry x="-225" y="1830" width="100" height="30" as="geometry" />
        </mxCell>
        <mxCell id="kcCt1qEZTi8nBflzGKC5-86" value="가능강의목록" style="whiteSpace=wrap;html=1;align=center;" parent="1" vertex="1">
          <mxGeometry x="-370" y="1870" width="100" height="40" as="geometry" />
        </mxCell>
        <mxCell id="kcCt1qEZTi8nBflzGKC5-88" value="" style="edgeStyle=orthogonalEdgeStyle;rounded=0;orthogonalLoop=1;jettySize=auto;html=1;endArrow=none;endFill=0;" parent="1" source="kcCt1qEZTi8nBflzGKC5-87" target="kcCt1qEZTi8nBflzGKC5-86" edge="1">
          <mxGeometry relative="1" as="geometry" />
        </mxCell>
        <mxCell id="kcCt1qEZTi8nBflzGKC5-89" value="" style="edgeStyle=orthogonalEdgeStyle;rounded=0;orthogonalLoop=1;jettySize=auto;html=1;entryX=0;entryY=0.5;entryDx=0;entryDy=0;endArrow=none;endFill=0;" parent="1" source="kcCt1qEZTi8nBflzGKC5-87" target="kcCt1qEZTi8nBflzGKC5-70" edge="1">
          <mxGeometry relative="1" as="geometry" />
        </mxCell>
        <mxCell id="kcCt1qEZTi8nBflzGKC5-87" value="강의가능&lt;br&gt;범위" style="shape=rhombus;perimeter=rhombusPerimeter;whiteSpace=wrap;html=1;align=center;" parent="1" vertex="1">
          <mxGeometry x="-220" y="1860" width="90" height="60" as="geometry" />
        </mxCell>
        <mxCell id="kcCt1qEZTi8nBflzGKC5-90" value="N" style="text;html=1;align=center;verticalAlign=middle;resizable=0;points=[];autosize=1;strokeColor=none;fillColor=none;" parent="1" vertex="1">
          <mxGeometry x="-235" y="1848" width="30" height="30" as="geometry" />
        </mxCell>
        <mxCell id="kcCt1qEZTi8nBflzGKC5-91" value="1" style="text;html=1;align=center;verticalAlign=middle;resizable=0;points=[];autosize=1;strokeColor=none;fillColor=none;" parent="1" vertex="1">
          <mxGeometry x="-140" y="1848" width="30" height="30" as="geometry" />
        </mxCell>
        <mxCell id="kcCt1qEZTi8nBflzGKC5-92" value="강사명" style="ellipse;whiteSpace=wrap;html=1;align=center;" parent="1" vertex="1">
          <mxGeometry x="-75" y="1800" width="45" height="40" as="geometry" />
        </mxCell>
        <mxCell id="kcCt1qEZTi8nBflzGKC5-93" value="강의명" style="ellipse;whiteSpace=wrap;html=1;align=center;" parent="1" vertex="1">
          <mxGeometry x="-320" y="1930" width="45" height="40" as="geometry" />
        </mxCell>
        <mxCell id="kcCt1qEZTi8nBflzGKC5-94" value="커리큘럼" style="ellipse;whiteSpace=wrap;html=1;align=center;" parent="1" vertex="1">
          <mxGeometry x="-272.5" y="1930" width="45" height="40" as="geometry" />
        </mxCell>
        <mxCell id="kcCt1qEZTi8nBflzGKC5-95" value="가능강의ID" style="ellipse;whiteSpace=wrap;html=1;align=center;" parent="1" vertex="1">
          <mxGeometry x="-411.25" y="1930" width="45" height="40" as="geometry" />
        </mxCell>
        <mxCell id="kcCt1qEZTi8nBflzGKC5-96" value="사용&lt;br&gt;교재" style="ellipse;whiteSpace=wrap;html=1;align=center;" parent="1" vertex="1">
          <mxGeometry x="-227.5" y="1930" width="45" height="40" as="geometry" />
        </mxCell>
        <mxCell id="kcCt1qEZTi8nBflzGKC5-97" value="강의커리큘럼" style="whiteSpace=wrap;html=1;align=center;" parent="1" vertex="1">
          <mxGeometry x="-370" y="1690" width="100" height="40" as="geometry" />
        </mxCell>
        <mxCell id="kcCt1qEZTi8nBflzGKC5-98" value="Chapter" style="ellipse;whiteSpace=wrap;html=1;align=center;" parent="1" vertex="1">
          <mxGeometry x="-318.12" y="1638" width="45" height="40" as="geometry" />
        </mxCell>
        <mxCell id="kcCt1qEZTi8nBflzGKC5-99" value="기본설명" style="ellipse;whiteSpace=wrap;html=1;align=center;" parent="1" vertex="1">
          <mxGeometry x="-226.87" y="1638" width="45" height="40" as="geometry" />
        </mxCell>
        <mxCell id="kcCt1qEZTi8nBflzGKC5-100" value="학습목표" style="ellipse;whiteSpace=wrap;html=1;align=center;" parent="1" vertex="1">
          <mxGeometry x="-273.12" y="1638" width="45" height="40" as="geometry" />
        </mxCell>
        <mxCell id="kcCt1qEZTi8nBflzGKC5-101" value="&lt;u&gt;CURID&lt;/u&gt;" style="ellipse;whiteSpace=wrap;html=1;align=center;" parent="1" vertex="1">
          <mxGeometry x="-425" y="1638" width="45" height="40" as="geometry" />
        </mxCell>
        <mxCell id="kcCt1qEZTi8nBflzGKC5-103" value="" style="edgeStyle=orthogonalEdgeStyle;rounded=0;orthogonalLoop=1;jettySize=auto;html=1;endArrow=none;endFill=0;" parent="1" source="kcCt1qEZTi8nBflzGKC5-102" edge="1">
          <mxGeometry relative="1" as="geometry">
            <mxPoint x="-320" y="1870" as="targetPoint" />
          </mxGeometry>
        </mxCell>
        <mxCell id="kcCt1qEZTi8nBflzGKC5-104" value="" style="edgeStyle=orthogonalEdgeStyle;rounded=0;orthogonalLoop=1;jettySize=auto;html=1;endArrow=none;endFill=0;entryX=0.5;entryY=1;entryDx=0;entryDy=0;" parent="1" source="kcCt1qEZTi8nBflzGKC5-102" target="kcCt1qEZTi8nBflzGKC5-97" edge="1">
          <mxGeometry relative="1" as="geometry">
            <mxPoint x="-320" y="1740" as="targetPoint" />
          </mxGeometry>
        </mxCell>
        <mxCell id="kcCt1qEZTi8nBflzGKC5-102" value="상세설명" style="shape=rhombus;perimeter=rhombusPerimeter;whiteSpace=wrap;html=1;align=center;" parent="1" vertex="1">
          <mxGeometry x="-365" y="1770" width="90" height="60" as="geometry" />
        </mxCell>
        <mxCell id="kcCt1qEZTi8nBflzGKC5-105" value="1" style="text;html=1;align=center;verticalAlign=middle;resizable=0;points=[];autosize=1;strokeColor=none;fillColor=none;" parent="1" vertex="1">
          <mxGeometry x="-351.25" y="1830" width="30" height="30" as="geometry" />
        </mxCell>
        <mxCell id="kcCt1qEZTi8nBflzGKC5-106" value="강사&lt;br&gt;ID(FK)" style="ellipse;whiteSpace=wrap;html=1;align=center;" parent="1" vertex="1">
          <mxGeometry x="-366.25" y="1930" width="45" height="40" as="geometry" />
        </mxCell>
        <mxCell id="kcCt1qEZTi8nBflzGKC5-107" value="1" style="text;html=1;align=center;verticalAlign=middle;resizable=0;points=[];autosize=1;strokeColor=none;fillColor=none;" parent="1" vertex="1">
          <mxGeometry x="-351.25" y="1750" width="30" height="30" as="geometry" />
        </mxCell>
        <mxCell id="kcCt1qEZTi8nBflzGKC5-108" value="Chapter" style="ellipse;whiteSpace=wrap;html=1;align=center;" parent="1" vertex="1">
          <mxGeometry x="-318.12" y="1638" width="45" height="40" as="geometry" />
        </mxCell>
        <mxCell id="kcCt1qEZTi8nBflzGKC5-109" value="가능강의ID(FK)" style="ellipse;whiteSpace=wrap;html=1;align=center;" parent="1" vertex="1">
          <mxGeometry x="-380" y="1638" width="61.88" height="40" as="geometry" />
        </mxCell>
        <mxCell id="kcCt1qEZTi8nBflzGKC5-110" value="강의장" style="whiteSpace=wrap;html=1;align=center;" parent="1" vertex="1">
          <mxGeometry x="-386.25" y="2042" width="100" height="40" as="geometry" />
        </mxCell>
        <mxCell id="kcCt1qEZTi8nBflzGKC5-111" value="&lt;u&gt;Class&lt;/u&gt;" style="ellipse;whiteSpace=wrap;html=1;align=center;" parent="1" vertex="1">
          <mxGeometry x="-426.25" y="2110" width="45" height="40" as="geometry" />
        </mxCell>
        <mxCell id="kcCt1qEZTi8nBflzGKC5-112" value="수용인원" style="ellipse;whiteSpace=wrap;html=1;align=center;" parent="1" vertex="1">
          <mxGeometry x="-381.25" y="2110" width="45" height="40" as="geometry" />
        </mxCell>
        <mxCell id="kcCt1qEZTi8nBflzGKC5-113" value="컴퓨터수" style="ellipse;whiteSpace=wrap;html=1;align=center;" parent="1" vertex="1">
          <mxGeometry x="-336.25" y="2110" width="45" height="40" as="geometry" />
        </mxCell>
        <mxCell id="kcCt1qEZTi8nBflzGKC5-114" value="위치&lt;br&gt;설명" style="ellipse;whiteSpace=wrap;html=1;align=center;" parent="1" vertex="1">
          <mxGeometry x="-291.25" y="2110" width="45" height="40" as="geometry" />
        </mxCell>
        <mxCell id="kcCt1qEZTi8nBflzGKC5-116" value="" style="edgeStyle=orthogonalEdgeStyle;rounded=0;orthogonalLoop=1;jettySize=auto;html=1;endArrow=none;endFill=0;" parent="1" source="kcCt1qEZTi8nBflzGKC5-115" target="kcCt1qEZTi8nBflzGKC5-110" edge="1">
          <mxGeometry relative="1" as="geometry" />
        </mxCell>
        <mxCell id="kcCt1qEZTi8nBflzGKC5-117" value="" style="edgeStyle=orthogonalEdgeStyle;rounded=0;orthogonalLoop=1;jettySize=auto;html=1;entryX=0;entryY=0.5;entryDx=0;entryDy=0;endArrow=none;endFill=0;" parent="1" source="kcCt1qEZTi8nBflzGKC5-115" target="kcCt1qEZTi8nBflzGKC5-47" edge="1">
          <mxGeometry relative="1" as="geometry" />
        </mxCell>
        <mxCell id="kcCt1qEZTi8nBflzGKC5-115" value="장소" style="shape=rhombus;perimeter=rhombusPerimeter;whiteSpace=wrap;html=1;align=center;" parent="1" vertex="1">
          <mxGeometry x="-230" y="2032" width="90" height="60" as="geometry" />
        </mxCell>
        <mxCell id="kcCt1qEZTi8nBflzGKC5-118" value="도서관리 프로그램 관련 ERD 를 설계&lt;br&gt;" style="text;html=1;align=center;verticalAlign=middle;resizable=0;points=[];autosize=1;strokeColor=none;fillColor=none;" parent="1" vertex="1">
          <mxGeometry x="-350" y="2260" width="220" height="30" as="geometry" />
        </mxCell>
        <mxCell id="kcCt1qEZTi8nBflzGKC5-126" value="도서" style="rounded=0;whiteSpace=wrap;html=1;" parent="1" vertex="1">
          <mxGeometry x="-317.5" y="2580" width="120" height="60" as="geometry" />
        </mxCell>
        <mxCell id="kcCt1qEZTi8nBflzGKC5-127" value="회원" style="rounded=0;whiteSpace=wrap;html=1;" parent="1" vertex="1">
          <mxGeometry x="288.75" y="2580" width="120" height="60" as="geometry" />
        </mxCell>
        <mxCell id="kcCt1qEZTi8nBflzGKC5-137" value="" style="edgeStyle=orthogonalEdgeStyle;rounded=0;orthogonalLoop=1;jettySize=auto;html=1;endArrow=none;endFill=0;" parent="1" source="kcCt1qEZTi8nBflzGKC5-128" target="kcCt1qEZTi8nBflzGKC5-126" edge="1">
          <mxGeometry relative="1" as="geometry" />
        </mxCell>
        <mxCell id="kcCt1qEZTi8nBflzGKC5-138" value="" style="edgeStyle=orthogonalEdgeStyle;rounded=0;orthogonalLoop=1;jettySize=auto;html=1;endArrow=none;endFill=0;" parent="1" source="kcCt1qEZTi8nBflzGKC5-128" target="kcCt1qEZTi8nBflzGKC5-127" edge="1">
          <mxGeometry relative="1" as="geometry" />
        </mxCell>
        <mxCell id="kcCt1qEZTi8nBflzGKC5-128" value="대여" style="rhombus;whiteSpace=wrap;html=1;" parent="1" vertex="1">
          <mxGeometry x="10" y="2570" width="80" height="80" as="geometry" />
        </mxCell>
        <mxCell id="kcCt1qEZTi8nBflzGKC5-129" value="예약" style="rhombus;whiteSpace=wrap;html=1;" parent="1" vertex="1">
          <mxGeometry x="5" y="2820" width="80" height="80" as="geometry" />
        </mxCell>
        <mxCell id="kcCt1qEZTi8nBflzGKC5-156" value="" style="edgeStyle=orthogonalEdgeStyle;rounded=0;orthogonalLoop=1;jettySize=auto;html=1;endArrow=none;endFill=0;" parent="1" source="kcCt1qEZTi8nBflzGKC5-130" target="kcCt1qEZTi8nBflzGKC5-134" edge="1">
          <mxGeometry relative="1" as="geometry" />
        </mxCell>
        <mxCell id="kcCt1qEZTi8nBflzGKC5-130" value="사서" style="rounded=0;whiteSpace=wrap;html=1;" parent="1" vertex="1">
          <mxGeometry x="288.75" y="2430" width="120" height="60" as="geometry" />
        </mxCell>
        <mxCell id="kcCt1qEZTi8nBflzGKC5-157" value="" style="edgeStyle=orthogonalEdgeStyle;rounded=0;orthogonalLoop=1;jettySize=auto;html=1;endArrow=none;endFill=0;" parent="1" source="kcCt1qEZTi8nBflzGKC5-134" target="kcCt1qEZTi8nBflzGKC5-128" edge="1">
          <mxGeometry relative="1" as="geometry" />
        </mxCell>
        <mxCell id="kcCt1qEZTi8nBflzGKC5-134" value="대여승인" style="rhombus;whiteSpace=wrap;html=1;" parent="1" vertex="1">
          <mxGeometry x="10" y="2420" width="80" height="80" as="geometry" />
        </mxCell>
        <mxCell id="kcCt1qEZTi8nBflzGKC5-135" value="1" style="text;html=1;align=center;verticalAlign=middle;resizable=0;points=[];autosize=1;strokeColor=none;fillColor=none;" parent="1" vertex="1">
          <mxGeometry x="-150" y="2028" width="30" height="30" as="geometry" />
        </mxCell>
        <mxCell id="kcCt1qEZTi8nBflzGKC5-136" value="1" style="text;html=1;align=center;verticalAlign=middle;resizable=0;points=[];autosize=1;strokeColor=none;fillColor=none;" parent="1" vertex="1">
          <mxGeometry x="-250" y="2028" width="30" height="30" as="geometry" />
        </mxCell>
        <mxCell id="kcCt1qEZTi8nBflzGKC5-139" value="ISBN" style="ellipse;whiteSpace=wrap;html=1;align=center;" parent="1" vertex="1">
          <mxGeometry x="-332.5" y="2670" width="45" height="40" as="geometry" />
        </mxCell>
        <mxCell id="kcCt1qEZTi8nBflzGKC5-140" value="도서명" style="ellipse;whiteSpace=wrap;html=1;align=center;" parent="1" vertex="1">
          <mxGeometry x="-280" y="2670" width="45" height="40" as="geometry" />
        </mxCell>
        <mxCell id="kcCt1qEZTi8nBflzGKC5-141" value="출판사" style="ellipse;whiteSpace=wrap;html=1;align=center;" parent="1" vertex="1">
          <mxGeometry x="-230" y="2670" width="45" height="40" as="geometry" />
        </mxCell>
        <mxCell id="kcCt1qEZTi8nBflzGKC5-142" value="페이지수" style="ellipse;whiteSpace=wrap;html=1;align=center;" parent="1" vertex="1">
          <mxGeometry x="-175" y="2670" width="45" height="40" as="geometry" />
        </mxCell>
        <mxCell id="kcCt1qEZTi8nBflzGKC5-143" value="도서ID" style="ellipse;whiteSpace=wrap;html=1;align=center;fontStyle=4" parent="1" vertex="1">
          <mxGeometry x="-385" y="2670" width="45" height="40" as="geometry" />
        </mxCell>
        <mxCell id="kcCt1qEZTi8nBflzGKC5-144" value="도서ID" style="ellipse;whiteSpace=wrap;html=1;align=center;fontStyle=4" parent="1" vertex="1">
          <mxGeometry x="-385" y="2670" width="45" height="40" as="geometry" />
        </mxCell>
        <mxCell id="kcCt1qEZTi8nBflzGKC5-145" value="회원ID" style="ellipse;whiteSpace=wrap;html=1;align=center;fontStyle=4" parent="1" vertex="1">
          <mxGeometry x="273.75" y="2660" width="45" height="40" as="geometry" />
        </mxCell>
        <mxCell id="kcCt1qEZTi8nBflzGKC5-146" value="이름" style="ellipse;whiteSpace=wrap;html=1;align=center;" parent="1" vertex="1">
          <mxGeometry x="321.25" y="2660" width="45" height="40" as="geometry" />
        </mxCell>
        <mxCell id="kcCt1qEZTi8nBflzGKC5-147" value="연락처" style="ellipse;whiteSpace=wrap;html=1;align=center;" parent="1" vertex="1">
          <mxGeometry x="371.25" y="2660" width="45" height="40" as="geometry" />
        </mxCell>
        <mxCell id="kcCt1qEZTi8nBflzGKC5-148" value="주소" style="ellipse;whiteSpace=wrap;html=1;align=center;" parent="1" vertex="1">
          <mxGeometry x="425" y="2660" width="45" height="40" as="geometry" />
        </mxCell>
        <mxCell id="kcCt1qEZTi8nBflzGKC5-149" value="대여ID" style="ellipse;whiteSpace=wrap;html=1;align=center;fontStyle=4" parent="1" vertex="1">
          <mxGeometry x="-91.25" y="2670" width="45" height="40" as="geometry" />
        </mxCell>
        <mxCell id="kcCt1qEZTi8nBflzGKC5-150" value="회원ID&lt;br&gt;(FK)" style="ellipse;whiteSpace=wrap;html=1;align=center;fontStyle=0" parent="1" vertex="1">
          <mxGeometry x="-46.25" y="2670" width="45" height="40" as="geometry" />
        </mxCell>
        <mxCell id="kcCt1qEZTi8nBflzGKC5-151" value="도서ID&lt;br&gt;(FK)" style="ellipse;whiteSpace=wrap;html=1;align=center;fontStyle=0" parent="1" vertex="1">
          <mxGeometry x="-1.25" y="2670" width="45" height="40" as="geometry" />
        </mxCell>
        <mxCell id="kcCt1qEZTi8nBflzGKC5-152" value="요청&lt;br&gt;DATE" style="ellipse;whiteSpace=wrap;html=1;align=center;fontStyle=0" parent="1" vertex="1">
          <mxGeometry x="43.75" y="2670" width="45" height="40" as="geometry" />
        </mxCell>
        <mxCell id="kcCt1qEZTi8nBflzGKC5-153" value="승인&lt;br&gt;DATE" style="ellipse;whiteSpace=wrap;html=1;align=center;fontStyle=0" parent="1" vertex="1">
          <mxGeometry x="88.75" y="2670" width="45" height="40" as="geometry" />
        </mxCell>
        <mxCell id="kcCt1qEZTi8nBflzGKC5-154" value="사서ID&lt;br&gt;(FK)" style="ellipse;whiteSpace=wrap;html=1;align=center;fontStyle=0" parent="1" vertex="1">
          <mxGeometry x="133.75" y="2670" width="45" height="40" as="geometry" />
        </mxCell>
        <mxCell id="kcCt1qEZTi8nBflzGKC5-155" value="승인여부" style="ellipse;whiteSpace=wrap;html=1;align=center;fontStyle=0" parent="1" vertex="1">
          <mxGeometry x="180.63" y="2670" width="45" height="40" as="geometry" />
        </mxCell>
        <mxCell id="kcCt1qEZTi8nBflzGKC5-158" value="1" style="text;html=1;align=center;verticalAlign=middle;resizable=0;points=[];autosize=1;strokeColor=none;fillColor=none;" parent="1" vertex="1">
          <mxGeometry x="75" y="2418" width="30" height="30" as="geometry" />
        </mxCell>
        <mxCell id="kcCt1qEZTi8nBflzGKC5-159" value="N" style="text;html=1;align=center;verticalAlign=middle;resizable=0;points=[];autosize=1;strokeColor=none;fillColor=none;" parent="1" vertex="1">
          <mxGeometry x="43.75" y="2500" width="30" height="30" as="geometry" />
        </mxCell>
        <mxCell id="kcCt1qEZTi8nBflzGKC5-160" value="1" style="text;html=1;align=center;verticalAlign=middle;resizable=0;points=[];autosize=1;strokeColor=none;fillColor=none;" parent="1" vertex="1">
          <mxGeometry x="88.75" y="2570" width="30" height="30" as="geometry" />
        </mxCell>
        <mxCell id="kcCt1qEZTi8nBflzGKC5-161" value="N" style="text;html=1;align=center;verticalAlign=middle;resizable=0;points=[];autosize=1;strokeColor=none;fillColor=none;" parent="1" vertex="1">
          <mxGeometry x="-15" y="2570" width="30" height="30" as="geometry" />
        </mxCell>
        <mxCell id="kcCt1qEZTi8nBflzGKC5-162" value="사서ID" style="ellipse;whiteSpace=wrap;html=1;align=center;fontStyle=4" parent="1" vertex="1">
          <mxGeometry x="262.5" y="2360" width="45" height="40" as="geometry" />
        </mxCell>
        <mxCell id="kcCt1qEZTi8nBflzGKC5-163" value="이름" style="ellipse;whiteSpace=wrap;html=1;align=center;" parent="1" vertex="1">
          <mxGeometry x="307.5" y="2360" width="45" height="40" as="geometry" />
        </mxCell>
        <mxCell id="kcCt1qEZTi8nBflzGKC5-164" value="연락처" style="ellipse;whiteSpace=wrap;html=1;align=center;" parent="1" vertex="1">
          <mxGeometry x="352.5" y="2360" width="45" height="40" as="geometry" />
        </mxCell>
        <mxCell id="kcCt1qEZTi8nBflzGKC5-165" value="주소" style="ellipse;whiteSpace=wrap;html=1;align=center;" parent="1" vertex="1">
          <mxGeometry x="400" y="2360" width="45" height="40" as="geometry" />
        </mxCell>
        <mxCell id="kcCt1qEZTi8nBflzGKC5-166" value="" style="endArrow=none;html=1;rounded=0;entryX=0.5;entryY=1;entryDx=0;entryDy=0;" parent="1" target="kcCt1qEZTi8nBflzGKC5-127" edge="1">
          <mxGeometry width="50" height="50" relative="1" as="geometry">
            <mxPoint x="352" y="2860" as="sourcePoint" />
            <mxPoint x="350.0000000000005" y="2649.9999999999995" as="targetPoint" />
          </mxGeometry>
        </mxCell>
        <mxCell id="kcCt1qEZTi8nBflzGKC5-167" value="" style="endArrow=none;html=1;rounded=0;entryX=1;entryY=1;entryDx=0;entryDy=0;" parent="1" edge="1">
          <mxGeometry width="50" height="50" relative="1" as="geometry">
            <mxPoint x="-257.84" y="2860" as="sourcePoint" />
            <mxPoint x="-257.4599999999995" y="2640" as="targetPoint" />
          </mxGeometry>
        </mxCell>
        <mxCell id="kcCt1qEZTi8nBflzGKC5-169" value="N" style="text;html=1;align=center;verticalAlign=middle;resizable=0;points=[];autosize=1;strokeColor=none;fillColor=none;" parent="1" vertex="1">
          <mxGeometry x="-15" y="2830" width="30" height="30" as="geometry" />
        </mxCell>
        <mxCell id="kcCt1qEZTi8nBflzGKC5-170" value="M" style="text;html=1;align=center;verticalAlign=middle;resizable=0;points=[];autosize=1;strokeColor=none;fillColor=none;" parent="1" vertex="1">
          <mxGeometry x="80" y="2830" width="30" height="30" as="geometry" />
        </mxCell>
        <mxCell id="kcCt1qEZTi8nBflzGKC5-172" value="" style="endArrow=none;html=1;rounded=0;entryX=0;entryY=0.5;entryDx=0;entryDy=0;" parent="1" edge="1">
          <mxGeometry width="50" height="50" relative="1" as="geometry">
            <mxPoint x="-260" y="2860" as="sourcePoint" />
            <mxPoint x="-1.25" y="2860" as="targetPoint" />
          </mxGeometry>
        </mxCell>
        <mxCell id="kcCt1qEZTi8nBflzGKC5-173" value="" style="endArrow=none;html=1;rounded=0;" parent="1" edge="1">
          <mxGeometry width="50" height="50" relative="1" as="geometry">
            <mxPoint x="90" y="2859.66" as="sourcePoint" />
            <mxPoint x="349" y="2860" as="targetPoint" />
          </mxGeometry>
        </mxCell>
        <mxCell id="kcCt1qEZTi8nBflzGKC5-174" value="예약ID" style="ellipse;whiteSpace=wrap;html=1;align=center;fontStyle=4" parent="1" vertex="1">
          <mxGeometry x="-60" y="2910" width="45" height="40" as="geometry" />
        </mxCell>
        <mxCell id="kcCt1qEZTi8nBflzGKC5-175" value="회원ID&lt;br&gt;(FK)" style="ellipse;whiteSpace=wrap;html=1;align=center;fontStyle=0" parent="1" vertex="1">
          <mxGeometry x="-13.75" y="2910" width="45" height="40" as="geometry" />
        </mxCell>
        <mxCell id="kcCt1qEZTi8nBflzGKC5-176" value="도서ID&lt;br&gt;(FK)" style="ellipse;whiteSpace=wrap;html=1;align=center;fontStyle=0" parent="1" vertex="1">
          <mxGeometry x="35" y="2910" width="45" height="40" as="geometry" />
        </mxCell>
        <mxCell id="kcCt1qEZTi8nBflzGKC5-177" value="예약&lt;br&gt;DATE" style="ellipse;whiteSpace=wrap;html=1;align=center;fontStyle=0" parent="1" vertex="1">
          <mxGeometry x="79.38" y="2910" width="45" height="40" as="geometry" />
        </mxCell>
        <mxCell id="kcCt1qEZTi8nBflzGKC5-178" value="우선순위" style="ellipse;whiteSpace=wrap;html=1;align=center;fontStyle=0" parent="1" vertex="1">
          <mxGeometry x="127.5" y="2910" width="45" height="40" as="geometry" />
        </mxCell>
        <mxCell id="kcCt1qEZTi8nBflzGKC5-179" value="반납상태" style="ellipse;whiteSpace=wrap;html=1;align=center;fontStyle=0" parent="1" vertex="1">
          <mxGeometry x="2.500000000000001" y="2720" width="45" height="40" as="geometry" />
        </mxCell>
        <mxCell id="kcCt1qEZTi8nBflzGKC5-180" value="반납일자" style="ellipse;whiteSpace=wrap;html=1;align=center;fontStyle=0" parent="1" vertex="1">
          <mxGeometry x="-46.25" y="2720" width="45" height="40" as="geometry" />
        </mxCell>
      </root>
    </mxGraphModel>
  </diagram>
  <diagram id="927LDZvaml1dnFf4n_Ik" name="[문제] 1:1">
    <mxGraphModel dx="2234" dy="3980" grid="1" gridSize="10" guides="1" tooltips="1" connect="1" arrows="1" fold="1" page="0" pageScale="1" pageWidth="3300" pageHeight="4681" math="0" shadow="0">
      <root>
        <mxCell id="0" />
        <mxCell id="1" parent="0" />
        <mxCell id="KCEZZPcYSzE8cfgpKxNv-1" value="&lt;h4&gt;&lt;strong&gt;사용자와 프로필&lt;/strong&gt;&lt;/h4&gt;&lt;ul&gt;&lt;li&gt;&lt;strong&gt;엔터티&lt;/strong&gt;: 사용자(User), 프로필(Profile)&lt;/li&gt;&lt;li&gt;&lt;strong&gt;관계&lt;/strong&gt;: 소유(Owns)&lt;ul&gt;&lt;li&gt;한 사용자는 하나의 프로필을 가지고, 한 프로필은 한 사용자만 소유합니다.&lt;/li&gt;&lt;/ul&gt;&lt;/li&gt;&lt;/ul&gt;" style="text;html=1;align=center;verticalAlign=middle;resizable=0;points=[];autosize=1;strokeColor=none;fillColor=none;fontSize=16;" parent="1" vertex="1">
          <mxGeometry x="-600" y="-1830" width="630" height="150" as="geometry" />
        </mxCell>
        <mxCell id="KCEZZPcYSzE8cfgpKxNv-2" value="&lt;h4&gt;&lt;strong&gt;직원과 사원증&lt;/strong&gt;&lt;/h4&gt;&lt;ul&gt;&lt;li&gt;&lt;strong&gt;엔터티&lt;/strong&gt;: 직원(Employee), 사원증(Badge)&lt;/li&gt;&lt;li&gt;&lt;strong&gt;관계&lt;/strong&gt;: 발급(Assigned)&lt;ul&gt;&lt;li&gt;한 직원은 하나의 사원증만 발급받으며, 하나의 사원증은 한 직원만 소유합니다.&lt;/li&gt;&lt;/ul&gt;&lt;/li&gt;&lt;/ul&gt;" style="text;html=1;align=center;verticalAlign=middle;resizable=0;points=[];autosize=1;strokeColor=none;fillColor=none;fontSize=16;" parent="1" vertex="1">
          <mxGeometry x="-630" y="-2940" width="660" height="150" as="geometry" />
        </mxCell>
        <mxCell id="KCEZZPcYSzE8cfgpKxNv-3" value="&lt;h4&gt;&lt;strong&gt;차량과 차량등록증&lt;/strong&gt;&lt;/h4&gt;&lt;ul&gt;&lt;li&gt;&lt;strong&gt;엔터티&lt;/strong&gt;: 차량(Car), 차량등록증(Registration)&lt;/li&gt;&lt;li&gt;&lt;strong&gt;관계&lt;/strong&gt;: 등록(Has)&lt;ul&gt;&lt;li&gt;한 차량에는 하나의 등록증이 있고, 하나의 등록증은 한 차량만을 가리킵니다.&lt;/li&gt;&lt;/ul&gt;&lt;/li&gt;&lt;/ul&gt;" style="text;html=1;align=center;verticalAlign=middle;resizable=0;points=[];autosize=1;strokeColor=none;fillColor=none;fontSize=16;" parent="1" vertex="1">
          <mxGeometry x="-620" y="-1450" width="650" height="150" as="geometry" />
        </mxCell>
        <mxCell id="KCEZZPcYSzE8cfgpKxNv-4" value="&lt;h4&gt;&lt;strong&gt;사람과 주민등록번호&lt;/strong&gt;&lt;/h4&gt;&lt;ul&gt;&lt;li&gt;&lt;strong&gt;엔터티&lt;/strong&gt;: 사람(Person), 주민등록번호(SSN)&lt;/li&gt;&lt;li&gt;&lt;strong&gt;관계&lt;/strong&gt;: 할당(Assigned)&lt;ul&gt;&lt;li&gt;한 사람은 하나의 주민등록번호만 가지고, 하나의 주민등록번호는 한 사람만 가리킵니다.&lt;/li&gt;&lt;/ul&gt;&lt;/li&gt;&lt;/ul&gt;" style="text;html=1;align=center;verticalAlign=middle;resizable=0;points=[];autosize=1;strokeColor=none;fillColor=none;fontSize=16;" parent="1" vertex="1">
          <mxGeometry x="-670" y="-1240" width="730" height="150" as="geometry" />
        </mxCell>
        <mxCell id="kVvRu0jMYF7WgkBRkMRz-1" value="&lt;font style=&quot;font-size: 21px;&quot;&gt;Chan / Craw&#39;s Foot 모델 각각 만들어보시고&amp;nbsp;&lt;br&gt;각 항목에 맞는 프로젝트 주제를 잡아봅니다&lt;/font&gt;&lt;div&gt;&lt;font style=&quot;font-size: 21px;&quot;&gt;(예. &#39;사용자와 프로필&#39; 문제인 경우 해당 데이터를 저장할 DB명을 &#39;쇼핑몰DB&#39; 로 지정하고 시작할 수 있습니다)&lt;/font&gt;&lt;/div&gt;&lt;div&gt;&lt;font style=&quot;font-size: 21px;&quot;&gt;주제를 정한다음 해당 주제에 맞게 각 엔티티(Table)에 저장 할 속성(컬럼) 과 PK , FK 를 지정해봅니다&lt;/font&gt;&lt;/div&gt;&lt;div&gt;&lt;font style=&quot;font-size: 21px;&quot;&gt;자유롭게 해보시면 됩니다&lt;/font&gt;&lt;/div&gt;" style="text;html=1;align=left;verticalAlign=middle;resizable=0;points=[];autosize=1;strokeColor=none;fillColor=none;fontSize=16;" parent="1" vertex="1">
          <mxGeometry x="-615" y="-2080" width="1040" height="140" as="geometry" />
        </mxCell>
        <mxCell id="gIN66zauMVXj3U1OCYUz-3" value="&lt;div style=&quot;line-height: 130%;&quot;&gt;직원&lt;/div&gt;" style="verticalLabelPosition=middle;verticalAlign=middle;html=1;shape=mxgraph.basic.rect;fillColor2=none;strokeWidth=1;size=20;indent=5;align=center;horizontal=1;labelPosition=center;" vertex="1" parent="1">
          <mxGeometry x="-680" y="-2680" width="120" height="60" as="geometry" />
        </mxCell>
        <mxCell id="gIN66zauMVXj3U1OCYUz-4" value="사원증" style="verticalLabelPosition=middle;verticalAlign=middle;html=1;shape=mxgraph.basic.rect;fillColor2=none;strokeWidth=1;size=20;indent=5;labelPosition=center;align=center;" vertex="1" parent="1">
          <mxGeometry x="-50" y="-2680" width="120" height="60" as="geometry" />
        </mxCell>
        <mxCell id="gIN66zauMVXj3U1OCYUz-6" value="발급" style="html=1;whiteSpace=wrap;aspect=fixed;shape=isoRectangle;" vertex="1" parent="1">
          <mxGeometry x="-370" y="-2695" width="150" height="90" as="geometry" />
        </mxCell>
        <mxCell id="gIN66zauMVXj3U1OCYUz-7" value="" style="endArrow=none;html=1;rounded=0;entryX=0.013;entryY=0.511;entryDx=0;entryDy=0;entryPerimeter=0;exitX=0.983;exitY=0.517;exitDx=0;exitDy=0;exitPerimeter=0;" edge="1" parent="1" source="gIN66zauMVXj3U1OCYUz-3" target="gIN66zauMVXj3U1OCYUz-6">
          <mxGeometry width="50" height="50" relative="1" as="geometry">
            <mxPoint x="-508" y="-2650" as="sourcePoint" />
            <mxPoint x="-100" y="-2400" as="targetPoint" />
          </mxGeometry>
        </mxCell>
        <mxCell id="gIN66zauMVXj3U1OCYUz-8" value="" style="endArrow=none;html=1;rounded=0;exitX=1;exitY=0.511;exitDx=0;exitDy=0;exitPerimeter=0;entryX=0;entryY=0.533;entryDx=0;entryDy=0;entryPerimeter=0;" edge="1" parent="1" source="gIN66zauMVXj3U1OCYUz-6" target="gIN66zauMVXj3U1OCYUz-4">
          <mxGeometry width="50" height="50" relative="1" as="geometry">
            <mxPoint x="-150" y="-2350" as="sourcePoint" />
            <mxPoint x="-100" y="-2400" as="targetPoint" />
          </mxGeometry>
        </mxCell>
        <mxCell id="gIN66zauMVXj3U1OCYUz-10" value="이름" style="ellipse;whiteSpace=wrap;html=1;aspect=fixed;" vertex="1" parent="1">
          <mxGeometry x="-680" y="-2580" width="50" height="50" as="geometry" />
        </mxCell>
        <mxCell id="gIN66zauMVXj3U1OCYUz-11" value="주소" style="ellipse;whiteSpace=wrap;html=1;aspect=fixed;" vertex="1" parent="1">
          <mxGeometry x="-620" y="-2580" width="50" height="50" as="geometry" />
        </mxCell>
        <mxCell id="gIN66zauMVXj3U1OCYUz-12" value="부서" style="ellipse;whiteSpace=wrap;html=1;aspect=fixed;" vertex="1" parent="1">
          <mxGeometry x="-560" y="-2580" width="50" height="50" as="geometry" />
        </mxCell>
        <mxCell id="gIN66zauMVXj3U1OCYUz-13" value="발급코드&lt;div&gt;PK&lt;/div&gt;" style="ellipse;whiteSpace=wrap;html=1;aspect=fixed;fontStyle=4" vertex="1" parent="1">
          <mxGeometry x="-45" y="-2590" width="50" height="50" as="geometry" />
        </mxCell>
        <mxCell id="gIN66zauMVXj3U1OCYUz-14" value="&lt;u&gt;직원ID&lt;/u&gt;&lt;div&gt;&lt;u&gt;FK&lt;/u&gt;&lt;/div&gt;" style="ellipse;whiteSpace=wrap;html=1;aspect=fixed;" vertex="1" parent="1">
          <mxGeometry x="15" y="-2590" width="50" height="50" as="geometry" />
        </mxCell>
        <mxCell id="gIN66zauMVXj3U1OCYUz-24" value="직원" style="shape=table;startSize=30;container=1;collapsible=1;childLayout=tableLayout;fixedRows=1;rowLines=0;fontStyle=1;align=center;resizeLast=1;html=1;" vertex="1" parent="1">
          <mxGeometry x="-720" y="-2470" width="190" height="180" as="geometry" />
        </mxCell>
        <mxCell id="gIN66zauMVXj3U1OCYUz-25" value="" style="shape=tableRow;horizontal=0;startSize=0;swimlaneHead=0;swimlaneBody=0;fillColor=none;collapsible=0;dropTarget=0;points=[[0,0.5],[1,0.5]];portConstraint=eastwest;top=0;left=0;right=0;bottom=1;" vertex="1" parent="gIN66zauMVXj3U1OCYUz-24">
          <mxGeometry y="30" width="190" height="30" as="geometry" />
        </mxCell>
        <mxCell id="gIN66zauMVXj3U1OCYUz-26" value="PK" style="shape=partialRectangle;connectable=0;fillColor=none;top=0;left=0;bottom=0;right=0;fontStyle=1;overflow=hidden;whiteSpace=wrap;html=1;" vertex="1" parent="gIN66zauMVXj3U1OCYUz-25">
          <mxGeometry width="30" height="30" as="geometry">
            <mxRectangle width="30" height="30" as="alternateBounds" />
          </mxGeometry>
        </mxCell>
        <mxCell id="gIN66zauMVXj3U1OCYUz-27" value="직원ID" style="shape=partialRectangle;connectable=0;fillColor=none;top=0;left=0;bottom=0;right=0;align=left;spacingLeft=6;fontStyle=5;overflow=hidden;whiteSpace=wrap;html=1;" vertex="1" parent="gIN66zauMVXj3U1OCYUz-25">
          <mxGeometry x="30" width="160" height="30" as="geometry">
            <mxRectangle width="160" height="30" as="alternateBounds" />
          </mxGeometry>
        </mxCell>
        <mxCell id="gIN66zauMVXj3U1OCYUz-28" value="" style="shape=tableRow;horizontal=0;startSize=0;swimlaneHead=0;swimlaneBody=0;fillColor=none;collapsible=0;dropTarget=0;points=[[0,0.5],[1,0.5]];portConstraint=eastwest;top=0;left=0;right=0;bottom=0;" vertex="1" parent="gIN66zauMVXj3U1OCYUz-24">
          <mxGeometry y="60" width="190" height="30" as="geometry" />
        </mxCell>
        <mxCell id="gIN66zauMVXj3U1OCYUz-29" value="" style="shape=partialRectangle;connectable=0;fillColor=none;top=0;left=0;bottom=0;right=0;editable=1;overflow=hidden;whiteSpace=wrap;html=1;" vertex="1" parent="gIN66zauMVXj3U1OCYUz-28">
          <mxGeometry width="30" height="30" as="geometry">
            <mxRectangle width="30" height="30" as="alternateBounds" />
          </mxGeometry>
        </mxCell>
        <mxCell id="gIN66zauMVXj3U1OCYUz-30" value="이름" style="shape=partialRectangle;connectable=0;fillColor=none;top=0;left=0;bottom=0;right=0;align=left;spacingLeft=6;overflow=hidden;whiteSpace=wrap;html=1;" vertex="1" parent="gIN66zauMVXj3U1OCYUz-28">
          <mxGeometry x="30" width="160" height="30" as="geometry">
            <mxRectangle width="160" height="30" as="alternateBounds" />
          </mxGeometry>
        </mxCell>
        <mxCell id="gIN66zauMVXj3U1OCYUz-31" value="" style="shape=tableRow;horizontal=0;startSize=0;swimlaneHead=0;swimlaneBody=0;fillColor=none;collapsible=0;dropTarget=0;points=[[0,0.5],[1,0.5]];portConstraint=eastwest;top=0;left=0;right=0;bottom=0;" vertex="1" parent="gIN66zauMVXj3U1OCYUz-24">
          <mxGeometry y="90" width="190" height="30" as="geometry" />
        </mxCell>
        <mxCell id="gIN66zauMVXj3U1OCYUz-32" value="" style="shape=partialRectangle;connectable=0;fillColor=none;top=0;left=0;bottom=0;right=0;editable=1;overflow=hidden;whiteSpace=wrap;html=1;" vertex="1" parent="gIN66zauMVXj3U1OCYUz-31">
          <mxGeometry width="30" height="30" as="geometry">
            <mxRectangle width="30" height="30" as="alternateBounds" />
          </mxGeometry>
        </mxCell>
        <mxCell id="gIN66zauMVXj3U1OCYUz-33" value="주소" style="shape=partialRectangle;connectable=0;fillColor=none;top=0;left=0;bottom=0;right=0;align=left;spacingLeft=6;overflow=hidden;whiteSpace=wrap;html=1;" vertex="1" parent="gIN66zauMVXj3U1OCYUz-31">
          <mxGeometry x="30" width="160" height="30" as="geometry">
            <mxRectangle width="160" height="30" as="alternateBounds" />
          </mxGeometry>
        </mxCell>
        <mxCell id="gIN66zauMVXj3U1OCYUz-34" value="" style="shape=tableRow;horizontal=0;startSize=0;swimlaneHead=0;swimlaneBody=0;fillColor=none;collapsible=0;dropTarget=0;points=[[0,0.5],[1,0.5]];portConstraint=eastwest;top=0;left=0;right=0;bottom=0;" vertex="1" parent="gIN66zauMVXj3U1OCYUz-24">
          <mxGeometry y="120" width="190" height="30" as="geometry" />
        </mxCell>
        <mxCell id="gIN66zauMVXj3U1OCYUz-35" value="" style="shape=partialRectangle;connectable=0;fillColor=none;top=0;left=0;bottom=0;right=0;editable=1;overflow=hidden;whiteSpace=wrap;html=1;" vertex="1" parent="gIN66zauMVXj3U1OCYUz-34">
          <mxGeometry width="30" height="30" as="geometry">
            <mxRectangle width="30" height="30" as="alternateBounds" />
          </mxGeometry>
        </mxCell>
        <mxCell id="gIN66zauMVXj3U1OCYUz-36" value="부서" style="shape=partialRectangle;connectable=0;fillColor=none;top=0;left=0;bottom=0;right=0;align=left;spacingLeft=6;overflow=hidden;whiteSpace=wrap;html=1;" vertex="1" parent="gIN66zauMVXj3U1OCYUz-34">
          <mxGeometry x="30" width="160" height="30" as="geometry">
            <mxRectangle width="160" height="30" as="alternateBounds" />
          </mxGeometry>
        </mxCell>
        <mxCell id="gIN66zauMVXj3U1OCYUz-67" value="&lt;u&gt;직원ID&lt;/u&gt;&lt;div&gt;&lt;u&gt;FK&lt;/u&gt;&lt;/div&gt;" style="ellipse;whiteSpace=wrap;html=1;aspect=fixed;" vertex="1" parent="1">
          <mxGeometry x="-740" y="-2580" width="50" height="50" as="geometry" />
        </mxCell>
        <mxCell id="gIN66zauMVXj3U1OCYUz-68" value="발급코드" style="ellipse;whiteSpace=wrap;html=1;aspect=fixed;" vertex="1" parent="1">
          <mxGeometry x="-390" y="-2580" width="50" height="50" as="geometry" />
        </mxCell>
        <mxCell id="gIN66zauMVXj3U1OCYUz-69" value="발급코드" style="ellipse;whiteSpace=wrap;html=1;aspect=fixed;" vertex="1" parent="1">
          <mxGeometry x="-330" y="-2580" width="50" height="50" as="geometry" />
        </mxCell>
        <mxCell id="gIN66zauMVXj3U1OCYUz-70" value="발급날짜" style="ellipse;whiteSpace=wrap;html=1;aspect=fixed;" vertex="1" parent="1">
          <mxGeometry x="-270" y="-2580" width="50" height="50" as="geometry" />
        </mxCell>
        <mxCell id="KwAp4-G1cqq1CkaCXcTE-51" value="사원증" style="shape=table;startSize=30;container=1;collapsible=1;childLayout=tableLayout;fixedRows=1;rowLines=0;fontStyle=1;align=center;resizeLast=1;html=1;whiteSpace=wrap;strokeWidth=1;" vertex="1" parent="1">
          <mxGeometry x="-115" y="-2450" width="180" height="110" as="geometry" />
        </mxCell>
        <mxCell id="KwAp4-G1cqq1CkaCXcTE-52" value="" style="shape=tableRow;horizontal=0;startSize=0;swimlaneHead=0;swimlaneBody=0;fillColor=none;collapsible=0;dropTarget=0;points=[[0,0.5],[1,0.5]];portConstraint=eastwest;top=0;left=0;right=0;bottom=0;html=1;" vertex="1" parent="KwAp4-G1cqq1CkaCXcTE-51">
          <mxGeometry y="30" width="180" height="20" as="geometry" />
        </mxCell>
        <mxCell id="KwAp4-G1cqq1CkaCXcTE-53" value="PK" style="shape=partialRectangle;connectable=0;fillColor=none;top=0;left=0;bottom=0;right=0;fontStyle=1;overflow=hidden;html=1;whiteSpace=wrap;spacingBottom=-13;" vertex="1" parent="KwAp4-G1cqq1CkaCXcTE-52">
          <mxGeometry width="60" height="20" as="geometry">
            <mxRectangle width="60" height="20" as="alternateBounds" />
          </mxGeometry>
        </mxCell>
        <mxCell id="KwAp4-G1cqq1CkaCXcTE-54" value="발급코드" style="shape=partialRectangle;connectable=0;fillColor=none;top=0;left=0;bottom=0;right=0;align=left;spacingLeft=6;fontStyle=4;overflow=hidden;html=1;whiteSpace=wrap;spacingBottom=-15;" vertex="1" parent="KwAp4-G1cqq1CkaCXcTE-52">
          <mxGeometry x="60" width="120" height="20" as="geometry">
            <mxRectangle width="120" height="20" as="alternateBounds" />
          </mxGeometry>
        </mxCell>
        <mxCell id="KwAp4-G1cqq1CkaCXcTE-55" value="" style="shape=tableRow;horizontal=0;startSize=0;swimlaneHead=0;swimlaneBody=0;fillColor=none;collapsible=0;dropTarget=0;points=[[0,0.5],[1,0.5]];portConstraint=eastwest;top=0;left=0;right=0;bottom=1;html=1;" vertex="1" parent="KwAp4-G1cqq1CkaCXcTE-51">
          <mxGeometry y="50" width="180" height="20" as="geometry" />
        </mxCell>
        <mxCell id="KwAp4-G1cqq1CkaCXcTE-56" value="" style="shape=partialRectangle;connectable=0;fillColor=none;top=0;left=0;bottom=0;right=0;fontStyle=1;overflow=hidden;html=1;whiteSpace=wrap;" vertex="1" parent="KwAp4-G1cqq1CkaCXcTE-55">
          <mxGeometry width="60" height="20" as="geometry">
            <mxRectangle width="60" height="20" as="alternateBounds" />
          </mxGeometry>
        </mxCell>
        <mxCell id="KwAp4-G1cqq1CkaCXcTE-57" value="" style="shape=partialRectangle;connectable=0;fillColor=none;top=0;left=0;bottom=0;right=0;align=left;spacingLeft=6;fontStyle=5;overflow=hidden;html=1;whiteSpace=wrap;" vertex="1" parent="KwAp4-G1cqq1CkaCXcTE-55">
          <mxGeometry x="60" width="120" height="20" as="geometry">
            <mxRectangle width="120" height="20" as="alternateBounds" />
          </mxGeometry>
        </mxCell>
        <mxCell id="KwAp4-G1cqq1CkaCXcTE-58" value="" style="shape=tableRow;horizontal=0;startSize=0;swimlaneHead=0;swimlaneBody=0;fillColor=none;collapsible=0;dropTarget=0;points=[[0,0.5],[1,0.5]];portConstraint=eastwest;top=0;left=0;right=0;bottom=0;html=1;fontStyle=1" vertex="1" parent="KwAp4-G1cqq1CkaCXcTE-51">
          <mxGeometry y="70" width="180" height="40" as="geometry" />
        </mxCell>
        <mxCell id="KwAp4-G1cqq1CkaCXcTE-59" value="PK,FK" style="shape=partialRectangle;connectable=0;fillColor=none;top=0;left=0;bottom=0;right=0;editable=1;overflow=hidden;html=1;whiteSpace=wrap;fontStyle=1" vertex="1" parent="KwAp4-G1cqq1CkaCXcTE-58">
          <mxGeometry width="60" height="40" as="geometry">
            <mxRectangle width="60" height="40" as="alternateBounds" />
          </mxGeometry>
        </mxCell>
        <mxCell id="KwAp4-G1cqq1CkaCXcTE-60" value="직원ID" style="shape=partialRectangle;connectable=0;fillColor=none;top=0;left=0;bottom=0;right=0;align=left;spacingLeft=6;overflow=hidden;html=1;whiteSpace=wrap;fontStyle=4" vertex="1" parent="KwAp4-G1cqq1CkaCXcTE-58">
          <mxGeometry x="60" width="120" height="40" as="geometry">
            <mxRectangle width="120" height="40" as="alternateBounds" />
          </mxGeometry>
        </mxCell>
        <mxCell id="KwAp4-G1cqq1CkaCXcTE-64" value="" style="endArrow=ERone;html=1;rounded=0;exitX=0;exitY=0.5;exitDx=0;exitDy=0;entryX=1;entryY=0.5;entryDx=0;entryDy=0;startArrow=ERone;startFill=0;endFill=0;" edge="1" parent="1" source="KwAp4-G1cqq1CkaCXcTE-55" target="gIN66zauMVXj3U1OCYUz-28">
          <mxGeometry width="50" height="50" relative="1" as="geometry">
            <mxPoint x="-150" y="-2450" as="sourcePoint" />
            <mxPoint x="-100" y="-2500" as="targetPoint" />
          </mxGeometry>
        </mxCell>
        <mxCell id="KwAp4-G1cqq1CkaCXcTE-66" value="사람" style="verticalLabelPosition=middle;verticalAlign=middle;html=1;shape=mxgraph.basic.rect;fillColor2=none;strokeWidth=1;size=20;indent=5;labelPosition=center;align=center;" vertex="1" parent="1">
          <mxGeometry x="-640" y="-980" width="120" height="60" as="geometry" />
        </mxCell>
        <mxCell id="KwAp4-G1cqq1CkaCXcTE-67" value="주민등록번호" style="verticalLabelPosition=middle;verticalAlign=middle;html=1;shape=mxgraph.basic.rect;fillColor2=none;strokeWidth=1;size=20;indent=5;labelPosition=center;align=center;" vertex="1" parent="1">
          <mxGeometry x="50" y="-980" width="120" height="60" as="geometry" />
        </mxCell>
        <mxCell id="KwAp4-G1cqq1CkaCXcTE-68" value="할당" style="html=1;whiteSpace=wrap;aspect=fixed;shape=isoRectangle;" vertex="1" parent="1">
          <mxGeometry x="-320" y="-995" width="150" height="90" as="geometry" />
        </mxCell>
        <mxCell id="KwAp4-G1cqq1CkaCXcTE-69" value="" style="endArrow=none;html=1;rounded=0;" edge="1" parent="1" source="KwAp4-G1cqq1CkaCXcTE-68" target="KwAp4-G1cqq1CkaCXcTE-67">
          <mxGeometry width="50" height="50" relative="1" as="geometry">
            <mxPoint y="-900" as="sourcePoint" />
            <mxPoint x="50" y="-950" as="targetPoint" />
          </mxGeometry>
        </mxCell>
        <mxCell id="KwAp4-G1cqq1CkaCXcTE-70" value="" style="endArrow=none;html=1;rounded=0;" edge="1" parent="1" source="KwAp4-G1cqq1CkaCXcTE-66" target="KwAp4-G1cqq1CkaCXcTE-68">
          <mxGeometry width="50" height="50" relative="1" as="geometry">
            <mxPoint x="-150" y="-950" as="sourcePoint" />
            <mxPoint x="-100" y="-1000" as="targetPoint" />
          </mxGeometry>
        </mxCell>
        <mxCell id="KwAp4-G1cqq1CkaCXcTE-71" value="주민번호&lt;div&gt;뒷자리&lt;/div&gt;&lt;div&gt;PK&lt;/div&gt;" style="ellipse;whiteSpace=wrap;html=1;aspect=fixed;" vertex="1" parent="1">
          <mxGeometry x="15" y="-880" width="50" height="50" as="geometry" />
        </mxCell>
        <mxCell id="KwAp4-G1cqq1CkaCXcTE-72" value="" style="ellipse;whiteSpace=wrap;html=1;aspect=fixed;" vertex="1" parent="1">
          <mxGeometry x="-700" y="-880" width="50" height="50" as="geometry" />
        </mxCell>
        <mxCell id="KwAp4-G1cqq1CkaCXcTE-73" value="" style="ellipse;whiteSpace=wrap;html=1;aspect=fixed;" vertex="1" parent="1">
          <mxGeometry x="-630" y="-880" width="50" height="50" as="geometry" />
        </mxCell>
        <mxCell id="KwAp4-G1cqq1CkaCXcTE-74" value="" style="ellipse;whiteSpace=wrap;html=1;aspect=fixed;" vertex="1" parent="1">
          <mxGeometry x="-560" y="-880" width="50" height="50" as="geometry" />
        </mxCell>
        <mxCell id="KwAp4-G1cqq1CkaCXcTE-75" value="" style="ellipse;whiteSpace=wrap;html=1;aspect=fixed;" vertex="1" parent="1">
          <mxGeometry x="-490" y="-880" width="50" height="50" as="geometry" />
        </mxCell>
        <mxCell id="KwAp4-G1cqq1CkaCXcTE-77" value="" style="ellipse;whiteSpace=wrap;html=1;aspect=fixed;" vertex="1" parent="1">
          <mxGeometry x="95" y="-880" width="50" height="50" as="geometry" />
        </mxCell>
        <mxCell id="KwAp4-G1cqq1CkaCXcTE-79" value="" style="ellipse;whiteSpace=wrap;html=1;aspect=fixed;" vertex="1" parent="1">
          <mxGeometry x="165" y="-880" width="50" height="50" as="geometry" />
        </mxCell>
      </root>
    </mxGraphModel>
  </diagram>
  <diagram id="aiz5ZJjIb0BsYUeWFxQp" name="[문제] 1:N">
    <mxGraphModel dx="3590" dy="3890" grid="1" gridSize="10" guides="1" tooltips="1" connect="1" arrows="1" fold="1" page="0" pageScale="1" pageWidth="3300" pageHeight="4681" math="0" shadow="0">
      <root>
        <mxCell id="0" />
        <mxCell id="1" parent="0" />
        <mxCell id="pc1wg821FVKhjJ9yyzHB-1" value="&lt;h4&gt;&lt;strong&gt;부서와 직원&lt;/strong&gt;&lt;/h4&gt;&lt;ul&gt;&lt;li&gt;&lt;strong&gt;엔터티&lt;/strong&gt;: 부서(Department), 직원(Employee)&lt;/li&gt;&lt;li&gt;&lt;strong&gt;관계&lt;/strong&gt;: 소속(Belongs To)&lt;ul&gt;&lt;li&gt;한 부서에는 여러 직원이 소속될 수 있으며, 한 직원은 한 부서에만 속합니다.&lt;/li&gt;&lt;/ul&gt;&lt;/li&gt;&lt;/ul&gt;" style="text;whiteSpace=wrap;html=1;" vertex="1" parent="1">
          <mxGeometry x="-1150" y="-1900" width="520" height="120" as="geometry" />
        </mxCell>
        <mxCell id="pc1wg821FVKhjJ9yyzHB-2" value="&lt;h4&gt;&lt;strong&gt;카테고리와 상품&lt;/strong&gt;&lt;/h4&gt;&lt;ul&gt;&lt;li&gt;&lt;strong&gt;엔터티&lt;/strong&gt;: 카테고리(Category), 상품(Product)&lt;/li&gt;&lt;li&gt;&lt;strong&gt;관계&lt;/strong&gt;: 포함(Contains)&lt;ul&gt;&lt;li&gt;한 카테고리는 여러 상품을 포함할 수 있고, 한 상품은 하나의 카테고리에만 속합니다.&lt;/li&gt;&lt;/ul&gt;&lt;/li&gt;&lt;/ul&gt;" style="text;whiteSpace=wrap;html=1;" vertex="1" parent="1">
          <mxGeometry x="-1160" y="-1760" width="560" height="140" as="geometry" />
        </mxCell>
        <mxCell id="pc1wg821FVKhjJ9yyzHB-3" value="&lt;h4&gt;&lt;strong&gt;회사와 프로젝트&lt;/strong&gt;&lt;/h4&gt;&lt;ul&gt;&lt;li&gt;&lt;strong&gt;엔터티&lt;/strong&gt;: 회사(Company), 프로젝트(Project)&lt;/li&gt;&lt;li&gt;&lt;strong&gt;관계&lt;/strong&gt;: 진행(Manages)&lt;ul&gt;&lt;li&gt;한 회사는 여러 프로젝트를 진행할 수 있고, 한 프로젝트는 하나의 회사에 의해 관리됩니다.&lt;/li&gt;&lt;/ul&gt;&lt;/li&gt;&lt;/ul&gt;" style="text;whiteSpace=wrap;html=1;" vertex="1" parent="1">
          <mxGeometry x="-1160" y="-1610" width="560" height="140" as="geometry" />
        </mxCell>
        <mxCell id="pc1wg821FVKhjJ9yyzHB-4" value="&lt;h4&gt;&lt;strong&gt;도시와 주민&lt;/strong&gt;&lt;/h4&gt;&lt;ul&gt;&lt;li&gt;&lt;strong&gt;엔터티&lt;/strong&gt;: 도시(City), 주민(Resident)&lt;/li&gt;&lt;li&gt;&lt;strong&gt;관계&lt;/strong&gt;: 거주(Lives In)&lt;ul&gt;&lt;li&gt;한 도시는 여러 주민이 살고 있으며, 한 주민은 하나의 도시에 거주합니다.&lt;/li&gt;&lt;/ul&gt;&lt;/li&gt;&lt;/ul&gt;" style="text;whiteSpace=wrap;html=1;" vertex="1" parent="1">
          <mxGeometry x="-1160" y="-1460" width="500" height="120" as="geometry" />
        </mxCell>
        <mxCell id="pc1wg821FVKhjJ9yyzHB-5" value="&lt;h4&gt;&lt;strong&gt;학교와 학생&lt;/strong&gt;&lt;/h4&gt;&lt;ul&gt;&lt;li&gt;&lt;strong&gt;엔터티&lt;/strong&gt;: 학교(School), 학생(Student)&lt;/li&gt;&lt;li&gt;&lt;strong&gt;관계&lt;/strong&gt;: 재학(Enrolled)&lt;ul&gt;&lt;li&gt;한 학교는 여러 학생을 가질 수 있고, 한 학생은 하나의 학교에만 재학 중입니다.&lt;/li&gt;&lt;/ul&gt;&lt;/li&gt;&lt;/ul&gt;" style="text;whiteSpace=wrap;html=1;" vertex="1" parent="1">
          <mxGeometry x="-1155" y="-1300" width="530" height="120" as="geometry" />
        </mxCell>
        <mxCell id="rpGxIRCnqPoRFGMALsja-1" value="&lt;font style=&quot;font-size: 21px;&quot;&gt;Chan / Craw&#39;s Foot 모델 각각 만들어보시고&amp;nbsp;&lt;br&gt;각 항목에 맞는 프로젝트 주제를 잡아봅니다&lt;/font&gt;&lt;div&gt;&lt;font style=&quot;font-size: 21px;&quot;&gt;(예. &#39;사용자와 프로필&#39; 문제인 경우 해당 데이터를 저장할 DB명을 &#39;쇼핑몰DB&#39; 로 지정하고 시작할 수 있습니다)&lt;/font&gt;&lt;/div&gt;&lt;div&gt;&lt;font style=&quot;font-size: 21px;&quot;&gt;주제를 정한다음 해당 주제에 맞게 각 엔티티(Table)에 저장 할 속성(컬럼) 과 PK , FK 를 지정해봅니다&lt;/font&gt;&lt;/div&gt;&lt;div&gt;&lt;font style=&quot;font-size: 21px;&quot;&gt;자유롭게 해보시면 됩니다&lt;/font&gt;&lt;/div&gt;" style="text;html=1;align=left;verticalAlign=middle;resizable=0;points=[];autosize=1;strokeColor=none;fillColor=none;fontSize=16;" vertex="1" parent="1">
          <mxGeometry x="-1155" y="-2090" width="1040" height="140" as="geometry" />
        </mxCell>
      </root>
    </mxGraphModel>
  </diagram>
  <diagram id="Qt-9oNxaDNi8xO8_GiUF" name="[문제] N:M">
    <mxGraphModel dx="2234" dy="3180" grid="1" gridSize="10" guides="1" tooltips="1" connect="1" arrows="1" fold="1" page="0" pageScale="1" pageWidth="3300" pageHeight="4681" math="0" shadow="0">
      <root>
        <mxCell id="0" />
        <mxCell id="1" parent="0" />
        <mxCell id="tv_fpcgW2BSxbxhTOG_y-1" value="&lt;h3&gt;예시 1: &lt;strong&gt;작가와 책&lt;/strong&gt;&lt;/h3&gt;&lt;h3&gt;&lt;strong style=&quot;background-color: initial; font-size: 16px;&quot;&gt;엔터티&lt;/strong&gt;&lt;span style=&quot;background-color: initial; font-size: 16px; font-weight: normal;&quot;&gt;: 작가(Author), 책(Book)&lt;/span&gt;&lt;/h3&gt;&lt;h3&gt;&lt;strong style=&quot;background-color: initial; font-size: 16px;&quot;&gt;관계&lt;/strong&gt;&lt;span style=&quot;background-color: initial; font-size: 16px; font-weight: normal;&quot;&gt;: 집필(Writes)&lt;/span&gt;&lt;/h3&gt;&lt;h3&gt;&lt;span style=&quot;background-color: initial; font-size: 16px; font-weight: normal;&quot;&gt;한 작가는 여러 책을 집필할 수 있고, 한 책은 여러 작가에 의해 집필될 수 있다.&lt;/span&gt;&lt;/h3&gt;&lt;h3&gt;&lt;br&gt;&lt;/h3&gt;" style="text;html=1;align=left;verticalAlign=middle;resizable=0;points=[];autosize=1;strokeColor=none;fillColor=none;fontSize=16;" parent="1" vertex="1">
          <mxGeometry x="-590" y="-1850" width="570" height="240" as="geometry" />
        </mxCell>
        <mxCell id="tv_fpcgW2BSxbxhTOG_y-2" value="&lt;h3&gt;&lt;/h3&gt;&lt;h3 style=&quot;text-align: left;&quot;&gt;예시 2: &lt;strong&gt;의사와 환자&lt;/strong&gt;&lt;/h3&gt;&lt;h3 style=&quot;text-align: left;&quot;&gt;&lt;strong style=&quot;background-color: initial; font-size: 16px;&quot;&gt;엔터티&lt;/strong&gt;&lt;span style=&quot;background-color: initial; font-size: 16px; font-weight: normal;&quot;&gt;: 의사(Doctor), 환자(Patient)&lt;/span&gt;&lt;/h3&gt;&lt;h3 style=&quot;text-align: left;&quot;&gt;&lt;strong style=&quot;background-color: initial; font-size: 16px;&quot;&gt;관계&lt;/strong&gt;&lt;span style=&quot;background-color: initial; font-size: 16px; font-weight: normal;&quot;&gt;: 진료(Treats)&lt;/span&gt;&lt;/h3&gt;&lt;h3 style=&quot;text-align: left;&quot;&gt;&lt;span style=&quot;background-color: initial; font-size: 16px; font-weight: normal;&quot;&gt;한 의사는 여러 환자를 진료할 수 있고, 한 환자는 여러 의사에게 진료받을 수 있다.&lt;/span&gt;&lt;/h3&gt;&lt;h3 style=&quot;text-align: left;&quot;&gt;&lt;br&gt;&lt;/h3&gt;" style="text;html=1;align=center;verticalAlign=middle;resizable=0;points=[];autosize=1;strokeColor=none;fillColor=none;fontSize=16;" parent="1" vertex="1">
          <mxGeometry x="-600" y="-1630" width="600" height="240" as="geometry" />
        </mxCell>
        <mxCell id="tv_fpcgW2BSxbxhTOG_y-3" value="&lt;h3&gt;&lt;/h3&gt;&lt;h3&gt;예시 3: &lt;strong&gt;영화와 배우&lt;/strong&gt;&lt;/h3&gt;&lt;ul&gt;&lt;li&gt;&lt;strong&gt;엔터티&lt;/strong&gt;: 영화(Movie), 배우(Actor)&lt;/li&gt;&lt;li&gt;&lt;strong&gt;관계&lt;/strong&gt;: 출연(Appears In)&lt;ul&gt;&lt;li&gt;한 영화에는 여러 배우가 출연할 수 있고, 한 배우는 여러 영화에 출연할 수 있다.&lt;/li&gt;&lt;/ul&gt;&lt;/li&gt;&lt;/ul&gt;&lt;h3&gt;&lt;br&gt;&lt;/h3&gt;" style="text;html=1;align=left;verticalAlign=middle;resizable=0;points=[];autosize=1;strokeColor=none;fillColor=none;fontSize=16;" parent="1" vertex="1">
          <mxGeometry x="-600" y="-1380" width="670" height="190" as="geometry" />
        </mxCell>
        <mxCell id="tv_fpcgW2BSxbxhTOG_y-4" value="&lt;h3&gt;&lt;br&gt;&lt;/h3&gt;&lt;div&gt;&lt;h3&gt;예시 4: 음식과 재료&lt;/h3&gt;&lt;h3&gt;&lt;strong style=&quot;background-color: initial; font-size: 16px;&quot;&gt;엔터티&lt;/strong&gt;&lt;span style=&quot;background-color: initial; font-size: 16px; font-weight: normal;&quot;&gt;: 음식(Dish), 재료(Ingredient)&lt;/span&gt;&lt;/h3&gt;&lt;h3&gt;&lt;strong style=&quot;background-color: initial; font-size: 16px;&quot;&gt;관계&lt;/strong&gt;&lt;span style=&quot;background-color: initial; font-size: 16px; font-weight: normal;&quot;&gt;: 구성(Contains)&lt;/span&gt;&lt;/h3&gt;&lt;h3&gt;&lt;span style=&quot;background-color: initial; font-size: 16px; font-weight: normal;&quot;&gt;한 음식은 여러 재료로 구성될 수 있고, 한 재료는 여러 음식에 사용될 수 있다.&lt;/span&gt;&lt;/h3&gt;&lt;/div&gt;" style="text;html=1;align=left;verticalAlign=middle;resizable=0;points=[];autosize=1;strokeColor=none;fillColor=none;fontSize=16;" parent="1" vertex="1">
          <mxGeometry x="-600" y="-1200" width="570" height="240" as="geometry" />
        </mxCell>
        <mxCell id="H5GfQ0p9Jl8ysoTxDrhN-1" value="&lt;font style=&quot;font-size: 21px;&quot;&gt;Chan / Craw&#39;s Foot 모델 각각 만들어보시고&amp;nbsp;&lt;br&gt;각 항목에 맞는 프로젝트 주제를 잡아봅니다&lt;/font&gt;&lt;div&gt;&lt;font style=&quot;font-size: 21px;&quot;&gt;(예. &#39;사용자와 프로필&#39; 문제인 경우 해당 데이터를 저장할 DB명을 &#39;쇼핑몰DB&#39; 로 지정하고 시작할 수 있습니다)&lt;/font&gt;&lt;/div&gt;&lt;div&gt;&lt;font style=&quot;font-size: 21px;&quot;&gt;주제를 정한다음 해당 주제에 맞게 각 엔티티(Table)에 저장 할 속성(컬럼) 과 PK , FK 를 지정해봅니다&lt;/font&gt;&lt;/div&gt;&lt;div&gt;&lt;font style=&quot;font-size: 21px;&quot;&gt;자유롭게 해보시면 됩니다&lt;/font&gt;&lt;/div&gt;" style="text;html=1;align=left;verticalAlign=middle;resizable=0;points=[];autosize=1;strokeColor=none;fillColor=none;fontSize=16;" parent="1" vertex="1">
          <mxGeometry x="-615" y="-2080" width="1040" height="140" as="geometry" />
        </mxCell>
        <mxCell id="JG0iYZfVDNP51qGV0m4O-1" value="영화" style="rounded=0;whiteSpace=wrap;html=1;" vertex="1" parent="1">
          <mxGeometry x="90" y="-1320" width="120" height="60" as="geometry" />
        </mxCell>
        <mxCell id="JG0iYZfVDNP51qGV0m4O-2" value="배우" style="rounded=0;whiteSpace=wrap;html=1;" vertex="1" parent="1">
          <mxGeometry x="820" y="-1320" width="120" height="60" as="geometry" />
        </mxCell>
        <mxCell id="JG0iYZfVDNP51qGV0m4O-3" value="영화ID" style="ellipse;whiteSpace=wrap;html=1;aspect=fixed;fontStyle=4" vertex="1" parent="1">
          <mxGeometry x="30" y="-1250" width="50" height="50" as="geometry" />
        </mxCell>
        <mxCell id="JG0iYZfVDNP51qGV0m4O-4" value="장르" style="ellipse;whiteSpace=wrap;html=1;aspect=fixed;fontStyle=0" vertex="1" parent="1">
          <mxGeometry x="90" y="-1250" width="50" height="50" as="geometry" />
        </mxCell>
        <mxCell id="JG0iYZfVDNP51qGV0m4O-5" value="상영시간" style="ellipse;whiteSpace=wrap;html=1;aspect=fixed;fontStyle=0" vertex="1" parent="1">
          <mxGeometry x="150" y="-1250" width="50" height="50" as="geometry" />
        </mxCell>
        <mxCell id="JG0iYZfVDNP51qGV0m4O-6" value="제목" style="ellipse;whiteSpace=wrap;html=1;aspect=fixed;fontStyle=0" vertex="1" parent="1">
          <mxGeometry x="210" y="-1250" width="50" height="50" as="geometry" />
        </mxCell>
        <mxCell id="JG0iYZfVDNP51qGV0m4O-9" value="배우명" style="ellipse;whiteSpace=wrap;html=1;aspect=fixed;fontStyle=0" vertex="1" parent="1">
          <mxGeometry x="790" y="-1250" width="50" height="50" as="geometry" />
        </mxCell>
        <mxCell id="JG0iYZfVDNP51qGV0m4O-10" value="SNS" style="ellipse;whiteSpace=wrap;html=1;aspect=fixed;fontStyle=0" vertex="1" parent="1">
          <mxGeometry x="910" y="-1250" width="50" height="50" as="geometry" />
        </mxCell>
        <mxCell id="JG0iYZfVDNP51qGV0m4O-11" value="배우ID" style="ellipse;whiteSpace=wrap;html=1;aspect=fixed;fontStyle=4" vertex="1" parent="1">
          <mxGeometry x="730" y="-1250" width="50" height="50" as="geometry" />
        </mxCell>
        <mxCell id="JG0iYZfVDNP51qGV0m4O-15" value="소속사" style="ellipse;whiteSpace=wrap;html=1;aspect=fixed;fontStyle=0" vertex="1" parent="1">
          <mxGeometry x="850" y="-1250" width="50" height="50" as="geometry" />
        </mxCell>
        <mxCell id="JG0iYZfVDNP51qGV0m4O-17" value="연락처" style="ellipse;whiteSpace=wrap;html=1;aspect=fixed;fontStyle=0" vertex="1" parent="1">
          <mxGeometry x="970" y="-1250" width="50" height="50" as="geometry" />
        </mxCell>
        <mxCell id="JG0iYZfVDNP51qGV0m4O-18" value="출연" style="html=1;whiteSpace=wrap;aspect=fixed;shape=isoRectangle;" vertex="1" parent="1">
          <mxGeometry x="420" y="-1330" width="150" height="90" as="geometry" />
        </mxCell>
        <mxCell id="JG0iYZfVDNP51qGV0m4O-19" value="배우ID&lt;div&gt;FK&lt;/div&gt;" style="ellipse;whiteSpace=wrap;html=1;aspect=fixed;fontStyle=4" vertex="1" parent="1">
          <mxGeometry x="535" y="-1250" width="50" height="50" as="geometry" />
        </mxCell>
        <mxCell id="JG0iYZfVDNP51qGV0m4O-20" value="영화ID&lt;div&gt;FK&lt;/div&gt;" style="ellipse;whiteSpace=wrap;html=1;aspect=fixed;fontStyle=0" vertex="1" parent="1">
          <mxGeometry x="405" y="-1250" width="50" height="50" as="geometry" />
        </mxCell>
        <mxCell id="JG0iYZfVDNP51qGV0m4O-21" value="" style="endArrow=none;html=1;rounded=0;" edge="1" parent="1" source="JG0iYZfVDNP51qGV0m4O-1" target="JG0iYZfVDNP51qGV0m4O-18">
          <mxGeometry width="50" height="50" relative="1" as="geometry">
            <mxPoint x="180" y="-1250" as="sourcePoint" />
            <mxPoint x="230" y="-1300" as="targetPoint" />
          </mxGeometry>
        </mxCell>
        <mxCell id="JG0iYZfVDNP51qGV0m4O-22" value="" style="endArrow=none;html=1;rounded=0;" edge="1" parent="1" source="JG0iYZfVDNP51qGV0m4O-18" target="JG0iYZfVDNP51qGV0m4O-2">
          <mxGeometry width="50" height="50" relative="1" as="geometry">
            <mxPoint x="430" y="-1260" as="sourcePoint" />
            <mxPoint x="480" y="-1310" as="targetPoint" />
          </mxGeometry>
        </mxCell>
        <mxCell id="JG0iYZfVDNP51qGV0m4O-23" value="영화" style="shape=table;startSize=30;container=1;collapsible=1;childLayout=tableLayout;fixedRows=1;rowLines=0;fontStyle=1;align=center;resizeLast=1;html=1;" vertex="1" parent="1">
          <mxGeometry x="50" y="-1140" width="180" height="150" as="geometry" />
        </mxCell>
        <mxCell id="JG0iYZfVDNP51qGV0m4O-24" value="" style="shape=tableRow;horizontal=0;startSize=0;swimlaneHead=0;swimlaneBody=0;fillColor=none;collapsible=0;dropTarget=0;points=[[0,0.5],[1,0.5]];portConstraint=eastwest;top=0;left=0;right=0;bottom=1;" vertex="1" parent="JG0iYZfVDNP51qGV0m4O-23">
          <mxGeometry y="30" width="180" height="30" as="geometry" />
        </mxCell>
        <mxCell id="JG0iYZfVDNP51qGV0m4O-25" value="PK" style="shape=partialRectangle;connectable=0;fillColor=none;top=0;left=0;bottom=0;right=0;fontStyle=1;overflow=hidden;whiteSpace=wrap;html=1;" vertex="1" parent="JG0iYZfVDNP51qGV0m4O-24">
          <mxGeometry width="30" height="30" as="geometry">
            <mxRectangle width="30" height="30" as="alternateBounds" />
          </mxGeometry>
        </mxCell>
        <mxCell id="JG0iYZfVDNP51qGV0m4O-26" value="UniqueID" style="shape=partialRectangle;connectable=0;fillColor=none;top=0;left=0;bottom=0;right=0;align=left;spacingLeft=6;fontStyle=5;overflow=hidden;whiteSpace=wrap;html=1;" vertex="1" parent="JG0iYZfVDNP51qGV0m4O-24">
          <mxGeometry x="30" width="150" height="30" as="geometry">
            <mxRectangle width="150" height="30" as="alternateBounds" />
          </mxGeometry>
        </mxCell>
        <mxCell id="JG0iYZfVDNP51qGV0m4O-27" value="" style="shape=tableRow;horizontal=0;startSize=0;swimlaneHead=0;swimlaneBody=0;fillColor=none;collapsible=0;dropTarget=0;points=[[0,0.5],[1,0.5]];portConstraint=eastwest;top=0;left=0;right=0;bottom=0;" vertex="1" parent="JG0iYZfVDNP51qGV0m4O-23">
          <mxGeometry y="60" width="180" height="30" as="geometry" />
        </mxCell>
        <mxCell id="JG0iYZfVDNP51qGV0m4O-28" value="" style="shape=partialRectangle;connectable=0;fillColor=none;top=0;left=0;bottom=0;right=0;editable=1;overflow=hidden;whiteSpace=wrap;html=1;" vertex="1" parent="JG0iYZfVDNP51qGV0m4O-27">
          <mxGeometry width="30" height="30" as="geometry">
            <mxRectangle width="30" height="30" as="alternateBounds" />
          </mxGeometry>
        </mxCell>
        <mxCell id="JG0iYZfVDNP51qGV0m4O-29" value="Row 1" style="shape=partialRectangle;connectable=0;fillColor=none;top=0;left=0;bottom=0;right=0;align=left;spacingLeft=6;overflow=hidden;whiteSpace=wrap;html=1;" vertex="1" parent="JG0iYZfVDNP51qGV0m4O-27">
          <mxGeometry x="30" width="150" height="30" as="geometry">
            <mxRectangle width="150" height="30" as="alternateBounds" />
          </mxGeometry>
        </mxCell>
        <mxCell id="JG0iYZfVDNP51qGV0m4O-30" value="" style="shape=tableRow;horizontal=0;startSize=0;swimlaneHead=0;swimlaneBody=0;fillColor=none;collapsible=0;dropTarget=0;points=[[0,0.5],[1,0.5]];portConstraint=eastwest;top=0;left=0;right=0;bottom=0;" vertex="1" parent="JG0iYZfVDNP51qGV0m4O-23">
          <mxGeometry y="90" width="180" height="30" as="geometry" />
        </mxCell>
        <mxCell id="JG0iYZfVDNP51qGV0m4O-31" value="" style="shape=partialRectangle;connectable=0;fillColor=none;top=0;left=0;bottom=0;right=0;editable=1;overflow=hidden;whiteSpace=wrap;html=1;" vertex="1" parent="JG0iYZfVDNP51qGV0m4O-30">
          <mxGeometry width="30" height="30" as="geometry">
            <mxRectangle width="30" height="30" as="alternateBounds" />
          </mxGeometry>
        </mxCell>
        <mxCell id="JG0iYZfVDNP51qGV0m4O-32" value="Row 2" style="shape=partialRectangle;connectable=0;fillColor=none;top=0;left=0;bottom=0;right=0;align=left;spacingLeft=6;overflow=hidden;whiteSpace=wrap;html=1;" vertex="1" parent="JG0iYZfVDNP51qGV0m4O-30">
          <mxGeometry x="30" width="150" height="30" as="geometry">
            <mxRectangle width="150" height="30" as="alternateBounds" />
          </mxGeometry>
        </mxCell>
        <mxCell id="JG0iYZfVDNP51qGV0m4O-33" value="" style="shape=tableRow;horizontal=0;startSize=0;swimlaneHead=0;swimlaneBody=0;fillColor=none;collapsible=0;dropTarget=0;points=[[0,0.5],[1,0.5]];portConstraint=eastwest;top=0;left=0;right=0;bottom=0;" vertex="1" parent="JG0iYZfVDNP51qGV0m4O-23">
          <mxGeometry y="120" width="180" height="30" as="geometry" />
        </mxCell>
        <mxCell id="JG0iYZfVDNP51qGV0m4O-34" value="" style="shape=partialRectangle;connectable=0;fillColor=none;top=0;left=0;bottom=0;right=0;editable=1;overflow=hidden;whiteSpace=wrap;html=1;" vertex="1" parent="JG0iYZfVDNP51qGV0m4O-33">
          <mxGeometry width="30" height="30" as="geometry">
            <mxRectangle width="30" height="30" as="alternateBounds" />
          </mxGeometry>
        </mxCell>
        <mxCell id="JG0iYZfVDNP51qGV0m4O-35" value="Row 3" style="shape=partialRectangle;connectable=0;fillColor=none;top=0;left=0;bottom=0;right=0;align=left;spacingLeft=6;overflow=hidden;whiteSpace=wrap;html=1;" vertex="1" parent="JG0iYZfVDNP51qGV0m4O-33">
          <mxGeometry x="30" width="150" height="30" as="geometry">
            <mxRectangle width="150" height="30" as="alternateBounds" />
          </mxGeometry>
        </mxCell>
        <mxCell id="JG0iYZfVDNP51qGV0m4O-36" value="배우" style="shape=table;startSize=30;container=1;collapsible=1;childLayout=tableLayout;fixedRows=1;rowLines=0;fontStyle=1;align=center;resizeLast=1;html=1;" vertex="1" parent="1">
          <mxGeometry x="790" y="-1140" width="180" height="150" as="geometry" />
        </mxCell>
        <mxCell id="JG0iYZfVDNP51qGV0m4O-37" value="" style="shape=tableRow;horizontal=0;startSize=0;swimlaneHead=0;swimlaneBody=0;fillColor=none;collapsible=0;dropTarget=0;points=[[0,0.5],[1,0.5]];portConstraint=eastwest;top=0;left=0;right=0;bottom=1;" vertex="1" parent="JG0iYZfVDNP51qGV0m4O-36">
          <mxGeometry y="30" width="180" height="30" as="geometry" />
        </mxCell>
        <mxCell id="JG0iYZfVDNP51qGV0m4O-38" value="PK" style="shape=partialRectangle;connectable=0;fillColor=none;top=0;left=0;bottom=0;right=0;fontStyle=1;overflow=hidden;whiteSpace=wrap;html=1;" vertex="1" parent="JG0iYZfVDNP51qGV0m4O-37">
          <mxGeometry width="30" height="30" as="geometry">
            <mxRectangle width="30" height="30" as="alternateBounds" />
          </mxGeometry>
        </mxCell>
        <mxCell id="JG0iYZfVDNP51qGV0m4O-39" value="UniqueID" style="shape=partialRectangle;connectable=0;fillColor=none;top=0;left=0;bottom=0;right=0;align=left;spacingLeft=6;fontStyle=5;overflow=hidden;whiteSpace=wrap;html=1;" vertex="1" parent="JG0iYZfVDNP51qGV0m4O-37">
          <mxGeometry x="30" width="150" height="30" as="geometry">
            <mxRectangle width="150" height="30" as="alternateBounds" />
          </mxGeometry>
        </mxCell>
        <mxCell id="JG0iYZfVDNP51qGV0m4O-40" value="" style="shape=tableRow;horizontal=0;startSize=0;swimlaneHead=0;swimlaneBody=0;fillColor=none;collapsible=0;dropTarget=0;points=[[0,0.5],[1,0.5]];portConstraint=eastwest;top=0;left=0;right=0;bottom=0;" vertex="1" parent="JG0iYZfVDNP51qGV0m4O-36">
          <mxGeometry y="60" width="180" height="30" as="geometry" />
        </mxCell>
        <mxCell id="JG0iYZfVDNP51qGV0m4O-41" value="" style="shape=partialRectangle;connectable=0;fillColor=none;top=0;left=0;bottom=0;right=0;editable=1;overflow=hidden;whiteSpace=wrap;html=1;" vertex="1" parent="JG0iYZfVDNP51qGV0m4O-40">
          <mxGeometry width="30" height="30" as="geometry">
            <mxRectangle width="30" height="30" as="alternateBounds" />
          </mxGeometry>
        </mxCell>
        <mxCell id="JG0iYZfVDNP51qGV0m4O-42" value="Row 1" style="shape=partialRectangle;connectable=0;fillColor=none;top=0;left=0;bottom=0;right=0;align=left;spacingLeft=6;overflow=hidden;whiteSpace=wrap;html=1;" vertex="1" parent="JG0iYZfVDNP51qGV0m4O-40">
          <mxGeometry x="30" width="150" height="30" as="geometry">
            <mxRectangle width="150" height="30" as="alternateBounds" />
          </mxGeometry>
        </mxCell>
        <mxCell id="JG0iYZfVDNP51qGV0m4O-43" value="" style="shape=tableRow;horizontal=0;startSize=0;swimlaneHead=0;swimlaneBody=0;fillColor=none;collapsible=0;dropTarget=0;points=[[0,0.5],[1,0.5]];portConstraint=eastwest;top=0;left=0;right=0;bottom=0;" vertex="1" parent="JG0iYZfVDNP51qGV0m4O-36">
          <mxGeometry y="90" width="180" height="30" as="geometry" />
        </mxCell>
        <mxCell id="JG0iYZfVDNP51qGV0m4O-44" value="" style="shape=partialRectangle;connectable=0;fillColor=none;top=0;left=0;bottom=0;right=0;editable=1;overflow=hidden;whiteSpace=wrap;html=1;" vertex="1" parent="JG0iYZfVDNP51qGV0m4O-43">
          <mxGeometry width="30" height="30" as="geometry">
            <mxRectangle width="30" height="30" as="alternateBounds" />
          </mxGeometry>
        </mxCell>
        <mxCell id="JG0iYZfVDNP51qGV0m4O-45" value="Row 2" style="shape=partialRectangle;connectable=0;fillColor=none;top=0;left=0;bottom=0;right=0;align=left;spacingLeft=6;overflow=hidden;whiteSpace=wrap;html=1;" vertex="1" parent="JG0iYZfVDNP51qGV0m4O-43">
          <mxGeometry x="30" width="150" height="30" as="geometry">
            <mxRectangle width="150" height="30" as="alternateBounds" />
          </mxGeometry>
        </mxCell>
        <mxCell id="JG0iYZfVDNP51qGV0m4O-46" value="" style="shape=tableRow;horizontal=0;startSize=0;swimlaneHead=0;swimlaneBody=0;fillColor=none;collapsible=0;dropTarget=0;points=[[0,0.5],[1,0.5]];portConstraint=eastwest;top=0;left=0;right=0;bottom=0;" vertex="1" parent="JG0iYZfVDNP51qGV0m4O-36">
          <mxGeometry y="120" width="180" height="30" as="geometry" />
        </mxCell>
        <mxCell id="JG0iYZfVDNP51qGV0m4O-47" value="" style="shape=partialRectangle;connectable=0;fillColor=none;top=0;left=0;bottom=0;right=0;editable=1;overflow=hidden;whiteSpace=wrap;html=1;" vertex="1" parent="JG0iYZfVDNP51qGV0m4O-46">
          <mxGeometry width="30" height="30" as="geometry">
            <mxRectangle width="30" height="30" as="alternateBounds" />
          </mxGeometry>
        </mxCell>
        <mxCell id="JG0iYZfVDNP51qGV0m4O-48" value="Row 3" style="shape=partialRectangle;connectable=0;fillColor=none;top=0;left=0;bottom=0;right=0;align=left;spacingLeft=6;overflow=hidden;whiteSpace=wrap;html=1;" vertex="1" parent="JG0iYZfVDNP51qGV0m4O-46">
          <mxGeometry x="30" width="150" height="30" as="geometry">
            <mxRectangle width="150" height="30" as="alternateBounds" />
          </mxGeometry>
        </mxCell>
        <mxCell id="JG0iYZfVDNP51qGV0m4O-49" value="출연" style="shape=table;startSize=30;container=1;collapsible=1;childLayout=tableLayout;fixedRows=1;rowLines=0;fontStyle=1;align=center;resizeLast=1;html=1;" vertex="1" parent="1">
          <mxGeometry x="405" y="-1140" width="180" height="150" as="geometry" />
        </mxCell>
        <mxCell id="JG0iYZfVDNP51qGV0m4O-50" value="" style="shape=tableRow;horizontal=0;startSize=0;swimlaneHead=0;swimlaneBody=0;fillColor=none;collapsible=0;dropTarget=0;points=[[0,0.5],[1,0.5]];portConstraint=eastwest;top=0;left=0;right=0;bottom=1;" vertex="1" parent="JG0iYZfVDNP51qGV0m4O-49">
          <mxGeometry y="30" width="180" height="30" as="geometry" />
        </mxCell>
        <mxCell id="JG0iYZfVDNP51qGV0m4O-51" value="PK" style="shape=partialRectangle;connectable=0;fillColor=none;top=0;left=0;bottom=0;right=0;fontStyle=1;overflow=hidden;whiteSpace=wrap;html=1;" vertex="1" parent="JG0iYZfVDNP51qGV0m4O-50">
          <mxGeometry width="30" height="30" as="geometry">
            <mxRectangle width="30" height="30" as="alternateBounds" />
          </mxGeometry>
        </mxCell>
        <mxCell id="JG0iYZfVDNP51qGV0m4O-52" value="UniqueID" style="shape=partialRectangle;connectable=0;fillColor=none;top=0;left=0;bottom=0;right=0;align=left;spacingLeft=6;fontStyle=5;overflow=hidden;whiteSpace=wrap;html=1;" vertex="1" parent="JG0iYZfVDNP51qGV0m4O-50">
          <mxGeometry x="30" width="150" height="30" as="geometry">
            <mxRectangle width="150" height="30" as="alternateBounds" />
          </mxGeometry>
        </mxCell>
        <mxCell id="JG0iYZfVDNP51qGV0m4O-53" value="" style="shape=tableRow;horizontal=0;startSize=0;swimlaneHead=0;swimlaneBody=0;fillColor=none;collapsible=0;dropTarget=0;points=[[0,0.5],[1,0.5]];portConstraint=eastwest;top=0;left=0;right=0;bottom=0;" vertex="1" parent="JG0iYZfVDNP51qGV0m4O-49">
          <mxGeometry y="60" width="180" height="30" as="geometry" />
        </mxCell>
        <mxCell id="JG0iYZfVDNP51qGV0m4O-54" value="" style="shape=partialRectangle;connectable=0;fillColor=none;top=0;left=0;bottom=0;right=0;editable=1;overflow=hidden;whiteSpace=wrap;html=1;" vertex="1" parent="JG0iYZfVDNP51qGV0m4O-53">
          <mxGeometry width="30" height="30" as="geometry">
            <mxRectangle width="30" height="30" as="alternateBounds" />
          </mxGeometry>
        </mxCell>
        <mxCell id="JG0iYZfVDNP51qGV0m4O-55" value="Row 1" style="shape=partialRectangle;connectable=0;fillColor=none;top=0;left=0;bottom=0;right=0;align=left;spacingLeft=6;overflow=hidden;whiteSpace=wrap;html=1;" vertex="1" parent="JG0iYZfVDNP51qGV0m4O-53">
          <mxGeometry x="30" width="150" height="30" as="geometry">
            <mxRectangle width="150" height="30" as="alternateBounds" />
          </mxGeometry>
        </mxCell>
        <mxCell id="JG0iYZfVDNP51qGV0m4O-56" value="" style="shape=tableRow;horizontal=0;startSize=0;swimlaneHead=0;swimlaneBody=0;fillColor=none;collapsible=0;dropTarget=0;points=[[0,0.5],[1,0.5]];portConstraint=eastwest;top=0;left=0;right=0;bottom=0;" vertex="1" parent="JG0iYZfVDNP51qGV0m4O-49">
          <mxGeometry y="90" width="180" height="30" as="geometry" />
        </mxCell>
        <mxCell id="JG0iYZfVDNP51qGV0m4O-57" value="" style="shape=partialRectangle;connectable=0;fillColor=none;top=0;left=0;bottom=0;right=0;editable=1;overflow=hidden;whiteSpace=wrap;html=1;" vertex="1" parent="JG0iYZfVDNP51qGV0m4O-56">
          <mxGeometry width="30" height="30" as="geometry">
            <mxRectangle width="30" height="30" as="alternateBounds" />
          </mxGeometry>
        </mxCell>
        <mxCell id="JG0iYZfVDNP51qGV0m4O-58" value="Row 2" style="shape=partialRectangle;connectable=0;fillColor=none;top=0;left=0;bottom=0;right=0;align=left;spacingLeft=6;overflow=hidden;whiteSpace=wrap;html=1;" vertex="1" parent="JG0iYZfVDNP51qGV0m4O-56">
          <mxGeometry x="30" width="150" height="30" as="geometry">
            <mxRectangle width="150" height="30" as="alternateBounds" />
          </mxGeometry>
        </mxCell>
        <mxCell id="JG0iYZfVDNP51qGV0m4O-59" value="" style="shape=tableRow;horizontal=0;startSize=0;swimlaneHead=0;swimlaneBody=0;fillColor=none;collapsible=0;dropTarget=0;points=[[0,0.5],[1,0.5]];portConstraint=eastwest;top=0;left=0;right=0;bottom=0;" vertex="1" parent="JG0iYZfVDNP51qGV0m4O-49">
          <mxGeometry y="120" width="180" height="30" as="geometry" />
        </mxCell>
        <mxCell id="JG0iYZfVDNP51qGV0m4O-60" value="" style="shape=partialRectangle;connectable=0;fillColor=none;top=0;left=0;bottom=0;right=0;editable=1;overflow=hidden;whiteSpace=wrap;html=1;" vertex="1" parent="JG0iYZfVDNP51qGV0m4O-59">
          <mxGeometry width="30" height="30" as="geometry">
            <mxRectangle width="30" height="30" as="alternateBounds" />
          </mxGeometry>
        </mxCell>
        <mxCell id="JG0iYZfVDNP51qGV0m4O-61" value="Row 3" style="shape=partialRectangle;connectable=0;fillColor=none;top=0;left=0;bottom=0;right=0;align=left;spacingLeft=6;overflow=hidden;whiteSpace=wrap;html=1;" vertex="1" parent="JG0iYZfVDNP51qGV0m4O-59">
          <mxGeometry x="30" width="150" height="30" as="geometry">
            <mxRectangle width="150" height="30" as="alternateBounds" />
          </mxGeometry>
        </mxCell>
        <mxCell id="JG0iYZfVDNP51qGV0m4O-62" value="" style="endArrow=ERmany;html=1;rounded=0;startArrow=ERone;startFill=0;endFill=0;" edge="1" parent="1" source="JG0iYZfVDNP51qGV0m4O-27" target="JG0iYZfVDNP51qGV0m4O-53">
          <mxGeometry width="50" height="50" relative="1" as="geometry">
            <mxPoint x="430" y="-960" as="sourcePoint" />
            <mxPoint x="480" y="-1010" as="targetPoint" />
          </mxGeometry>
        </mxCell>
        <mxCell id="JG0iYZfVDNP51qGV0m4O-63" value="" style="endArrow=ERone;html=1;rounded=0;endFill=0;startArrow=ERoneToMany;startFill=0;" edge="1" parent="1" source="JG0iYZfVDNP51qGV0m4O-53" target="JG0iYZfVDNP51qGV0m4O-40">
          <mxGeometry width="50" height="50" relative="1" as="geometry">
            <mxPoint x="430" y="-960" as="sourcePoint" />
            <mxPoint x="480" y="-1010" as="targetPoint" />
          </mxGeometry>
        </mxCell>
        <mxCell id="JG0iYZfVDNP51qGV0m4O-64" value="영화ID&lt;div&gt;FK&lt;/div&gt;" style="ellipse;whiteSpace=wrap;html=1;aspect=fixed;fontStyle=0" vertex="1" parent="1">
          <mxGeometry x="470" y="-1250" width="50" height="50" as="geometry" />
        </mxCell>
      </root>
    </mxGraphModel>
  </diagram>
</mxfile>
